SplineFontDB: 3.0
FontName: ConversationCell
FullName: ConversationCell
FamilyName: ConversationCell
Weight: Book
Copyright: 
Version: 1.0
ItalicAngle: 0
UnderlinePosition: 0
UnderlineWidth: 0
Ascent: 960
Descent: 64
InvalidEm: 0
sfntRevision: 0x00010000
LayerCount: 2
Layer: 0 1 "Back" 1
Layer: 1 1 "Fore" 0
XUID: [1021 753 -624364747 4696927]
StyleMap: 0x0040
FSType: 0
OS2Version: 3
OS2_WeightWidthSlopeOnly: 0
OS2_UseTypoMetrics: 0
CreationTime: 1554443842
ModificationTime: 1554444825
PfmFamily: 81
TTFWeight: 400
TTFWidth: 5
LineGap: 0
VLineGap: 0
Panose: 0 0 0 0 0 0 0 0 0 0
OS2TypoAscent: 960
OS2TypoAOffset: 0
OS2TypoDescent: -64
OS2TypoDOffset: 0
OS2TypoLinegap: 64
OS2WinAscent: 960
OS2WinAOffset: 0
OS2WinDescent: 64
OS2WinDOffset: 0
HheadAscent: 960
HheadAOffset: 0
HheadDescent: -64
HheadDOffset: 0
OS2SubXSize: 665
OS2SubYSize: 716
OS2SubXOff: 0
OS2SubYOff: 143
OS2SupXSize: 665
OS2SupYSize: 716
OS2SupXOff: 0
OS2SupYOff: 491
OS2StrikeYSize: 51
OS2StrikeYPos: 265
OS2Vendor: 'PfEd'
OS2CodePages: 00000001.00000000
OS2UnicodeRanges: 00000001.10000000.00000000.00000000
MarkAttachClasses: 1
DEI: 91125
ShortTable: maxp 16
  1
  0
  402
  1745
  144
  0
  0
  2
  0
  0
  0
  0
  0
  0
  0
  0
EndShort
LangName: 1033 "" "" "Regular" "icomoon" "" "Version 1.0" "" "" "" "" "Font generated by IcoMoon."
GaspTable: 1 65535 15 1
Encoding: UnicodeBmp
UnicodeInterp: none
NameList: AGL For New Fonts
DisplaySize: -48
AntiAlias: 1
FitToEm: 0
WinInfo: 33 33 13
BeginPrivate: 0
EndPrivate
TeXData: 1 0 0 524288 262144 174762 0 1048576 174762 783286 444596 497025 792723 393216 433062 380633 303038 157286 324010 404750 52429 2506097 1059062 262144
BeginChars: 65536 402

StartChar: glyph1
Encoding: 0 -1 1
AltUni2: 000000.ffffffff.0
Width: 0
Flags: W
LayerCount: 2
Fore
SplineSet
0 0 m 1,0,-1
 0 0 l 1,1,-1
 0 0 l 1,2,-1
 0 0 l 1,0,-1
EndSplineSet
EndChar

StartChar: uni0001
Encoding: 1 1 2
Width: 0
Flags: W
LayerCount: 2
Fore
SplineSet
0 0 m 1,0,-1
 0 0 l 1,1,-1
 0 0 l 1,2,-1
 0 0 l 1,0,-1
EndSplineSet
EndChar

StartChar: space
Encoding: 32 32 3
Width: 512
Flags: W
LayerCount: 2
Fore
SplineSet
0 0 m 1,0,-1
 0 0 l 1,1,-1
 0 0 l 1,2,-1
 0 0 l 1,0,-1
EndSplineSet
EndChar

StartChar: uniE900
Encoding: 59648 59648 4
Width: 1024
Flags: W
LayerCount: 2
Fore
SplineSet
593 243 m 1,0,1
 593 233 593 233 586.5 226 c 128,-1,2
 580 219 580 219 570 219 c 2,3,-1
 454 219 l 2,4,5
 444 219 444 219 437.5 226 c 128,-1,6
 431 233 431 233 431 243 c 2,7,-1
 431 324 l 1,8,-1
 0 422 l 1,9,-1
 0 33 l 2,10,11
 0 13 0 13 13.5 -0.5 c 128,-1,12
 27 -14 27 -14 47 -14 c 2,13,-1
 977 -14 l 2,14,15
 997 -14 997 -14 1010.5 -0.5 c 128,-1,16
 1024 13 1024 13 1024 33 c 2,17,-1
 1024 422 l 1,18,-1
 593 324 l 1,19,-1
 593 243 l 1,20,-1
 593 243 l 1,0,1
977 684 m 1,21,-1
 47 684 l 2,22,23
 27 684 27 684 13.5 670.5 c 128,-1,24
 0 657 0 657 0 638 c 2,25,-1
 0 482 l 1,26,-1
 431 384 l 1,27,-1
 431 429 l 2,28,29
 431 439 431 439 437.5 445.5 c 128,-1,30
 444 452 444 452 454 452 c 2,31,-1
 570 452 l 2,32,33
 580 452 580 452 586.5 445.5 c 128,-1,34
 593 439 593 439 593 429 c 2,35,-1
 593 384 l 1,36,-1
 1024 482 l 1,37,-1
 1024 638 l 2,38,39
 1024 657 1024 657 1010.5 670.5 c 128,-1,40
 997 684 997 684 977 684 c 1,41,-1
 977 684 l 1,21,-1
332 792 m 1,42,43
 332 818 332 818 350.5 836.5 c 128,-1,44
 369 855 369 855 395 855 c 2,45,-1
 629 855 l 2,46,47
 655 855 655 855 673.5 836.5 c 128,-1,48
 692 818 692 818 692 792 c 2,49,-1
 692 731 l 1,50,-1
 746 731 l 1,51,-1
 746 792 l 2,52,53
 746 841 746 841 711.5 875.5 c 128,-1,54
 677 910 677 910 629 910 c 2,55,-1
 395 910 l 2,56,57
 347 910 347 910 312.5 875.5 c 128,-1,58
 278 841 278 841 278 792 c 2,59,-1
 278 731 l 1,60,-1
 332 731 l 1,61,-1
 332 792 l 1,62,-1
 332 792 l 1,42,43
EndSplineSet
EndChar

StartChar: uniE901
Encoding: 59649 59649 5
Width: 1024
Flags: W
LayerCount: 2
Fore
SplineSet
848 705 m 1,0,1
 845 715 845 715 840.5 726 c 128,-1,2
 836 737 836 737 832 746 c 0,3,4
 807 805 807 805 769 846 c 0,5,6
 732 887 732 887 688 912 c 128,-1,7
 644 937 644 937 597 949 c 0,8,9
 551 960 551 960 507 960 c 0,10,11
 449 960 449 960 391 940 c 0,12,13
 332 921 332 921 283.5 881.5 c 128,-1,14
 235 842 235 842 201 782 c 0,15,16
 168 723 168 723 159 642 c 1,17,-1
 159 599 l 2,18,19
 159 597 159 597 159.5 587.5 c 128,-1,20
 160 578 160 578 161 572 c 0,21,22
 166 534 166 534 182 495 c 256,23,24
 198 456 198 456 220 416.5 c 128,-1,25
 242 377 242 377 267 337 c 0,26,27
 292 298 292 298 314 260 c 0,28,29
 338 219 338 219 363 178 c 0,30,31
 388 138 388 138 412.5 97.5 c 128,-1,32
 437 57 437 57 462 17 c 0,33,34
 487 -24 487 -24 512 -64 c 1,35,36
 543 -11 543 -11 573.5 41.5 c 128,-1,37
 604 94 604 94 634 145 c 0,38,39
 642 160 642 160 651 175 c 128,-1,40
 660 190 660 190 669 205 c 0,41,42
 674 214 674 214 682.5 223.5 c 128,-1,43
 691 233 691 233 696 242 c 0,44,45
 720 286 720 286 750 331 c 0,46,47
 779 375 779 375 804.5 419.5 c 128,-1,48
 830 464 830 464 847 508 c 0,49,50
 865 553 865 553 865 597 c 2,51,-1
 865 645 l 2,52,53
 865 655 865 655 857 679 c 128,-1,54
 849 703 849 703 848 705 c 1,55,-1
 848 705 l 1,0,1
510 486 m 1,56,57
 476 486 476 486 442.5 505 c 128,-1,58
 409 524 409 524 390 571 c 0,59,60
 387 579 387 579 387 590.5 c 128,-1,61
 387 602 387 602 387 603 c 2,62,-1
 387 631 l 2,63,64
 387 691 387 691 428.5 719.5 c 128,-1,65
 470 748 470 748 514 748 c 0,66,67
 569 748 569 748 606 709.5 c 128,-1,68
 643 671 643 671 643 617 c 0,69,70
 643 562 643 562 604 524 c 128,-1,71
 565 486 565 486 510 486 c 1,72,-1
 510 486 l 1,56,57
EndSplineSet
EndChar

StartChar: uniE902
Encoding: 59650 59650 6
Width: 1024
Flags: W
LayerCount: 2
Fore
SplineSet
512 960 m 256,0,1
 406 960 406 960 313 920 c 0,2,3
 220 879 220 879 150.5 809.5 c 128,-1,4
 81 740 81 740 40 647 c 0,5,6
 0 554 0 554 0 448 c 256,7,8
 0 342 0 342 40 249 c 0,9,10
 81 156 81 156 150.5 86.5 c 128,-1,11
 220 17 220 17 313 -24 c 0,12,13
 406 -64 406 -64 512 -64 c 256,14,15
 618 -64 618 -64 711 -24 c 0,16,17
 804 17 804 17 873.5 86.5 c 128,-1,18
 943 156 943 156 984 249 c 0,19,20
 1024 342 1024 342 1024 448 c 256,21,22
 1024 554 1024 554 984 647 c 0,23,24
 943 740 943 740 873.5 809.5 c 128,-1,25
 804 879 804 879 711 920 c 0,26,27
 618 960 618 960 512 960 c 256,0,1
865 653 m 1,28,-1
 717 653 l 1,29,30
 705 703 705 703 686.5 747 c 128,-1,31
 668 791 668 791 645 837 c 1,32,33
 714 810 714 810 772.5 764 c 128,-1,34
 831 718 831 718 865 653 c 1,35,-1
 865 653 l 1,28,-1
512 858 m 1,36,37
 543 812 543 812 568.5 761 c 128,-1,38
 594 710 594 710 609 653 c 1,39,-1
 415 653 l 1,40,41
 430 707 430 707 455.5 759.5 c 128,-1,42
 481 812 481 812 512 858 c 1,43,-1
 512 858 l 1,36,37
118 346 m 1,44,45
 110 369 110 369 106 395 c 128,-1,46
 102 421 102 421 102 448 c 256,47,48
 102 475 102 475 106 501 c 128,-1,49
 110 527 110 527 118 550 c 1,50,-1
 292 550 l 1,51,52
 288 524 288 524 287.5 499.5 c 128,-1,53
 287 475 287 475 287 448 c 256,54,55
 287 421 287 421 289.5 396.5 c 128,-1,56
 292 372 292 372 292 346 c 1,57,-1
 118 346 l 1,58,-1
 118 346 l 1,44,45
159 243 m 1,59,-1
 307 243 l 1,60,61
 319 193 319 193 337.5 149 c 128,-1,62
 356 105 356 105 379 59 c 1,63,64
 310 86 310 86 251.5 132 c 128,-1,65
 193 178 193 178 159 243 c 1,59,-1
307 653 m 1,66,-1
 159 653 l 1,67,68
 197 718 197 718 253.5 764 c 128,-1,69
 310 810 310 810 379 837 c 1,70,71
 356 791 356 791 337.5 747 c 128,-1,72
 319 703 319 703 307 653 c 1,66,-1
512 38 m 1,73,74
 481 84 481 84 455.5 135 c 128,-1,75
 430 186 430 186 415 243 c 1,76,-1
 609 243 l 1,77,78
 594 189 594 189 568.5 136.5 c 128,-1,79
 543 84 543 84 512 38 c 1,80,-1
 512 38 l 1,73,74
630 346 m 1,81,-1
 394 346 l 1,82,83
 390 372 390 372 387 396.5 c 128,-1,84
 384 421 384 421 384 448 c 256,85,86
 384 475 384 475 387 499.5 c 128,-1,87
 390 524 390 524 394 550 c 1,88,-1
 635 550 l 1,89,90
 639 524 639 524 642 499.5 c 128,-1,91
 645 475 645 475 645 448 c 256,92,93
 645 421 645 421 639.5 396.5 c 128,-1,94
 634 372 634 372 630 346 c 1,81,-1
645 59 m 1,95,96
 668 101 668 101 686.5 147 c 128,-1,97
 705 193 705 193 717 243 c 1,98,-1
 865 243 l 1,99,100
 831 178 831 178 772.5 132 c 128,-1,101
 714 86 714 86 645 59 c 1,102,-1
 645 59 l 1,95,96
737 346 m 1,103,104
 741 372 741 372 741.5 396.5 c 128,-1,105
 742 421 742 421 742 448 c 256,106,107
 742 475 742 475 739.5 499.5 c 128,-1,108
 737 524 737 524 737 550 c 1,109,-1
 911 550 l 1,110,111
 919 527 919 527 923 501 c 128,-1,112
 927 475 927 475 927 448 c 256,113,114
 927 421 927 421 923 395 c 128,-1,115
 919 369 919 369 911 346 c 1,116,-1
 737 346 l 1,103,104
EndSplineSet
EndChar

StartChar: uniE903
Encoding: 59651 59651 7
Width: 1024
Flags: W
LayerCount: 2
Fore
SplineSet
727 960 m 2,0,-1
 297 960 l 2,1,2
 266 960 266 960 244 938 c 128,-1,3
 222 916 222 916 222 885 c 2,4,-1
 222 11 l 2,5,6
 222 -20 222 -20 244 -42 c 128,-1,7
 266 -64 266 -64 297 -64 c 2,8,-1
 727 -64 l 2,9,10
 758 -64 758 -64 780 -42 c 128,-1,11
 802 -20 802 -20 802 11 c 2,12,-1
 802 885 l 2,13,14
 802 916 802 916 780 938 c 128,-1,15
 758 960 758 960 727 960 c 2,0,-1
406 915 m 1,16,-1
 618 915 l 2,17,18
 622 915 622 915 625 909.5 c 128,-1,19
 628 904 628 904 628 897 c 0,20,21
 628 889 628 889 625 884 c 128,-1,22
 622 879 622 879 618 879 c 2,23,-1
 406 879 l 2,24,25
 402 879 402 879 399 884 c 128,-1,26
 396 889 396 889 396 897 c 0,27,28
 396 904 396 904 399 909.5 c 128,-1,29
 402 915 402 915 406 915 c 1,30,-1
 406 915 l 1,16,-1
512 10 m 256,31,32
 492 10 492 10 478 24 c 128,-1,33
 464 38 464 38 464 57 c 0,34,35
 464 77 464 77 478 91 c 128,-1,36
 492 105 492 105 512 105 c 256,37,38
 532 105 532 105 546 91 c 128,-1,39
 560 77 560 77 560 57 c 0,40,41
 560 38 560 38 546 24 c 128,-1,42
 532 10 532 10 512 10 c 256,31,32
746 173 m 1,43,-1
 278 173 l 1,44,-1
 278 834 l 1,45,-1
 746 834 l 1,46,-1
 746 173 l 1,43,-1
EndSplineSet
EndChar

StartChar: uniE904
Encoding: 59652 59652 8
Width: 1024
Flags: W
LayerCount: 2
Fore
SplineSet
512 122 m 256,0,1
 474 122 474 122 446.5 94.5 c 128,-1,2
 419 67 419 67 419 29 c 256,3,4
 419 -9 419 -9 446.5 -36.5 c 128,-1,5
 474 -64 474 -64 512 -64 c 256,6,7
 550 -64 550 -64 577.5 -36.5 c 128,-1,8
 605 -9 605 -9 605 29 c 256,9,10
 605 67 605 67 577.5 94.5 c 128,-1,11
 550 122 550 122 512 122 c 256,0,1
233 960 m 1,12,13
 194 960 194 960 167 932.5 c 128,-1,14
 140 905 140 905 140 867 c 256,15,16
 140 829 140 829 167 801.5 c 128,-1,17
 194 774 194 774 233 774 c 0,18,19
 271 774 271 774 298.5 801.5 c 128,-1,20
 326 829 326 829 326 867 c 256,21,22
 326 905 326 905 298.5 932.5 c 128,-1,23
 271 960 271 960 233 960 c 1,24,-1
 233 960 l 1,12,13
233 681 m 1,25,26
 194 681 194 681 167 653.5 c 128,-1,27
 140 626 140 626 140 588 c 0,28,29
 140 549 140 549 167 522 c 128,-1,30
 194 495 194 495 233 495 c 0,31,32
 271 495 271 495 298.5 522 c 128,-1,33
 326 549 326 549 326 588 c 0,34,35
 326 626 326 626 298.5 653.5 c 128,-1,36
 271 681 271 681 233 681 c 1,37,-1
 233 681 l 1,25,26
233 401 m 1,38,39
 194 401 194 401 167 374 c 128,-1,40
 140 347 140 347 140 308 c 0,41,42
 140 270 140 270 167 242.5 c 128,-1,43
 194 215 194 215 233 215 c 0,44,45
 271 215 271 215 298.5 242.5 c 128,-1,46
 326 270 326 270 326 308 c 0,47,48
 326 347 326 347 298.5 374 c 128,-1,49
 271 401 271 401 233 401 c 1,50,-1
 233 401 l 1,38,39
791 774 m 0,51,52
 830 774 830 774 857 801.5 c 128,-1,53
 884 829 884 829 884 867 c 256,54,55
 884 905 884 905 857 932.5 c 128,-1,56
 830 960 830 960 791 960 c 0,57,58
 753 960 753 960 725.5 932.5 c 128,-1,59
 698 905 698 905 698 867 c 256,60,61
 698 829 698 829 725.5 801.5 c 128,-1,62
 753 774 753 774 791 774 c 0,51,52
512 401 m 256,63,64
 474 401 474 401 446.5 374 c 128,-1,65
 419 347 419 347 419 308 c 0,66,67
 419 270 419 270 446.5 242.5 c 128,-1,68
 474 215 474 215 512 215 c 256,69,70
 550 215 550 215 577.5 242.5 c 128,-1,71
 605 270 605 270 605 308 c 0,72,73
 605 347 605 347 577.5 374 c 128,-1,74
 550 401 550 401 512 401 c 256,63,64
791 401 m 0,75,76
 753 401 753 401 725.5 374 c 128,-1,77
 698 347 698 347 698 308 c 0,78,79
 698 270 698 270 725.5 242.5 c 128,-1,80
 753 215 753 215 791 215 c 0,81,82
 830 215 830 215 857 242.5 c 128,-1,83
 884 270 884 270 884 308 c 0,84,85
 884 347 884 347 857 374 c 128,-1,86
 830 401 830 401 791 401 c 0,75,76
791 681 m 0,87,88
 753 681 753 681 725.5 653.5 c 128,-1,89
 698 626 698 626 698 588 c 0,90,91
 698 549 698 549 725.5 522 c 128,-1,92
 753 495 753 495 791 495 c 0,93,94
 830 495 830 495 857 522 c 128,-1,95
 884 549 884 549 884 588 c 0,96,97
 884 626 884 626 857 653.5 c 128,-1,98
 830 681 830 681 791 681 c 0,87,88
512 681 m 256,99,100
 474 681 474 681 446.5 653.5 c 128,-1,101
 419 626 419 626 419 588 c 0,102,103
 419 549 419 549 446.5 522 c 128,-1,104
 474 495 474 495 512 495 c 256,105,106
 550 495 550 495 577.5 522 c 128,-1,107
 605 549 605 549 605 588 c 0,108,109
 605 626 605 626 577.5 653.5 c 128,-1,110
 550 681 550 681 512 681 c 256,99,100
512 960 m 256,111,112
 474 960 474 960 446.5 932.5 c 128,-1,113
 419 905 419 905 419 867 c 256,114,115
 419 829 419 829 446.5 801.5 c 128,-1,116
 474 774 474 774 512 774 c 256,117,118
 550 774 550 774 577.5 801.5 c 128,-1,119
 605 829 605 829 605 867 c 256,120,121
 605 905 605 905 577.5 932.5 c 128,-1,122
 550 960 550 960 512 960 c 256,111,112
EndSplineSet
EndChar

StartChar: uniE905
Encoding: 59653 59653 9
Width: 1024
Flags: W
LayerCount: 2
Fore
SplineSet
888 89 m 1,0,-1
 888 300 l 2,1,2
 888 372 888 372 846.5 428 c 128,-1,3
 805 484 805 484 741 507 c 1,4,-1
 741 610 l 2,5,6
 741 638 741 638 721.5 657.5 c 128,-1,7
 702 677 702 677 674 677 c 256,8,9
 646 677 646 677 626 657.5 c 128,-1,10
 606 638 606 638 606 610 c 1,11,12
 606 610 606 610 598 565 c 128,-1,13
 590 520 590 520 523 520 c 0,14,15
 455 520 455 520 439 565 c 128,-1,16
 423 610 423 610 423 610 c 1,17,18
 423 638 423 638 403 657.5 c 128,-1,19
 383 677 383 677 355 677 c 256,20,21
 327 677 327 677 307.5 657.5 c 128,-1,22
 288 638 288 638 288 610 c 2,23,-1
 288 503 l 1,24,25
 228 479 228 479 190 424 c 128,-1,26
 152 369 152 369 152 300 c 2,27,-1
 152 88 l 1,28,29
 140 81 140 81 132.5 68.5 c 128,-1,30
 125 56 125 56 125 41 c 0,31,32
 125 19 125 19 140.5 3.5 c 128,-1,33
 156 -12 156 -12 178 -12 c 2,34,-1
 864 -12 l 2,35,36
 887 -12 887 -12 902.5 3.5 c 128,-1,37
 918 19 918 19 918 41 c 0,38,39
 918 57 918 57 909.5 70 c 128,-1,40
 901 83 901 83 888 89 c 1,41,-1
 888 89 l 1,0,-1
520 182 m 0,42,43
 470 182 470 182 435 217 c 128,-1,44
 400 252 400 252 400 301 c 0,45,46
 400 351 400 351 435 386 c 128,-1,47
 470 421 470 421 520 421 c 0,48,49
 569 421 569 421 604 386 c 128,-1,50
 639 351 639 351 639 301 c 0,51,52
 639 252 639 252 604 217 c 128,-1,53
 569 182 569 182 520 182 c 0,42,43
582 302 m 256,54,55
 582 275 582 275 563.5 256.5 c 128,-1,56
 545 238 545 238 518 238 c 0,57,58
 492 238 492 238 473 256.5 c 128,-1,59
 454 275 454 275 454 302 c 256,60,61
 454 329 454 329 473 347.5 c 128,-1,62
 492 366 492 366 518 366 c 0,63,64
 545 366 545 366 563.5 347.5 c 128,-1,65
 582 329 582 329 582 302 c 256,54,55
1022 634 m 1,66,-1
 1022 634 l 1,67,68
 1022 633 1022 633 1022 632.5 c 128,-1,69
 1022 632 1022 632 1021 631 c 0,70,71
 1021 629 1021 629 1020.5 627.5 c 128,-1,72
 1020 626 1020 626 1020 625 c 256,73,74
 1020 624 1020 624 1020 623.5 c 128,-1,75
 1020 623 1020 623 1020 622 c 0,76,77
 1018 614 1018 614 1016.5 610 c 128,-1,78
 1015 606 1015 606 1015 606 c 257,79,80
 1015 606 1015 606 1014.5 606 c 128,-1,81
 1014 606 1014 606 1014 606 c 1,82,83
 1001 572 1001 572 973.5 553.5 c 128,-1,84
 946 535 946 535 915 547 c 2,85,-1
 826 584 l 2,86,87
 789 597 789 597 769 640 c 128,-1,88
 749 683 749 683 757 731 c 2,89,-1
 758 736 l 1,90,91
 717 748 717 748 657 755 c 0,92,93
 598 762 598 762 531.5 763 c 128,-1,94
 465 764 465 764 396 757 c 256,95,96
 327 750 327 750 265 733 c 1,97,-1
 267 720 l 2,98,99
 275 673 275 673 255 630 c 128,-1,100
 235 587 235 587 199 573 c 2,101,-1
 109 545 l 2,102,103
 74 532 74 532 43 553 c 128,-1,104
 12 574 12 574 3 619 c 0,105,106
 -1 633 -1 633 3 678 c 0,107,108
 8 723 8 723 51.5 773 c 128,-1,109
 95 823 95 823 194 864 c 0,110,111
 293 904 293 904 477 908 c 0,112,113
 671 912 671 912 783 880 c 0,114,115
 894 849 894 849 949 804 c 128,-1,116
 1004 759 1004 759 1015 711 c 0,117,118
 1027 664 1027 664 1022 634 c 1,119,-1
 1022 634 l 1,66,-1
EndSplineSet
EndChar

StartChar: uniE906
Encoding: 59654 59654 10
Width: 1024
Flags: W
LayerCount: 2
Fore
SplineSet
287 101 m 1,0,1
 273 101 273 101 260 105 c 128,-1,2
 247 109 247 109 235 117 c 0,3,4
 233 118 233 118 232 120 c 128,-1,5
 231 122 231 122 231 124 c 256,6,7
 231 126 231 126 232 128 c 128,-1,8
 233 130 233 130 235 131 c 0,9,10
 252 142 252 142 274.5 160 c 128,-1,11
 297 178 297 178 299 190 c 0,12,13
 299 192 299 192 298.5 193.5 c 128,-1,14
 298 195 298 195 297 196 c 1,15,-1
 297 196 l 1,16,17
 262 232 262 232 244 279.5 c 128,-1,18
 226 327 226 327 226 382 c 0,19,20
 226 439 226 439 247 489 c 0,21,22
 269 540 269 540 306.5 577.5 c 128,-1,23
 344 615 344 615 395 637 c 0,24,25
 445 658 445 658 502 658 c 256,26,27
 559 658 559 658 610 637 c 0,28,29
 660 615 660 615 697.5 577.5 c 128,-1,30
 735 540 735 540 757 489 c 0,31,32
 779 439 779 439 779 382 c 0,33,34
 779 324 779 324 757 274 c 256,35,36
 735 224 735 224 697.5 186.5 c 128,-1,37
 660 149 660 149 610 127 c 0,38,39
 559 105 559 105 502 105 c 0,40,41
 468 105 468 105 434.5 113.5 c 128,-1,42
 401 122 401 122 371 138 c 1,43,44
 366 133 366 133 356.5 126 c 128,-1,45
 347 119 347 119 333 112 c 0,46,47
 321 106 321 106 309.5 103.5 c 128,-1,48
 298 101 298 101 287 101 c 1,49,-1
 287 101 l 1,0,1
255 124 m 1,50,51
 298 105 298 105 331 128.5 c 128,-1,52
 364 152 364 152 365 153 c 0,53,54
 367 155 367 155 369.5 155.5 c 128,-1,55
 372 156 372 156 374 154 c 0,56,57
 404 138 404 138 436.5 129.5 c 128,-1,58
 469 121 469 121 503 121 c 0,59,60
 557 121 557 121 604 141 c 0,61,62
 651 162 651 162 686.5 197.5 c 128,-1,63
 722 233 722 233 743 280 c 0,64,65
 763 327 763 327 763 381 c 256,66,67
 763 435 763 435 743 482 c 0,68,69
 722 530 722 530 686.5 565 c 128,-1,70
 651 600 651 600 604 621 c 0,71,72
 557 641 557 641 503 641 c 256,73,74
 449 641 449 641 402 621 c 0,75,76
 354 600 354 600 318.5 565 c 128,-1,77
 283 530 283 530 263 482 c 0,78,79
 242 435 242 435 242 381 c 0,80,81
 242 330 242 330 259.5 285 c 128,-1,82
 277 240 277 240 309 207 c 1,83,-1
 309 207 l 1,84,85
 313 203 313 203 315 198 c 128,-1,86
 317 193 317 193 316 188 c 0,87,88
 313 171 313 171 291.5 152.5 c 128,-1,89
 270 134 270 134 255 124 c 1,90,-1
 255 124 l 1,50,51
502 320 m 0,91,92
 477 320 477 320 459 338 c 128,-1,93
 441 356 441 356 441 381 c 256,94,95
 441 406 441 406 459 424.5 c 128,-1,96
 477 443 477 443 502 443 c 256,97,98
 527 443 527 443 545.5 424.5 c 128,-1,99
 564 406 564 406 564 381 c 256,100,101
 564 356 564 356 546 338 c 128,-1,102
 528 320 528 320 502 320 c 0,91,92
502 426 m 1,103,104
 483 426 483 426 470 413 c 128,-1,105
 457 400 457 400 457 381 c 256,106,107
 457 362 457 362 470 349 c 128,-1,108
 483 336 483 336 502 336 c 256,109,110
 521 336 521 336 534 349 c 128,-1,111
 547 362 547 362 547 381 c 256,112,113
 547 400 547 400 534 413 c 128,-1,114
 521 426 521 426 502 426 c 1,115,-1
 502 426 l 1,103,104
620 381 m 0,116,117
 620 376 620 376 616 372 c 128,-1,118
 612 368 612 368 607 368 c 0,119,120
 601 368 601 368 597.5 372 c 128,-1,121
 594 376 594 376 594 381 c 0,122,123
 594 387 594 387 597.5 390.5 c 128,-1,124
 601 394 601 394 607 394 c 0,125,126
 612 394 612 394 616 390.5 c 128,-1,127
 620 387 620 387 620 381 c 0,116,117
408 381 m 0,128,129
 408 376 408 376 404 372 c 128,-1,130
 400 368 400 368 395 368 c 0,131,132
 389 368 389 368 385.5 372 c 128,-1,133
 382 376 382 376 382 381 c 0,134,135
 382 387 382 387 385.5 390.5 c 128,-1,136
 389 394 389 394 395 394 c 0,137,138
 400 394 400 394 404 390.5 c 128,-1,139
 408 387 408 387 408 381 c 0,128,129
EndSplineSet
EndChar

StartChar: uniE907
Encoding: 59655 59655 11
Width: 1024
Flags: W
LayerCount: 2
Fore
SplineSet
825 598 m 1,0,-1
 523 598 l 1,1,-1
 523 661 l 2,2,3
 523 671 523 671 516 678 c 128,-1,4
 509 685 509 685 499 685 c 2,5,-1
 272 685 l 2,6,7
 261 685 261 685 253.5 677 c 128,-1,8
 246 669 246 669 246 659 c 2,9,-1
 246 177 l 2,10,11
 246 166 246 166 254 158.5 c 128,-1,12
 262 151 262 151 272 151 c 2,13,-1
 822 151 l 2,14,15
 833 151 833 151 840.5 159 c 128,-1,16
 848 167 848 167 848 177 c 2,17,-1
 848 574 l 2,18,19
 849 584 849 584 842 591 c 128,-1,20
 835 598 835 598 825 598 c 1,21,-1
 825 598 l 1,0,-1
272 669 m 1,22,-1
 499 669 l 2,23,24
 503 669 503 669 505 666.5 c 128,-1,25
 507 664 507 664 507 661 c 2,26,-1
 507 582 l 1,27,-1
 825 582 l 2,28,29
 828 582 828 582 830 579.5 c 128,-1,30
 832 577 832 577 832 574 c 2,31,-1
 832 510 l 1,32,-1
 263 510 l 1,33,-1
 263 659 l 2,34,35
 263 663 263 663 265.5 666 c 128,-1,36
 268 669 268 669 272 669 c 1,37,-1
 272 669 l 1,22,-1
823 168 m 1,38,-1
 272 168 l 2,39,40
 268 168 268 168 265.5 170.5 c 128,-1,41
 263 173 263 173 263 177 c 2,42,-1
 263 493 l 1,43,-1
 833 493 l 1,44,-1
 833 177 l 2,45,46
 833 173 833 173 830 170.5 c 128,-1,47
 827 168 827 168 823 168 c 1,48,-1
 823 168 l 1,38,-1
552 393 m 0,49,50
 528 393 528 393 511 375.5 c 128,-1,51
 494 358 494 358 494 334 c 256,52,53
 494 310 494 310 511 292.5 c 128,-1,54
 528 275 528 275 552 275 c 0,55,56
 577 275 577 275 594 292 c 128,-1,57
 611 309 611 309 611 334 c 0,58,59
 611 358 611 358 594 375.5 c 128,-1,60
 577 393 577 393 552 393 c 0,49,50
552 292 m 0,61,62
 535 292 535 292 522.5 304.5 c 128,-1,63
 510 317 510 317 510 334 c 0,64,65
 510 352 510 352 522.5 364.5 c 128,-1,66
 535 377 535 377 552 377 c 0,67,68
 570 377 570 377 582.5 364.5 c 128,-1,69
 595 352 595 352 595 334 c 0,70,71
 595 317 595 317 582.5 304.5 c 128,-1,72
 570 292 570 292 552 292 c 0,61,62
437 325 m 1,73,-1
 456 325 l 2,74,75
 456 327 456 327 455.5 329.5 c 128,-1,76
 455 332 455 332 455 334 c 256,77,78
 455 336 455 336 455.5 337.5 c 128,-1,79
 456 339 456 339 456 341 c 2,80,-1
 437 341 l 2,81,82
 434 341 434 341 431.5 339 c 128,-1,83
 429 337 429 337 429 333 c 0,84,85
 429 330 429 330 431.5 327.5 c 128,-1,86
 434 325 434 325 437 325 c 1,87,-1
 437 325 l 1,73,-1
658 341 m 1,88,-1
 649 341 l 2,89,90
 649 340 649 340 649.5 338 c 128,-1,91
 650 336 650 336 650 334 c 0,92,93
 650 331 650 331 649.5 329 c 128,-1,94
 649 327 649 327 649 325 c 2,95,-1
 658 325 l 2,96,97
 661 325 661 325 663.5 327.5 c 128,-1,98
 666 330 666 330 666 333 c 0,99,100
 666 337 666 337 663.5 339 c 128,-1,101
 661 341 661 341 658 341 c 1,102,-1
 658 341 l 1,88,-1
437 385 m 1,103,-1
 470 385 l 1,104,105
 473 389 473 389 476 393.5 c 128,-1,106
 479 398 479 398 483 401 c 2,107,-1
 437 401 l 2,108,109
 434 401 434 401 431.5 398.5 c 128,-1,110
 429 396 429 396 429 393 c 256,111,112
 429 390 429 390 431.5 387.5 c 128,-1,113
 434 385 434 385 437 385 c 1,114,-1
 437 385 l 1,103,-1
437 282 m 1,115,116
 434 282 434 282 431.5 279.5 c 128,-1,117
 429 277 429 277 429 274 c 0,118,119
 429 270 429 270 431.5 267.5 c 128,-1,120
 434 265 434 265 437 265 c 2,121,-1
 484 265 l 1,122,123
 480 269 480 269 477 273 c 128,-1,124
 474 277 474 277 471 282 c 1,125,-1
 437 282 l 1,126,-1
 437 282 l 1,115,116
658 282 m 1,127,-1
 634 282 l 1,128,129
 631 277 631 277 627.5 273 c 128,-1,130
 624 269 624 269 621 265 c 1,131,-1
 658 265 l 2,132,133
 661 265 661 265 663.5 267.5 c 128,-1,134
 666 270 666 270 666 274 c 0,135,136
 666 277 666 277 663.5 279.5 c 128,-1,137
 661 282 661 282 658 282 c 1,138,-1
 658 282 l 1,127,-1
EndSplineSet
EndChar

StartChar: uniE908
Encoding: 59656 59656 12
Width: 1024
Flags: W
LayerCount: 2
Fore
SplineSet
855 54 m 2,0,-1
 365 54 l 2,1,2
 340 54 340 54 323 71 c 128,-1,3
 306 88 306 88 306 113 c 2,4,-1
 306 463 l 2,5,6
 306 487 306 487 323 504 c 128,-1,7
 340 521 340 521 365 521 c 2,8,-1
 854 521 l 2,9,10
 879 521 879 521 896 504 c 128,-1,11
 913 487 913 487 913 463 c 2,12,-1
 913 113 l 2,13,14
 914 88 914 88 896.5 71 c 128,-1,15
 879 54 879 54 855 54 c 2,0,-1
365 505 m 1,16,17
 347 505 347 505 334.5 492.5 c 128,-1,18
 322 480 322 480 322 463 c 2,19,-1
 322 113 l 2,20,21
 322 95 322 95 334.5 82.5 c 128,-1,22
 347 70 347 70 365 70 c 2,23,-1
 854 70 l 2,24,25
 872 70 872 70 884.5 82.5 c 128,-1,26
 897 95 897 95 897 113 c 2,27,-1
 897 463 l 2,28,29
 897 480 897 480 884.5 492.5 c 128,-1,30
 872 505 872 505 854 505 c 2,31,-1
 365 505 l 1,32,-1
 365 505 l 1,16,17
603 225 m 256,33,34
 579 225 579 225 562 242 c 128,-1,35
 545 259 545 259 545 283 c 256,36,37
 545 307 545 307 562 324 c 128,-1,38
 579 341 579 341 603 341 c 256,39,40
 627 341 627 341 644 324 c 128,-1,41
 661 307 661 307 661 283 c 256,42,43
 661 259 661 259 644 242 c 128,-1,44
 627 225 627 225 603 225 c 256,33,34
603 325 m 256,45,46
 586 325 586 325 573.5 312.5 c 128,-1,47
 561 300 561 300 561 283 c 256,48,49
 561 266 561 266 573.5 253.5 c 128,-1,50
 586 241 586 241 603 241 c 256,51,52
 620 241 620 241 632.5 253.5 c 128,-1,53
 645 266 645 266 645 283 c 0,54,55
 645 301 645 301 632.5 313 c 128,-1,56
 620 325 620 325 603 325 c 256,45,46
518 331 m 1,57,-1
 382 453 l 2,58,59
 379 456 379 456 375.5 455.5 c 128,-1,60
 372 455 372 455 370 453 c 0,61,62
 368 450 368 450 368 447 c 128,-1,63
 368 444 368 444 371 441 c 2,64,-1
 511 315 l 1,65,66
 513 319 513 319 514.5 323 c 128,-1,67
 516 327 516 327 518 331 c 1,68,-1
 518 331 l 1,57,-1
509 258 m 1,69,-1
 371 124 l 2,70,71
 368 121 368 121 368 118 c 128,-1,72
 368 115 368 115 371 112 c 0,73,74
 372 111 372 111 373.5 110 c 128,-1,75
 375 109 375 109 377 109 c 0,76,77
 378 109 378 109 379.5 109.5 c 128,-1,78
 381 110 381 110 382 112 c 2,79,-1
 516 241 l 1,80,81
 514 246 514 246 512.5 250 c 128,-1,82
 511 254 511 254 509 258 c 1,83,-1
 509 258 l 1,69,-1
840 124 m 1,84,-1
 697 263 l 2,85,86
 697 258 697 258 695.5 253.5 c 128,-1,87
 694 249 694 249 692 245 c 1,88,-1
 829 112 l 2,89,90
 831 111 831 111 832.5 110.5 c 128,-1,91
 834 110 834 110 835 110 c 256,92,93
 836 110 836 110 838 110.5 c 128,-1,94
 840 111 840 111 841 113 c 0,95,96
 843 115 843 115 843 118 c 128,-1,97
 843 121 843 121 840 124 c 1,98,-1
 840 124 l 1,84,-1
840 453 m 1,99,100
 838 455 838 455 834.5 455.5 c 128,-1,101
 831 456 831 456 829 453 c 2,102,-1
 689 327 l 2,103,104
 691 324 691 324 692.5 320 c 128,-1,105
 694 316 694 316 695 311 c 1,106,-1
 840 441 l 2,107,108
 842 444 842 444 842.5 447 c 128,-1,109
 843 450 843 450 840 453 c 1,110,-1
 840 453 l 1,99,100
EndSplineSet
EndChar

StartChar: uniE909
Encoding: 59657 59657 13
Width: 1024
Flags: W
LayerCount: 2
Fore
SplineSet
537 204 m 256,0,1
 497 204 497 204 461 219 c 0,2,3
 426 234 426 234 399.5 260.5 c 128,-1,4
 373 287 373 287 358 323 c 0,5,6
 342 358 342 358 342 399 c 0,7,8
 342 439 342 439 358 474 c 0,9,10
 373 510 373 510 399.5 536.5 c 128,-1,11
 426 563 426 563 461 578 c 0,12,13
 497 593 497 593 537 593 c 256,14,15
 577 593 577 593 613 578 c 0,16,17
 648 563 648 563 674.5 536.5 c 128,-1,18
 701 510 701 510 716 474 c 0,19,20
 732 439 732 439 732 399 c 0,21,22
 732 358 732 358 716 323 c 0,23,24
 701 287 701 287 674.5 260.5 c 128,-1,25
 648 234 648 234 613 219 c 0,26,27
 577 204 577 204 537 204 c 256,0,1
537 576 m 1,28,29
 463 576 463 576 411 524 c 128,-1,30
 359 472 359 472 359 398 c 256,31,32
 359 324 359 324 411 272 c 128,-1,33
 463 220 463 220 537 220 c 256,34,35
 611 220 611 220 663 272 c 128,-1,36
 715 324 715 324 715 398 c 256,37,38
 715 472 715 472 663 524 c 128,-1,39
 611 576 611 576 537 576 c 1,40,-1
 537 576 l 1,28,29
537 113 m 256,41,42
 478 113 478 113 426 135 c 0,43,44
 374 158 374 158 335 196.5 c 128,-1,45
 296 235 296 235 274 287 c 0,46,47
 251 339 251 339 251 399 c 0,48,49
 251 458 251 458 274 510 c 0,50,51
 296 562 296 562 335 600.5 c 128,-1,52
 374 639 374 639 426 662 c 0,53,54
 478 684 478 684 537 684 c 256,55,56
 596 684 596 684 648 662 c 0,57,58
 700 639 700 639 739 600.5 c 128,-1,59
 778 562 778 562 800 510 c 0,60,61
 823 458 823 458 823 399 c 0,62,63
 823 339 823 339 800 287 c 0,64,65
 778 235 778 235 739 196.5 c 128,-1,66
 700 158 700 158 648 135 c 0,67,68
 596 113 596 113 537 113 c 256,41,42
537 668 m 1,69,70
 481 668 481 668 432 646 c 0,71,72
 383 625 383 625 346.5 588.5 c 128,-1,73
 310 552 310 552 289 503 c 0,74,75
 267 454 267 454 267 398 c 256,76,77
 267 342 267 342 289 293 c 0,78,79
 310 244 310 244 346.5 207.5 c 128,-1,80
 383 171 383 171 432 150 c 0,81,82
 481 128 481 128 537 128 c 256,83,84
 593 128 593 128 642 150 c 0,85,86
 691 171 691 171 727.5 207.5 c 128,-1,87
 764 244 764 244 785 293 c 0,88,89
 807 342 807 342 807 398 c 256,90,91
 807 454 807 454 785 503 c 0,92,93
 764 552 764 552 727.5 588.5 c 128,-1,94
 691 625 691 625 642 646 c 0,95,96
 593 668 593 668 537 668 c 1,97,-1
 537 668 l 1,69,70
348 256 m 1,98,99
 346 256 346 256 344.5 256.5 c 128,-1,100
 343 257 343 257 341 259 c 0,101,102
 336 266 336 266 331.5 273 c 128,-1,103
 327 280 327 280 323 288 c 0,104,105
 322 291 322 291 323 294 c 128,-1,106
 324 297 324 297 327 299 c 256,107,108
 330 301 330 301 333 300 c 128,-1,109
 336 299 336 299 338 296 c 0,110,111
 341 289 341 289 345 282 c 128,-1,112
 349 275 349 275 354 269 c 0,113,114
 356 266 356 266 355.5 262.5 c 128,-1,115
 355 259 355 259 352 257 c 0,116,117
 351 256 351 256 350 256 c 128,-1,118
 349 256 349 256 348 256 c 1,119,-1
 348 256 l 1,98,99
515 159 m 1,120,121
 515 159 515 159 515 159 c 129,-1,122
 515 159 515 159 515 159 c 1,123,124
 472 163 472 163 433 182 c 128,-1,125
 394 201 394 201 364 232 c 0,126,127
 361 235 361 235 361 238 c 128,-1,128
 361 241 361 241 364 244 c 0,129,130
 366 246 366 246 369.5 246 c 128,-1,131
 373 246 373 246 375 244 c 0,132,133
 403 214 403 214 439.5 196.5 c 128,-1,134
 476 179 476 179 516 175 c 0,135,136
 519 175 519 175 521 172.5 c 128,-1,137
 523 170 523 170 523 166 c 0,138,139
 523 163 523 163 521 161 c 128,-1,140
 519 159 519 159 515 159 c 1,141,-1
 515 159 l 1,120,121
761 453 m 1,142,143
 758 453 758 453 756 455 c 128,-1,144
 754 457 754 457 753 459 c 0,145,146
 742 500 742 500 717 533 c 128,-1,147
 692 566 692 566 657 589 c 0,148,149
 654 590 654 590 653 593.5 c 128,-1,150
 652 597 652 597 654 600 c 0,151,152
 655 603 655 603 658.5 604 c 128,-1,153
 662 605 662 605 665 603 c 0,154,155
 703 579 703 579 730 543.5 c 128,-1,156
 757 508 757 508 769 464 c 0,157,158
 770 461 770 461 768.5 458 c 128,-1,159
 767 455 767 455 764 454 c 0,160,161
 763 454 763 454 762 453.5 c 128,-1,162
 761 453 761 453 761 453 c 1,163,-1
 761 453 l 1,142,143
629 603 m 2,164,165
 629 603 629 603 628 603.5 c 128,-1,166
 627 604 627 604 626 604 c 0,167,168
 620 607 620 607 613 609.5 c 128,-1,169
 606 612 606 612 598 614 c 0,170,171
 595 615 595 615 593.5 618 c 128,-1,172
 592 621 592 621 593 624 c 256,173,174
 594 627 594 627 597 629 c 128,-1,175
 600 631 600 631 603 630 c 0,176,177
 611 627 611 627 618.5 624.5 c 128,-1,178
 626 622 626 622 633 619 c 0,179,180
 636 618 636 618 637 615 c 128,-1,181
 638 612 638 612 637 608 c 0,182,183
 636 606 636 606 634 604.5 c 128,-1,184
 632 603 632 603 629 603 c 2,164,165
600 78 m 1,185,-1
 469 78 l 2,186,187
 460 78 460 78 453 84.5 c 128,-1,188
 446 91 446 91 446 101 c 2,189,-1
 446 134 l 2,190,191
 446 137 446 137 448.5 139.5 c 128,-1,192
 451 142 451 142 454 142 c 256,193,194
 457 142 457 142 459.5 139.5 c 128,-1,195
 462 137 462 137 462 134 c 2,196,-1
 462 101 l 2,197,198
 462 98 462 98 464 96 c 128,-1,199
 466 94 466 94 469 94 c 2,200,-1
 600 94 l 2,201,202
 603 94 603 94 605 96 c 128,-1,203
 607 98 607 98 607 101 c 2,204,-1
 607 132 l 2,205,206
 607 135 607 135 609.5 137.5 c 128,-1,207
 612 140 612 140 615 140 c 0,208,209
 619 140 619 140 621 137.5 c 128,-1,210
 623 135 623 135 623 132 c 2,211,-1
 623 101 l 2,212,213
 623 91 623 91 616.5 84.5 c 128,-1,214
 610 78 610 78 600 78 c 1,215,-1
 600 78 l 1,185,-1
454 655 m 1,216,217
 451 655 451 655 448.5 657.5 c 128,-1,218
 446 660 446 660 446 663 c 2,219,-1
 446 697 l 2,220,221
 446 706 446 706 452.5 713 c 128,-1,222
 459 720 459 720 469 720 c 2,223,-1
 600 720 l 2,224,225
 609 720 609 720 616 713.5 c 128,-1,226
 623 707 623 707 623 697 c 2,227,-1
 623 665 l 2,228,229
 623 662 623 662 621 659.5 c 128,-1,230
 619 657 619 657 615 657 c 0,231,232
 612 657 612 657 609.5 659.5 c 128,-1,233
 607 662 607 662 607 665 c 2,234,-1
 607 697 l 2,235,236
 607 700 607 700 605 702 c 128,-1,237
 603 704 603 704 600 704 c 2,238,-1
 469 704 l 2,239,240
 466 704 466 704 464 702 c 128,-1,241
 462 700 462 700 462 697 c 2,242,-1
 462 663 l 2,243,244
 462 660 462 660 460 657.5 c 128,-1,245
 458 655 458 655 454 655 c 1,246,-1
 454 655 l 1,216,217
759 170 m 1,247,248
 756 170 756 170 753 170.5 c 128,-1,249
 750 171 750 171 748 173 c 2,250,-1
 722 188 l 2,251,252
 719 190 719 190 718 193 c 128,-1,253
 717 196 717 196 719 199 c 256,254,255
 721 202 721 202 724 203 c 128,-1,256
 727 204 727 204 730 202 c 2,257,-1
 756 187 l 2,258,259
 758 185 758 185 761 186 c 128,-1,260
 764 187 764 187 765 189 c 2,261,-1
 831 303 l 2,262,263
 832 305 832 305 831.5 308 c 128,-1,264
 831 311 831 311 828 312 c 2,265,-1
 803 328 l 2,266,267
 800 330 800 330 799 333 c 128,-1,268
 798 336 798 336 800 339 c 256,269,270
 802 342 802 342 805.5 343 c 128,-1,271
 809 344 809 344 811 342 c 2,272,-1
 837 327 l 2,273,274
 845 322 845 322 847.5 312.5 c 128,-1,275
 850 303 850 303 845 295 c 2,276,-1
 779 182 l 2,277,278
 776 176 776 176 770.5 173 c 128,-1,279
 765 170 765 170 759 170 c 1,280,-1
 759 170 l 1,247,248
266 453 m 1,281,282
 265 453 265 453 264 453.5 c 128,-1,283
 263 454 263 454 261 455 c 2,284,-1
 232 471 l 2,285,286
 224 476 224 476 221.5 485.5 c 128,-1,287
 219 495 219 495 224 503 c 2,288,-1
 290 616 l 2,289,290
 295 625 295 625 304 627.5 c 128,-1,291
 313 630 313 630 321 625 c 2,292,-1
 349 608 l 2,293,294
 352 607 352 607 353 603.5 c 128,-1,295
 354 600 354 600 352 597 c 0,296,297
 350 595 350 595 347 594 c 128,-1,298
 344 593 344 593 341 595 c 2,299,-1
 313 611 l 2,300,301
 311 612 311 612 308 611.5 c 128,-1,302
 305 611 305 611 304 608 c 2,303,-1
 238 495 l 2,304,305
 237 493 237 493 237.5 490 c 128,-1,306
 238 487 238 487 241 486 c 2,307,-1
 270 469 l 2,308,309
 273 468 273 468 274 464.5 c 128,-1,310
 275 461 275 461 273 458 c 0,311,312
 272 456 272 456 270 454.5 c 128,-1,313
 268 453 268 453 266 453 c 1,314,-1
 266 453 l 1,281,282
310 170 m 1,315,316
 304 170 304 170 298.5 173 c 128,-1,317
 293 176 293 176 290 181 c 2,318,-1
 224 295 l 2,319,320
 219 303 219 303 221.5 312 c 128,-1,321
 224 321 224 321 232 326 c 2,322,-1
 259 342 l 2,323,324
 262 344 262 344 265 343 c 128,-1,325
 268 342 268 342 270 339 c 0,326,327
 271 336 271 336 270.5 333 c 128,-1,328
 270 330 270 330 267 328 c 2,329,-1
 240 313 l 2,330,331
 238 312 238 312 237 309 c 128,-1,332
 236 306 236 306 238 304 c 2,333,-1
 303 190 l 2,334,335
 305 188 305 188 307.5 187 c 128,-1,336
 310 186 310 186 313 188 c 2,337,-1
 341 204 l 2,338,339
 344 206 344 206 347 205 c 128,-1,340
 350 204 350 204 352 201 c 0,341,342
 353 198 353 198 352.5 195 c 128,-1,343
 352 192 352 192 349 190 c 2,344,-1
 321 174 l 2,345,346
 319 172 319 172 316 171 c 128,-1,347
 313 170 313 170 310 170 c 1,348,-1
 310 170 l 1,315,316
807 456 m 1,349,350
 805 456 805 456 803 457 c 128,-1,351
 801 458 801 458 800 459 c 0,352,353
 798 462 798 462 799 465.5 c 128,-1,354
 800 469 800 469 803 470 c 2,355,-1
 828 485 l 2,356,357
 831 486 831 486 831.5 489 c 128,-1,358
 832 492 832 492 831 494 c 2,359,-1
 765 608 l 2,360,361
 764 610 764 610 761 611 c 128,-1,362
 758 612 758 612 756 611 c 2,363,-1
 729 595 l 2,364,365
 727 593 727 593 723.5 594 c 128,-1,366
 720 595 720 595 719 597 c 0,367,368
 717 600 717 600 717.5 603.5 c 128,-1,369
 718 607 718 607 721 608 c 2,370,-1
 748 624 l 2,371,372
 756 629 756 629 765.5 626.5 c 128,-1,373
 775 624 775 624 779 616 c 2,374,-1
 845 503 l 2,375,376
 850 495 850 495 847.5 486 c 128,-1,377
 845 477 845 477 837 472 c 2,378,-1
 811 457 l 2,379,380
 810 456 810 456 809 456 c 128,-1,381
 808 456 808 456 807 456 c 1,382,-1
 807 456 l 1,349,350
537 343 m 256,383,384
 514 343 514 343 498 359.5 c 128,-1,385
 482 376 482 376 482 398 c 256,386,387
 482 420 482 420 498.5 436.5 c 128,-1,388
 515 453 515 453 537 453 c 0,389,390
 560 453 560 453 576 436.5 c 128,-1,391
 592 420 592 420 592 398 c 256,392,393
 592 376 592 376 576 359.5 c 128,-1,394
 560 343 560 343 537 343 c 256,383,384
537 437 m 256,395,396
 521 437 521 437 509.5 425.5 c 128,-1,397
 498 414 498 414 498 399 c 0,398,399
 498 383 498 383 509.5 371.5 c 128,-1,400
 521 360 521 360 537 360 c 256,401,402
 553 360 553 360 564.5 371.5 c 128,-1,403
 576 383 576 383 576 399 c 0,404,405
 576 414 576 414 564.5 425.5 c 128,-1,406
 553 437 553 437 537 437 c 256,395,396
EndSplineSet
EndChar

StartChar: uniE90A
Encoding: 59658 59658 14
Width: 1024
Flags: W
LayerCount: 2
Fore
SplineSet
854 371 m 1,0,1
 854 434 854 434 831 490 c 0,2,3
 808 545 808 545 767.5 587.5 c 128,-1,4
 727 630 727 630 673 656 c 256,5,6
 619 682 619 682 557 686 c 0,7,8
 553 686 553 686 549 686.5 c 128,-1,9
 545 687 545 687 541 687 c 0,10,11
 538 687 538 687 534.5 686.5 c 128,-1,12
 531 686 531 686 528 686 c 0,13,14
 465 683 465 683 409 658 c 0,15,16
 354 632 354 632 313 589.5 c 128,-1,17
 272 547 272 547 248 491 c 0,18,19
 224 434 224 434 224 371 c 0,20,21
 224 307 224 307 248 251 c 0,22,23
 272 194 272 194 313 151.5 c 128,-1,24
 354 109 354 109 410 84 c 0,25,26
 465 58 465 58 528 56 c 0,27,28
 531 56 531 56 534.5 55.5 c 128,-1,29
 538 55 538 55 541 55 c 0,30,31
 545 55 545 55 548.5 55.5 c 128,-1,32
 552 56 552 56 556 56 c 0,33,34
 618 59 618 59 673 85 c 0,35,36
 727 111 727 111 767.5 153.5 c 128,-1,37
 808 196 808 196 831 252 c 256,38,39
 854 308 854 308 854 371 c 1,40,-1
 854 371 l 1,0,1
837 380 m 1,41,-1
 716 380 l 1,42,43
 716 380 716 380 716 380 c 129,-1,44
 716 380 716 380 716 380 c 1,45,-1
 631 380 l 1,46,-1
 631 362 l 1,47,-1
 698 362 l 1,48,49
 698 304 698 304 686 252 c 0,50,51
 674 201 674 201 653.5 162 c 128,-1,52
 633 123 633 123 606 99 c 0,53,54
 579 76 579 76 548 74 c 1,55,-1
 548 284 l 1,56,-1
 531 284 l 1,57,-1
 531 74 l 1,58,59
 501 78 501 78 475 102 c 0,60,61
 448 126 448 126 428.5 164.5 c 128,-1,62
 409 203 409 203 397 254 c 0,63,64
 386 305 386 305 385 362 c 1,65,-1
 444 362 l 1,66,-1
 444 380 l 1,67,-1
 385 380 l 1,68,69
 386 437 386 437 397 488 c 0,70,71
 409 538 409 538 428.5 577 c 128,-1,72
 448 616 448 616 475 640 c 0,73,74
 501 664 501 664 531 668 c 1,75,-1
 531 473 l 1,76,-1
 548 473 l 1,77,-1
 548 668 l 1,78,79
 594 664 594 664 632 613.5 c 128,-1,80
 670 563 670 563 687 482 c 0,81,82
 688 479 688 479 691 476.5 c 128,-1,83
 694 474 694 474 698 475 c 256,84,85
 702 476 702 476 704 479 c 128,-1,86
 706 482 706 482 705 486 c 0,87,88
 692 546 692 546 668 590.5 c 128,-1,89
 644 635 644 635 613 660 c 1,90,91
 660 648 660 648 701 621 c 0,92,93
 741 595 741 595 771 558 c 128,-1,94
 801 521 801 521 818 476 c 0,95,96
 836 430 836 430 837 380 c 1,97,-1
 837 380 l 1,41,-1
472 661 m 1,98,99
 449 643 449 643 430 615 c 0,100,101
 411 586 411 586 397 549.5 c 128,-1,102
 383 513 383 513 375 470 c 256,103,104
 367 427 367 427 366 380 c 1,105,-1
 241 380 l 1,106,107
 243 431 243 431 261 477 c 0,108,109
 279 524 279 524 310 561 c 128,-1,110
 341 598 341 598 382 624 c 0,111,112
 424 650 424 650 472 661 c 1,113,-1
 472 661 l 1,98,99
241 362 m 1,114,-1
 366 362 l 1,115,116
 366 315 366 315 374 272 c 0,117,118
 383 228 383 228 397 191.5 c 128,-1,119
 411 155 411 155 430 127 c 0,120,121
 449 98 449 98 472 81 c 1,122,123
 423 92 423 92 382 118 c 256,124,125
 341 144 341 144 310 181 c 128,-1,126
 279 218 279 218 261 265 c 0,127,128
 243 311 243 311 241 362 c 1,114,-1
612 82 m 1,129,130
 635 100 635 100 654 128 c 0,131,132
 672 157 672 157 686 193 c 128,-1,133
 700 229 700 229 708 272 c 256,134,135
 716 315 716 315 717 362 c 1,136,-1
 837 362 l 1,137,138
 836 311 836 311 818 266 c 0,139,140
 801 220 801 220 771 183 c 128,-1,141
 741 146 741 146 700 120 c 256,142,143
 659 94 659 94 612 82 c 1,129,130
705 413 m 1,144,145
 701 413 701 413 698.5 415.5 c 128,-1,146
 696 418 696 418 696 421 c 0,147,148
 695 426 695 426 694.5 431.5 c 128,-1,149
 694 437 694 437 694 441 c 0,150,151
 693 445 693 445 695.5 448 c 128,-1,152
 698 451 698 451 702 452 c 0,153,154
 705 452 705 452 708.5 450 c 128,-1,155
 712 448 712 448 712 444 c 0,156,157
 713 438 713 438 713.5 433 c 128,-1,158
 714 428 714 428 714 422 c 0,159,160
 715 419 715 419 712.5 416 c 128,-1,161
 710 413 710 413 705 412 c 1,162,163
 705 413 705 413 705 413 c 129,-1,164
 705 413 705 413 705 413 c 1,144,145
539 308 m 256,165,166
 513 308 513 308 495 326.5 c 128,-1,167
 477 345 477 345 477 371 c 256,168,169
 477 397 477 397 495 415 c 128,-1,170
 513 433 513 433 539 433 c 256,171,172
 565 433 565 433 583.5 415 c 128,-1,173
 602 397 602 397 602 371 c 256,174,175
 602 345 602 345 583.5 326.5 c 128,-1,176
 565 308 565 308 539 308 c 256,165,166
539 417 m 256,177,178
 520 417 520 417 506.5 403.5 c 128,-1,179
 493 390 493 390 493 371 c 256,180,181
 493 352 493 352 506.5 338.5 c 128,-1,182
 520 325 520 325 539 325 c 256,183,184
 558 325 558 325 571.5 338.5 c 128,-1,185
 585 352 585 352 585 371 c 256,186,187
 585 390 585 390 571.5 403.5 c 128,-1,188
 558 417 558 417 539 417 c 256,177,178
546 371 m 256,189,190
 546 368 546 368 544 366 c 128,-1,191
 542 364 542 364 539 364 c 256,192,193
 536 364 536 364 534.5 366 c 128,-1,194
 533 368 533 368 533 371 c 256,195,196
 533 374 533 374 534.5 375.5 c 128,-1,197
 536 377 536 377 539 377 c 256,198,199
 542 377 542 377 544 375.5 c 128,-1,200
 546 374 546 374 546 371 c 256,189,190
EndSplineSet
EndChar

StartChar: uniE90B
Encoding: 59659 59659 15
Width: 1024
Flags: W
LayerCount: 2
Fore
SplineSet
760 421 m 1,0,-1
 654 421 l 2,1,2
 636 421 636 421 623.5 433.5 c 128,-1,3
 611 446 611 446 611 464 c 2,4,-1
 611 508 l 2,5,6
 611 517 611 517 604 524 c 128,-1,7
 597 531 597 531 588 531 c 2,8,-1
 450 531 l 2,9,10
 447 531 447 531 444.5 533.5 c 128,-1,11
 442 536 442 536 442 539 c 256,12,13
 442 542 442 542 444.5 544.5 c 128,-1,14
 447 547 447 547 450 547 c 2,15,-1
 588 547 l 2,16,17
 604 547 604 547 615.5 535.5 c 128,-1,18
 627 524 627 524 627 508 c 2,19,-1
 627 464 l 2,20,21
 627 453 627 453 635 445 c 128,-1,22
 643 437 643 437 654 437 c 2,23,-1
 760 437 l 2,24,25
 771 437 771 437 779 445 c 128,-1,26
 787 453 787 453 787 464 c 2,27,-1
 787 546 l 1,28,29
 777 570 777 570 751 591 c 0,30,31
 725 611 725 611 687.5 625.5 c 128,-1,32
 650 640 650 640 603 648 c 0,33,34
 555 656 555 656 501 656 c 0,35,36
 449 656 449 656 402 648 c 0,37,38
 355 639 355 639 317.5 624.5 c 128,-1,39
 280 610 280 610 253 590 c 256,40,41
 226 570 226 570 214 545 c 1,42,-1
 214 463 l 2,43,44
 214 452 214 452 221.5 444.5 c 128,-1,45
 229 437 229 437 240 437 c 2,46,-1
 348 437 l 2,47,48
 359 437 359 437 366.5 445 c 128,-1,49
 374 453 374 453 374 463 c 2,50,-1
 374 522 l 2,51,52
 374 526 374 526 376.5 528.5 c 128,-1,53
 379 531 379 531 382 531 c 256,54,55
 385 531 385 531 387.5 528.5 c 128,-1,56
 390 526 390 526 390 522 c 2,57,-1
 390 464 l 2,58,59
 390 446 390 446 377.5 433.5 c 128,-1,60
 365 421 365 421 348 421 c 2,61,-1
 240 421 l 2,62,63
 223 421 223 421 210.5 433.5 c 128,-1,64
 198 446 198 446 198 464 c 2,65,-1
 198 547 l 2,66,67
 198 548 198 548 198 549 c 128,-1,68
 198 550 198 550 198 551 c 0,69,70
 211 578 211 578 239 600 c 256,71,72
 267 622 267 622 307 638 c 128,-1,73
 347 654 347 654 396 663 c 0,74,75
 446 672 446 672 501 672 c 0,76,77
 559 672 559 672 609 663 c 0,78,79
 660 655 660 655 699.5 639 c 128,-1,80
 739 623 739 623 765 600 c 0,81,82
 792 578 792 578 803 550 c 0,83,84
 804 549 804 549 804 548.5 c 128,-1,85
 804 548 804 548 804 547 c 2,86,-1
 804 463 l 2,87,88
 803 446 803 446 790.5 433.5 c 128,-1,89
 778 421 778 421 760 421 c 1,90,-1
 760 421 l 1,0,-1
389 321 m 2,91,-1
 342 321 l 2,92,93
 339 321 339 321 336.5 323.5 c 128,-1,94
 334 326 334 326 334 330 c 0,95,96
 334 333 334 333 336.5 335.5 c 128,-1,97
 339 338 339 338 342 338 c 2,98,-1
 389 338 l 2,99,100
 392 338 392 338 394.5 335.5 c 128,-1,101
 397 333 397 333 397 330 c 0,102,103
 397 326 397 326 394.5 323.5 c 128,-1,104
 392 321 392 321 389 321 c 2,91,-1
389 240 m 2,105,-1
 342 240 l 2,106,107
 339 240 339 240 336.5 242.5 c 128,-1,108
 334 245 334 245 334 248 c 256,109,110
 334 251 334 251 336.5 253.5 c 128,-1,111
 339 256 339 256 342 256 c 2,112,-1
 389 256 l 2,113,114
 392 256 392 256 394.5 253.5 c 128,-1,115
 397 251 397 251 397 248 c 256,116,117
 397 245 397 245 394.5 242.5 c 128,-1,118
 392 240 392 240 389 240 c 2,105,-1
389 158 m 2,119,-1
 342 158 l 2,120,121
 339 158 339 158 336.5 160.5 c 128,-1,122
 334 163 334 163 334 166 c 0,123,124
 334 170 334 170 336.5 172.5 c 128,-1,125
 339 175 339 175 342 175 c 2,126,-1
 389 175 l 2,127,128
 392 175 392 175 394.5 172.5 c 128,-1,129
 397 170 397 170 397 166 c 0,130,131
 397 163 397 163 394.5 160.5 c 128,-1,132
 392 158 392 158 389 158 c 2,119,-1
661 321 m 2,133,-1
 614 321 l 2,134,135
 610 321 610 321 607.5 323.5 c 128,-1,136
 605 326 605 326 605 330 c 0,137,138
 605 333 605 333 607.5 335.5 c 128,-1,139
 610 338 610 338 614 338 c 2,140,-1
 661 338 l 2,141,142
 664 338 664 338 666.5 335.5 c 128,-1,143
 669 333 669 333 669 330 c 0,144,145
 669 326 669 326 666.5 323.5 c 128,-1,146
 664 321 664 321 661 321 c 2,133,-1
661 240 m 2,147,-1
 614 240 l 2,148,149
 610 240 610 240 607.5 242.5 c 128,-1,150
 605 245 605 245 605 248 c 256,151,152
 605 251 605 251 607.5 253.5 c 128,-1,153
 610 256 610 256 614 256 c 2,154,-1
 661 256 l 2,155,156
 664 256 664 256 666.5 253.5 c 128,-1,157
 669 251 669 251 669 248 c 256,158,159
 669 245 669 245 666.5 242.5 c 128,-1,160
 664 240 664 240 661 240 c 2,147,-1
661 158 m 2,161,-1
 614 158 l 2,162,163
 610 158 610 158 607.5 160.5 c 128,-1,164
 605 163 605 163 605 166 c 0,165,166
 605 170 605 170 607.5 172.5 c 128,-1,167
 610 175 610 175 614 175 c 2,168,-1
 661 175 l 2,169,170
 664 175 664 175 666.5 172.5 c 128,-1,171
 669 170 669 170 669 166 c 0,172,173
 669 163 669 163 666.5 160.5 c 128,-1,174
 664 158 664 158 661 158 c 2,161,-1
525 158 m 2,175,-1
 478 158 l 2,176,177
 474 158 474 158 472 160.5 c 128,-1,178
 470 163 470 163 470 166 c 0,179,180
 470 170 470 170 472 172.5 c 128,-1,181
 474 175 474 175 478 175 c 2,182,-1
 525 175 l 2,183,184
 528 175 528 175 530.5 172.5 c 128,-1,185
 533 170 533 170 533 166 c 0,186,187
 533 163 533 163 530.5 160.5 c 128,-1,188
 528 158 528 158 525 158 c 2,175,-1
505 293 m 1,189,190
 480 293 480 293 462 310.5 c 128,-1,191
 444 328 444 328 444 353 c 0,192,193
 444 379 444 379 462 396.5 c 128,-1,194
 480 414 480 414 505 414 c 256,195,196
 530 414 530 414 548 396.5 c 128,-1,197
 566 379 566 379 566 353 c 0,198,199
 566 329 566 329 548 311 c 128,-1,200
 530 293 530 293 505 293 c 1,201,-1
 505 293 l 1,189,190
505 398 m 256,202,203
 487 398 487 398 473.5 385 c 128,-1,204
 460 372 460 372 460 353 c 0,205,206
 460 335 460 335 473.5 322 c 128,-1,207
 487 309 487 309 505 309 c 256,208,209
 523 309 523 309 536.5 322 c 128,-1,210
 550 335 550 335 550 353 c 0,211,212
 550 372 550 372 536.5 385 c 128,-1,213
 523 398 523 398 505 398 c 256,202,203
EndSplineSet
EndChar

StartChar: uniE90C
Encoding: 59660 59660 16
Width: 1024
Flags: W
LayerCount: 2
Fore
SplineSet
996 219 m 1,0,-1
 827 375 l 2,1,2
 821 380 821 380 814 377 c 128,-1,3
 807 374 807 374 807 366 c 2,4,-1
 807 257 l 1,5,6
 778 255 778 255 738 257 c 0,7,8
 699 258 699 258 657 265 c 128,-1,9
 615 272 615 272 576 287 c 0,10,11
 537 301 537 301 509 326 c 0,12,13
 498 335 498 335 489.5 346.5 c 128,-1,14
 481 358 481 358 475 370 c 1,15,16
 467 338 467 338 453.5 309.5 c 128,-1,17
 440 281 440 281 420 256 c 1,18,19
 424 252 424 252 427.5 248.5 c 128,-1,20
 431 245 431 245 435 241 c 0,21,22
 470 210 470 210 514 191 c 256,23,24
 558 172 558 172 603 161.5 c 128,-1,25
 648 151 648 151 692 147 c 0,26,27
 735 144 735 144 770 144 c 0,28,29
 780 144 780 144 789 144 c 128,-1,30
 798 144 798 144 807 144 c 1,31,-1
 807 41 l 2,32,33
 807 33 807 33 814 30 c 128,-1,34
 821 27 821 27 827 32 c 2,35,-1
 996 201 l 2,36,37
 1000 205 1000 205 1000 210.5 c 128,-1,38
 1000 216 1000 216 996 219 c 1,39,-1
 996 219 l 1,0,-1
367 664 m 1,40,41
 326 700 326 700 275 720 c 0,42,43
 225 739 225 739 177.5 747 c 128,-1,44
 130 755 130 755 92 755 c 256,45,46
 54 755 54 755 36 754 c 1,47,-1
 36 644 l 1,48,-1
 36 641 l 2,49,50
 37 641 37 641 65 643 c 0,51,52
 92 644 92 644 132 640 c 128,-1,53
 172 636 172 636 216 622 c 0,54,55
 259 609 259 609 292 580 c 0,56,57
 304 569 304 569 313.5 556.5 c 128,-1,58
 323 544 323 544 330 529 c 1,59,60
 338 562 338 562 352 590.5 c 128,-1,61
 366 619 366 619 386 644 c 1,62,63
 382 649 382 649 377 654 c 128,-1,64
 372 659 372 659 367 664 c 1,65,-1
 367 664 l 1,40,41
996 708 m 2,66,-1
 827 863 l 2,67,68
 821 869 821 869 814 865.5 c 128,-1,69
 807 862 807 862 807 854 c 2,70,-1
 807 754 l 1,71,72
 776 755 776 755 730 754 c 0,73,74
 683 753 683 753 631 743.5 c 128,-1,75
 579 734 579 734 528 713 c 0,76,77
 476 693 476 693 435 657 c 0,78,79
 392 619 392 619 369.5 568 c 128,-1,80
 347 517 347 517 347 455 c 0,81,82
 346 411 346 411 333 377.5 c 128,-1,83
 320 344 320 344 292 320 c 0,84,85
 259 290 259 290 216 277 c 0,86,87
 172 264 172 264 132 259.5 c 128,-1,88
 92 255 92 255 65 257 c 0,89,90
 37 258 37 258 36 258 c 2,91,-1
 36 255 l 1,92,-1
 36 146 l 1,93,94
 43 145 43 145 52.5 144.5 c 128,-1,95
 62 144 62 144 75 144 c 0,96,97
 102 144 102 144 138 148 c 0,98,99
 174 151 174 151 214 160.5 c 128,-1,100
 254 170 254 170 293 188 c 0,101,102
 333 206 333 206 366 236 c 0,103,104
 412 276 412 276 435 331 c 128,-1,105
 458 386 458 386 459 454 c 0,106,107
 459 492 459 492 471.5 521.5 c 128,-1,108
 484 551 484 551 509 573 c 0,109,110
 537 598 537 598 576 612 c 0,111,112
 615 627 615 627 657 634 c 128,-1,113
 699 641 699 641 738 643 c 0,114,115
 778 644 778 644 807 642 c 1,116,-1
 807 530 l 2,117,118
 807 522 807 522 814.5 519 c 128,-1,119
 822 516 822 516 828 521 c 2,120,-1
 996 690 l 2,121,122
 1000 694 1000 694 1000 699 c 128,-1,123
 1000 704 1000 704 996 708 c 2,66,-1
EndSplineSet
EndChar

StartChar: uniE90D
Encoding: 59661 59661 17
Width: 565
Flags: W
LayerCount: 2
Fore
SplineSet
60 -34 m 1,0,1
 53 -34 53 -34 48.5 -31.5 c 128,-1,2
 44 -29 44 -29 39 -25 c 0,3,4
 30 -16 30 -16 30 -4 c 128,-1,5
 30 8 30 8 39 17 c 2,6,-1
 462 450 l 1,7,-1
 39 888 l 2,8,9
 30 897 30 897 30 909 c 128,-1,10
 30 921 30 921 39 930 c 256,11,12
 48 939 48 939 60 939 c 128,-1,13
 72 939 72 939 81 930 c 2,14,-1
 526 471 l 2,15,16
 535 462 535 462 535 449.5 c 128,-1,17
 535 437 535 437 526 428 c 2,18,-1
 81 -25 l 2,19,20
 77 -29 77 -29 71 -31.5 c 128,-1,21
 65 -34 65 -34 60 -34 c 1,22,-1
 60 -34 l 1,0,1
EndSplineSet
EndChar

StartChar: uniE90E
Encoding: 59662 59662 18
Width: 1024
Flags: W
LayerCount: 2
Fore
SplineSet
996 219 m 1,0,-1
 827 375 l 2,1,2
 821 380 821 380 814 377 c 128,-1,3
 807 374 807 374 807 366 c 2,4,-1
 807 257 l 1,5,6
 778 255 778 255 738 257 c 0,7,8
 699 258 699 258 657 265 c 128,-1,9
 615 272 615 272 576 287 c 0,10,11
 537 301 537 301 509 326 c 0,12,13
 498 335 498 335 489.5 346.5 c 128,-1,14
 481 358 481 358 475 370 c 1,15,16
 467 338 467 338 453.5 309.5 c 128,-1,17
 440 281 440 281 420 256 c 1,18,19
 424 252 424 252 427.5 248.5 c 128,-1,20
 431 245 431 245 435 241 c 0,21,22
 470 210 470 210 514 191 c 256,23,24
 558 172 558 172 603 161.5 c 128,-1,25
 648 151 648 151 692 147 c 0,26,27
 735 144 735 144 770 144 c 0,28,29
 780 144 780 144 789 144 c 128,-1,30
 798 144 798 144 807 144 c 1,31,-1
 807 41 l 2,32,33
 807 33 807 33 814 30 c 128,-1,34
 821 27 821 27 827 32 c 2,35,-1
 996 201 l 2,36,37
 1000 205 1000 205 1000 210.5 c 128,-1,38
 1000 216 1000 216 996 219 c 1,39,-1
 996 219 l 1,0,-1
367 664 m 1,40,41
 326 700 326 700 275 720 c 0,42,43
 225 739 225 739 177.5 747 c 128,-1,44
 130 755 130 755 92 755 c 256,45,46
 54 755 54 755 36 754 c 1,47,-1
 36 644 l 1,48,-1
 36 641 l 2,49,50
 37 641 37 641 65 643 c 0,51,52
 92 644 92 644 132 640 c 128,-1,53
 172 636 172 636 216 622 c 0,54,55
 259 609 259 609 292 580 c 0,56,57
 304 569 304 569 313.5 556.5 c 128,-1,58
 323 544 323 544 330 529 c 1,59,60
 338 562 338 562 352 590.5 c 128,-1,61
 366 619 366 619 386 644 c 1,62,63
 382 649 382 649 377 654 c 128,-1,64
 372 659 372 659 367 664 c 1,65,-1
 367 664 l 1,40,41
996 708 m 2,66,-1
 827 863 l 2,67,68
 821 869 821 869 814 865.5 c 128,-1,69
 807 862 807 862 807 854 c 2,70,-1
 807 754 l 1,71,72
 776 755 776 755 730 754 c 0,73,74
 683 753 683 753 631 743.5 c 128,-1,75
 579 734 579 734 528 713 c 0,76,77
 476 693 476 693 435 657 c 0,78,79
 392 619 392 619 369.5 568 c 128,-1,80
 347 517 347 517 347 455 c 0,81,82
 346 411 346 411 333 377.5 c 128,-1,83
 320 344 320 344 292 320 c 0,84,85
 259 290 259 290 216 277 c 0,86,87
 172 264 172 264 132 259.5 c 128,-1,88
 92 255 92 255 65 257 c 0,89,90
 37 258 37 258 36 258 c 2,91,-1
 36 255 l 1,92,-1
 36 146 l 1,93,94
 43 145 43 145 52.5 144.5 c 128,-1,95
 62 144 62 144 75 144 c 0,96,97
 102 144 102 144 138 148 c 0,98,99
 174 151 174 151 214 160.5 c 128,-1,100
 254 170 254 170 293 188 c 0,101,102
 333 206 333 206 366 236 c 0,103,104
 412 276 412 276 435 331 c 128,-1,105
 458 386 458 386 459 454 c 0,106,107
 459 492 459 492 471.5 521.5 c 128,-1,108
 484 551 484 551 509 573 c 0,109,110
 537 598 537 598 576 612 c 0,111,112
 615 627 615 627 657 634 c 128,-1,113
 699 641 699 641 738 643 c 0,114,115
 778 644 778 644 807 642 c 1,116,-1
 807 530 l 2,117,118
 807 522 807 522 814.5 519 c 128,-1,119
 822 516 822 516 828 521 c 2,120,-1
 996 690 l 2,121,122
 1000 694 1000 694 1000 699 c 128,-1,123
 1000 704 1000 704 996 708 c 2,66,-1
EndSplineSet
EndChar

StartChar: uniE90F
Encoding: 59663 59663 19
Width: 1002
Flags: W
LayerCount: 2
Fore
SplineSet
710 722 m 0,0,1
 710 678 710 678 693 640 c 0,2,3
 677 602 677 602 648.5 574 c 128,-1,4
 620 546 620 546 582 529 c 0,5,6
 544 513 544 513 501 513 c 256,7,8
 458 513 458 513 420 529 c 0,9,10
 382 546 382 546 353.5 574 c 128,-1,11
 325 602 325 602 309 640 c 256,12,13
 293 678 293 678 293 722 c 0,14,15
 293 765 293 765 309 803 c 256,16,17
 325 841 325 841 353.5 869 c 128,-1,18
 382 897 382 897 420 914 c 0,19,20
 458 930 458 930 501 930 c 256,21,22
 544 930 544 930 582 914 c 0,23,24
 620 897 620 897 648.5 869 c 128,-1,25
 677 841 677 841 693 803 c 0,26,27
 710 765 710 765 710 722 c 0,0,1
855 -34 m 2,28,29
 870 -34 870 -34 881.5 -23.5 c 128,-1,30
 893 -13 893 -13 894 3 c 0,31,32
 894 7 894 7 894 12 c 128,-1,33
 894 17 894 17 894 21 c 0,34,35
 894 102 894 102 863 174 c 0,36,37
 832 245 832 245 778.5 298.5 c 128,-1,38
 725 352 725 352 654 383 c 0,39,40
 582 414 582 414 501 414 c 256,41,42
 420 414 420 414 348 383 c 0,43,44
 277 352 277 352 223.5 298.5 c 128,-1,45
 170 245 170 245 139 174 c 0,46,47
 108 102 108 102 108 21 c 0,48,49
 108 17 108 17 108 12 c 128,-1,50
 108 7 108 7 108 3 c 0,51,52
 109 -13 109 -13 120.5 -23.5 c 128,-1,53
 132 -34 132 -34 147 -34 c 2,54,-1
 855 -34 l 2,28,29
EndSplineSet
EndChar

StartChar: uniE910
Encoding: 59664 59664 20
Width: 1002
Flags: W
LayerCount: 2
Fore
SplineSet
794 4 m 1,0,1
 792 4 792 4 789.5 4 c 128,-1,2
 787 4 787 4 785 4 c 2,3,-1
 200 4 l 2,4,5
 150 6 150 6 109 32 c 128,-1,6
 68 58 68 58 45 101 c 0,7,8
 21 144 21 144 22.5 192.5 c 128,-1,9
 24 241 24 241 49 283 c 2,10,-1
 346 804 l 2,11,12
 372 847 372 847 414.5 871 c 128,-1,13
 457 895 457 895 507 893 c 0,14,15
 558 892 558 892 599.5 867 c 128,-1,16
 641 842 641 842 665 798 c 2,17,-1
 954 277 l 2,18,19
 978 233 978 233 977 183.5 c 128,-1,20
 976 134 976 134 949 91 c 0,21,22
 925 49 925 49 883.5 26.5 c 128,-1,23
 842 4 842 4 794 4 c 1,24,-1
 794 4 l 1,0,1
505 863 m 1,25,26
 464 863 464 863 429.5 843.5 c 128,-1,27
 395 824 395 824 374 788 c 2,28,-1
 76 267 l 2,29,30
 55 232 55 232 54 191.5 c 128,-1,31
 53 151 53 151 72 115 c 0,32,33
 92 79 92 79 126 57.5 c 128,-1,34
 160 36 160 36 201 34 c 2,35,-1
 786 34 l 2,36,37
 829 32 829 32 865.5 51.5 c 128,-1,38
 902 71 902 71 925 107 c 0,39,40
 947 143 947 143 948 184.5 c 128,-1,41
 949 226 949 226 929 263 c 2,42,-1
 640 783 l 2,43,44
 620 819 620 819 585 840 c 128,-1,45
 550 861 550 861 508 862 c 0,46,47
 508 863 508 863 507 863 c 128,-1,48
 506 863 506 863 505 863 c 1,49,-1
 505 863 l 1,25,26
523 180 m 0,50,51
 500 180 500 180 484 196 c 128,-1,52
 468 212 468 212 468 235 c 2,53,-1
 468 472 l 2,54,55
 468 495 468 495 484 510.5 c 128,-1,56
 500 526 500 526 523 526 c 0,57,58
 545 526 545 526 561 510.5 c 128,-1,59
 577 495 577 495 577 472 c 2,60,-1
 577 235 l 2,61,62
 577 212 577 212 561 196 c 128,-1,63
 545 180 545 180 523 180 c 0,50,51
523 496 m 1,64,65
 513 496 513 496 505.5 489 c 128,-1,66
 498 482 498 482 498 472 c 2,67,-1
 498 235 l 2,68,69
 498 225 498 225 505.5 217.5 c 128,-1,70
 513 210 513 210 523 210 c 256,71,72
 533 210 533 210 540 217.5 c 128,-1,73
 547 225 547 225 547 235 c 2,74,-1
 547 472 l 2,75,76
 547 482 547 482 540 489 c 128,-1,77
 533 496 533 496 523 496 c 1,78,-1
 523 496 l 1,64,65
523 556 m 0,79,80
 493 556 493 556 472.5 577 c 128,-1,81
 452 598 452 598 452 627 c 256,82,83
 452 656 452 656 473 677 c 128,-1,84
 494 698 494 698 523 698 c 256,85,86
 552 698 552 698 573 677 c 128,-1,87
 594 656 594 656 594 627 c 256,88,89
 594 598 594 598 573 577 c 128,-1,90
 552 556 552 556 523 556 c 0,79,80
523 668 m 0,91,92
 506 668 506 668 494 656 c 128,-1,93
 482 644 482 644 482 628 c 0,94,95
 482 611 482 611 494 599 c 128,-1,96
 506 587 506 587 523 587 c 0,97,98
 539 587 539 587 551 599 c 128,-1,99
 563 611 563 611 563 628 c 0,100,101
 563 644 563 644 551 656 c 128,-1,102
 539 668 539 668 523 668 c 0,91,92
215 328 m 0,103,104
 212 328 212 328 210.5 328.5 c 128,-1,105
 209 329 209 329 207 330 c 0,106,107
 201 333 201 333 199.5 339 c 128,-1,108
 198 345 198 345 202 351 c 2,109,-1
 334 579 l 2,110,111
 337 584 337 584 343 586 c 128,-1,112
 349 588 349 588 356 584 c 0,113,114
 361 581 361 581 362.5 575 c 128,-1,115
 364 569 364 569 361 563 c 2,116,-1
 228 336 l 2,117,118
 226 332 226 332 222.5 330 c 128,-1,119
 219 328 219 328 215 328 c 0,103,104
812 102 m 1,120,-1
 661 102 l 2,121,122
 655 102 655 102 650.5 106.5 c 128,-1,123
 646 111 646 111 646 117 c 256,124,125
 646 123 646 123 650.5 127.5 c 128,-1,126
 655 132 655 132 661 132 c 2,127,-1
 812 132 l 2,128,129
 818 132 818 132 823 127.5 c 128,-1,130
 828 123 828 123 828 117 c 256,131,132
 828 111 828 111 823 106.5 c 128,-1,133
 818 102 818 102 812 102 c 1,134,-1
 812 102 l 1,120,-1
877 121 m 0,135,136
 877 114 877 114 871.5 108.5 c 128,-1,137
 866 103 866 103 859 103 c 0,138,139
 851 103 851 103 846 108.5 c 128,-1,140
 841 114 841 114 841 121 c 0,141,142
 841 129 841 129 846 134.5 c 128,-1,143
 851 140 851 140 859 140 c 0,144,145
 866 140 866 140 871.5 134.5 c 128,-1,146
 877 129 877 129 877 121 c 0,135,136
204 284 m 0,147,148
 204 277 204 277 198.5 271.5 c 128,-1,149
 193 266 193 266 185 266 c 0,150,151
 178 266 178 266 172.5 271.5 c 128,-1,152
 167 277 167 277 167 284 c 0,153,154
 167 292 167 292 172.5 297.5 c 128,-1,155
 178 303 178 303 185 303 c 0,156,157
 193 303 193 303 198.5 297.5 c 128,-1,158
 204 292 204 292 204 284 c 0,147,148
EndSplineSet
EndChar

StartChar: uniE911
Encoding: 59665 59665 21
Width: 1024
Flags: W
LayerCount: 2
Fore
SplineSet
1002 603 m 1,0,-1
 834 787 l 2,1,2
 828 795 828 795 817.5 795 c 128,-1,3
 807 795 807 795 801 787 c 2,4,-1
 619 603 l 2,5,6
 609 592 609 592 615.5 578 c 128,-1,7
 622 564 622 564 636 564 c 2,8,-1
 700 564 l 1,9,-1
 700 126 l 2,10,11
 700 115 700 115 707 109 c 128,-1,12
 714 103 714 103 723 103 c 2,13,-1
 893 103 l 2,14,15
 903 103 903 103 909 110 c 128,-1,16
 915 117 915 117 915 126 c 2,17,-1
 915 564 l 1,18,-1
 979 564 l 2,19,20
 998 564 998 564 1005 578 c 128,-1,21
 1012 592 1012 592 1002 603 c 1,22,-1
 1002 603 l 1,0,-1
EndSplineSet
EndChar

StartChar: uniE912
Encoding: 59666 59666 22
Width: 1024
Flags: W
LayerCount: 2
Fore
SplineSet
402 293 m 1,0,-1
 234 109 l 2,1,2
 228 101 228 101 217.5 101 c 128,-1,3
 207 101 207 101 201 109 c 2,4,-1
 20 293 l 2,5,6
 9 304 9 304 15.5 318 c 128,-1,7
 22 332 22 332 36 332 c 2,8,-1
 100 332 l 1,9,-1
 100 770 l 2,10,11
 100 781 100 781 107 787 c 128,-1,12
 114 793 114 793 123 793 c 2,13,-1
 293 793 l 2,14,15
 303 793 303 793 309 786 c 128,-1,16
 315 779 315 779 315 770 c 2,17,-1
 315 332 l 1,18,-1
 379 332 l 2,19,20
 400 332 400 332 406 318 c 128,-1,21
 412 304 412 304 402 293 c 1,22,-1
 402 293 l 1,0,-1
EndSplineSet
EndChar

StartChar: uniE913
Encoding: 59667 59667 23
Width: 1024
Flags: W
LayerCount: 2
Fore
SplineSet
512 875 m 1,0,1
 424 875 424 875 346 841 c 0,2,3
 268 808 268 808 210 750 c 128,-1,4
 152 692 152 692 119 614 c 0,5,6
 85 536 85 536 85 448 c 256,7,8
 85 360 85 360 119 282 c 0,9,10
 152 204 152 204 210 146 c 128,-1,11
 268 88 268 88 346 55 c 0,12,13
 424 21 424 21 512 21 c 256,14,15
 600 21 600 21 678 55 c 0,16,17
 756 88 756 88 814 146 c 128,-1,18
 872 204 872 204 905 282 c 0,19,20
 939 360 939 360 939 448 c 256,21,22
 939 536 939 536 905 614 c 0,23,24
 872 692 872 692 814 750 c 128,-1,25
 756 808 756 808 678 841 c 0,26,27
 600 875 600 875 512 875 c 1,28,-1
 512 875 l 1,0,1
295 538 m 256,29,30
 295 565 295 565 314 584 c 128,-1,31
 333 603 333 603 360 603 c 256,32,33
 387 603 387 603 406.5 584 c 128,-1,34
 426 565 426 565 426 538 c 256,35,36
 426 511 426 511 406.5 492 c 128,-1,37
 387 473 387 473 360 473 c 256,38,39
 333 473 333 473 314 492 c 128,-1,40
 295 511 295 511 295 538 c 256,29,30
636 243 m 1,41,-1
 387 243 l 1,42,-1
 387 281 l 1,43,-1
 636 281 l 1,44,-1
 636 243 l 1,41,-1
641 473 m 256,45,46
 614 473 614 473 595 492 c 128,-1,47
 576 511 576 511 576 538 c 256,48,49
 576 565 576 565 595 584 c 128,-1,50
 614 603 614 603 641 603 c 256,51,52
 668 603 668 603 687 584 c 128,-1,53
 706 565 706 565 706 538 c 256,54,55
 706 511 706 511 687 492 c 128,-1,56
 668 473 668 473 641 473 c 256,45,46
EndSplineSet
EndChar

StartChar: uniE914
Encoding: 59668 59668 24
Width: 1002
Flags: W
LayerCount: 2
Fore
SplineSet
837 272 m 1,0,-1
 837 519 l 2,1,2
 837 576 837 576 819 627 c 0,3,4
 802 678 802 678 770.5 720.5 c 128,-1,5
 739 763 739 763 695 794 c 256,6,7
 651 825 651 825 598 840 c 0,8,9
 598 844 598 844 598.5 846.5 c 128,-1,10
 599 849 599 849 599 852 c 0,11,12
 599 890 599 890 572 916.5 c 128,-1,13
 545 943 545 943 507 943 c 256,14,15
 469 943 469 943 442.5 916.5 c 128,-1,16
 416 890 416 890 416 852 c 0,17,18
 416 849 416 849 416.5 847 c 128,-1,19
 417 845 417 845 417 843 c 0,20,21
 364 828 364 828 318 797 c 0,22,23
 273 767 273 767 240 724 c 128,-1,24
 207 681 207 681 188 629 c 256,25,26
 169 577 169 577 169 518 c 2,27,-1
 169 272 l 1,28,29
 102 269 102 269 55 220.5 c 128,-1,30
 8 172 8 172 8 104 c 2,31,-1
 8 91 l 2,32,33
 8 85 8 85 12.5 80.5 c 128,-1,34
 17 76 17 76 23 76 c 2,35,-1
 345 76 l 1,36,37
 360 22 360 22 404.5 -13 c 128,-1,38
 449 -48 449 -48 506 -48 c 256,39,40
 563 -48 563 -48 608 -13.5 c 128,-1,41
 653 21 653 21 667 76 c 1,42,-1
 978 76 l 2,43,44
 985 76 985 76 989.5 80.5 c 128,-1,45
 994 85 994 85 994 91 c 2,46,-1
 994 104 l 2,47,48
 994 171 994 171 948 219.5 c 128,-1,49
 902 268 902 268 837 272 c 1,50,-1
 837 272 l 1,0,-1
506 913 m 1,51,52
 531 913 531 913 549 895.5 c 128,-1,53
 567 878 567 878 567 853 c 0,54,55
 567 852 567 852 567 850.5 c 128,-1,56
 567 849 567 849 567 849 c 1,57,58
 551 852 551 852 534.5 853.5 c 128,-1,59
 518 855 518 855 502 855 c 0,60,61
 488 855 488 855 473.5 853.5 c 128,-1,62
 459 852 459 852 446 850 c 1,63,64
 446 850 446 850 446 851 c 128,-1,65
 446 852 446 852 446 853 c 0,66,67
 446 878 446 878 463.5 895.5 c 128,-1,68
 481 913 481 913 506 913 c 1,69,-1
 506 913 l 1,51,52
506 -17 m 1,70,71
 462 -17 462 -17 426.5 9 c 128,-1,72
 391 35 391 35 378 76 c 1,73,-1
 635 76 l 1,74,75
 621 35 621 35 585.5 9 c 128,-1,76
 550 -17 550 -17 506 -17 c 1,77,-1
 506 -17 l 1,70,71
654 106 m 1,78,-1
 654 106 l 1,79,-1
 38 106 l 1,80,81
 39 163 39 163 79.5 203 c 128,-1,82
 120 243 120 243 177 243 c 2,83,-1
 251 243 l 2,84,85
 257 243 257 243 261.5 247.5 c 128,-1,86
 266 252 266 252 266 258 c 256,87,88
 266 264 266 264 261.5 268.5 c 128,-1,89
 257 273 257 273 251 273 c 2,90,-1
 199 273 l 1,91,-1
 199 518 l 2,92,93
 199 581 199 581 222 637 c 0,94,95
 246 692 246 692 287.5 733.5 c 128,-1,96
 329 775 329 775 384 799 c 0,97,98
 440 823 440 823 502 823 c 0,99,100
 521 823 521 823 539 821 c 128,-1,101
 557 819 557 819 574 815 c 0,102,103
 626 803 626 803 668 775 c 0,104,105
 711 747 711 747 741.5 707.5 c 128,-1,106
 772 668 772 668 789 620 c 256,107,108
 806 572 806 572 806 519 c 2,109,-1
 806 273 l 1,110,-1
 423 273 l 2,111,112
 417 273 417 273 412.5 268.5 c 128,-1,113
 408 264 408 264 408 258 c 256,114,115
 408 252 408 252 412.5 247.5 c 128,-1,116
 417 243 417 243 423 243 c 2,117,-1
 824 243 l 2,118,119
 881 243 881 243 921.5 203 c 128,-1,120
 962 163 962 163 963 106 c 1,121,-1
 654 106 l 1,122,-1
 654 106 l 1,78,-1
358 258 m 256,123,124
 358 252 358 252 353.5 247.5 c 128,-1,125
 349 243 349 243 342 243 c 0,126,127
 336 243 336 243 331.5 247.5 c 128,-1,128
 327 252 327 252 327 258 c 256,129,130
 327 264 327 264 331.5 268.5 c 128,-1,131
 336 273 336 273 342 273 c 0,132,133
 349 273 349 273 353.5 268.5 c 128,-1,134
 358 264 358 264 358 258 c 256,123,124
EndSplineSet
EndChar

StartChar: uniE915
Encoding: 59669 59669 25
Width: 1002
Flags: W
LayerCount: 2
Fore
SplineSet
620 72 m 1,0,1
 620 23 620 23 585 -12 c 128,-1,2
 550 -47 550 -47 501 -47 c 256,3,4
 452 -47 452 -47 417 -12 c 128,-1,5
 382 23 382 23 382 72 c 1,6,-1
 620 72 l 1,0,1
768 371 m 1,7,-1
 768 567 l 2,8,9
 768 617 768 617 751 661 c 0,10,11
 734 706 734 706 703.5 741 c 128,-1,12
 673 776 673 776 632 799 c 256,13,14
 591 822 591 822 544 830 c 1,15,-1
 544 899 l 2,16,17
 544 916 544 916 531 929 c 128,-1,18
 518 942 518 942 501 942 c 256,19,20
 484 942 484 942 471 929 c 128,-1,21
 458 916 458 916 458 899 c 2,22,-1
 458 829 l 1,23,24
 411 821 411 821 370 798 c 0,25,26
 330 774 330 774 300 739 c 128,-1,27
 270 704 270 704 253 660 c 256,28,29
 236 616 236 616 236 566 c 2,30,-1
 236 370 l 1,31,-1
 116 194 l 1,32,33
 116 169 116 169 134 151 c 128,-1,34
 152 133 152 133 177 133 c 2,35,-1
 826 133 l 2,36,37
 851 133 851 133 869 151 c 128,-1,38
 887 169 887 169 887 194 c 1,39,-1
 768 371 l 1,40,-1
 768 371 l 1,7,-1
EndSplineSet
EndChar

StartChar: uniE916
Encoding: 59670 59670 26
Width: 1013
Flags: W
LayerCount: 2
Fore
SplineSet
514 608 m 0,0,1
 471 608 471 608 434 592 c 0,2,3
 396 575 396 575 368 547 c 128,-1,4
 340 519 340 519 324 482 c 0,5,6
 307 444 307 444 307 401 c 0,7,8
 307 359 307 359 324 321 c 0,9,10
 340 284 340 284 368 255.5 c 128,-1,11
 396 227 396 227 434 211 c 0,12,13
 471 195 471 195 514 195 c 0,14,15
 556 195 556 195 594 211 c 256,16,17
 632 227 632 227 660 255.5 c 128,-1,18
 688 284 688 284 704 321 c 0,19,20
 721 359 721 359 721 401 c 0,21,22
 721 444 721 444 704 482 c 0,23,24
 688 519 688 519 660 547 c 128,-1,25
 632 575 632 575 594 592 c 0,26,27
 556 608 556 608 514 608 c 0,0,1
514 290 m 1,28,29
 487 290 487 290 464.5 301.5 c 128,-1,30
 442 313 442 313 426 334 c 0,31,32
 421 341 421 341 422 349.5 c 128,-1,33
 423 358 423 358 430 362 c 0,34,35
 437 368 437 368 445.5 367 c 128,-1,36
 454 366 454 366 458 359 c 0,37,38
 468 346 468 346 482.5 338.5 c 128,-1,39
 497 331 497 331 514 331 c 0,40,41
 543 331 543 331 563 351.5 c 128,-1,42
 583 372 583 372 583 400 c 0,43,44
 583 416 583 416 575 432 c 128,-1,45
 567 448 567 448 553 457 c 0,46,47
 546 461 546 461 544.5 469.5 c 128,-1,48
 543 478 543 478 547 485 c 0,49,50
 552 492 552 492 560 493.5 c 128,-1,51
 568 495 568 495 575 491 c 0,52,53
 598 475 598 475 611 451.5 c 128,-1,54
 624 428 624 428 624 400 c 0,55,56
 624 355 624 355 591.5 322.5 c 128,-1,57
 559 290 559 290 514 290 c 1,58,-1
 514 290 l 1,28,29
936 733 m 1,59,-1
 739 733 l 1,60,-1
 691 850 l 2,61,62
 688 856 688 856 683 859.5 c 128,-1,63
 678 863 678 863 672 863 c 2,64,-1
 359 863 l 2,65,66
 354 863 354 863 349 860.5 c 128,-1,67
 344 858 344 858 341 852 c 2,68,-1
 281 733 l 1,69,-1
 212 733 l 1,70,-1
 212 763 l 2,71,72
 212 767 212 767 209.5 769.5 c 128,-1,73
 207 772 207 772 203 772 c 2,74,-1
 130 772 l 2,75,76
 126 772 126 772 123.5 769.5 c 128,-1,77
 121 767 121 767 121 763 c 2,78,-1
 121 733 l 1,79,-1
 78 733 l 2,80,81
 60 733 60 733 47.5 720.5 c 128,-1,82
 35 708 35 708 35 690 c 2,83,-1
 35 130 l 2,84,85
 35 111 35 111 47.5 99 c 128,-1,86
 60 87 60 87 78 87 c 2,87,-1
 936 87 l 2,88,89
 955 87 955 87 967 99 c 128,-1,90
 979 111 979 111 979 130 c 2,91,-1
 979 688 l 2,92,93
 979 706 979 706 967 719.5 c 128,-1,94
 955 733 955 733 936 733 c 1,95,-1
 936 733 l 1,59,-1
596 772 m 256,96,97
 606 772 606 772 613 765 c 128,-1,98
 620 758 620 758 620 748 c 256,99,100
 620 738 620 738 613 731 c 128,-1,101
 606 724 606 724 596 724 c 256,102,103
 586 724 586 724 579 731 c 128,-1,104
 572 738 572 738 572 748 c 256,105,106
 572 758 572 758 579 765 c 128,-1,107
 586 772 586 772 596 772 c 256,96,97
344 768 m 2,108,-1
 514 768 l 2,109,110
 522 768 522 768 528 762 c 128,-1,111
 534 756 534 756 534 748 c 0,112,113
 534 739 534 739 528 733 c 128,-1,114
 522 727 522 727 514 727 c 2,115,-1
 344 727 l 2,116,117
 336 727 336 727 330 733 c 128,-1,118
 324 739 324 739 324 748 c 0,119,120
 324 756 324 756 330 762 c 128,-1,121
 336 768 336 768 344 768 c 2,108,-1
514 159 m 1,122,123
 464 159 464 159 421 178 c 0,124,125
 377 197 377 197 344.5 230 c 128,-1,126
 312 263 312 263 293 306 c 0,127,128
 274 350 274 350 274 400 c 0,129,130
 274 449 274 449 293 493 c 256,131,132
 312 537 312 537 344.5 569.5 c 128,-1,133
 377 602 377 602 421 621 c 0,134,135
 464 640 464 640 514 640 c 0,136,137
 563 640 563 640 607 621 c 256,138,139
 651 602 651 602 683.5 570 c 128,-1,140
 716 538 716 538 735 494 c 0,141,142
 754 451 754 451 754 401 c 0,143,144
 754 352 754 352 735 308 c 256,145,146
 716 264 716 264 683.5 231 c 128,-1,147
 651 198 651 198 607 179 c 0,148,149
 563 159 563 159 514 159 c 1,150,-1
 514 159 l 1,122,123
873 588 m 0,151,152
 859 588 859 588 850.5 597.5 c 128,-1,153
 842 607 842 607 842 619 c 0,154,155
 842 632 842 632 851.5 641.5 c 128,-1,156
 861 651 861 651 873 651 c 0,157,158
 886 651 886 651 895.5 641.5 c 128,-1,159
 905 632 905 632 905 619 c 0,160,161
 905 607 905 607 895.5 597.5 c 128,-1,162
 886 588 886 588 873 588 c 0,151,152
EndSplineSet
EndChar

StartChar: uniE917
Encoding: 59671 59671 27
Width: 1013
Flags: W
LayerCount: 2
Fore
SplineSet
909 722 m 1,0,-1
 758 722 l 1,1,-1
 696 845 l 2,2,3
 695 849 695 849 691 850.5 c 128,-1,4
 687 852 687 852 683 852 c 2,5,-1
 330 852 l 2,6,7
 325 852 325 852 321.5 849.5 c 128,-1,8
 318 847 318 847 317 845 c 2,9,-1
 253 722 l 1,10,-1
 229 722 l 1,11,-1
 229 774 l 2,12,13
 229 782 229 782 222.5 789 c 128,-1,14
 216 796 216 796 207 796 c 2,15,-1
 128 796 l 2,16,17
 120 796 120 796 113 790 c 128,-1,18
 106 784 106 784 106 774 c 2,19,-1
 106 724 l 1,20,-1
 102 724 l 2,21,22
 69 724 69 724 45.5 700.5 c 128,-1,23
 22 677 22 677 22 643 c 2,24,-1
 22 122 l 2,25,26
 22 89 22 89 45.5 65.5 c 128,-1,27
 69 42 69 42 102 42 c 2,28,-1
 909 42 l 2,29,30
 942 42 942 42 965.5 65.5 c 128,-1,31
 989 89 989 89 989 122 c 2,32,-1
 989 643 l 2,33,34
 989 676 989 676 965.5 699 c 128,-1,35
 942 722 942 722 909 722 c 1,36,-1
 909 722 l 1,0,-1
136 766 m 1,37,-1
 205 766 l 1,38,-1
 205 722 l 1,39,-1
 136 722 l 1,40,-1
 136 766 l 1,37,-1
959 122 m 1,41,42
 959 101 959 101 944.5 86.5 c 128,-1,43
 930 72 930 72 909 72 c 2,44,-1
 102 72 l 2,45,46
 81 72 81 72 66.5 86.5 c 128,-1,47
 52 101 52 101 52 122 c 2,48,-1
 52 643 l 2,49,50
 52 664 52 664 66.5 679 c 128,-1,51
 81 694 81 694 102 694 c 2,52,-1
 264 694 l 2,53,54
 269 694 269 694 272.5 696 c 128,-1,55
 276 698 276 698 277 701 c 2,56,-1
 341 824 l 1,57,-1
 676 824 l 1,58,-1
 737 701 l 2,59,60
 739 697 739 697 742.5 695.5 c 128,-1,61
 746 694 746 694 750 694 c 2,62,-1
 910 694 l 2,63,64
 931 694 931 694 946 679 c 128,-1,65
 961 664 961 664 961 643 c 2,66,-1
 961 122 l 1,67,-1
 959 122 l 1,41,42
503 694 m 1,68,-1
 346 694 l 2,69,70
 341 694 341 694 336 698 c 128,-1,71
 331 702 331 702 331 709 c 0,72,73
 331 714 331 714 335 719 c 128,-1,74
 339 724 339 724 346 724 c 2,75,-1
 503 724 l 2,76,77
 508 724 508 724 513 720 c 128,-1,78
 518 716 518 716 518 709 c 256,79,80
 518 702 518 702 513 698 c 128,-1,81
 508 694 508 694 503 694 c 1,82,-1
 503 694 l 1,68,-1
585 694 m 2,83,-1
 566 694 l 2,84,85
 560 694 560 694 555.5 698 c 128,-1,86
 551 702 551 702 551 709 c 0,87,88
 551 714 551 714 555 719 c 128,-1,89
 559 724 559 724 566 724 c 2,90,-1
 585 724 l 2,91,92
 590 724 590 724 595 720 c 128,-1,93
 600 716 600 716 600 709 c 256,94,95
 600 702 600 702 596 698 c 128,-1,96
 592 694 592 694 585 694 c 2,83,-1
506 154 m 1,97,98
 458 154 458 154 416 172 c 0,99,100
 373 190 373 190 341.5 222 c 128,-1,101
 310 254 310 254 292 296 c 256,102,103
 274 338 274 338 274 387 c 0,104,105
 274 435 274 435 292 477 c 0,106,107
 310 520 310 520 341.5 551.5 c 128,-1,108
 373 583 373 583 416 601 c 0,109,110
 458 619 458 619 506 619 c 0,111,112
 555 619 555 619 597 601 c 256,113,114
 639 583 639 583 671 551.5 c 128,-1,115
 703 520 703 520 721 477 c 0,116,117
 739 435 739 435 739 387 c 0,118,119
 739 338 739 338 721 296 c 256,120,121
 703 254 703 254 671 222 c 128,-1,122
 639 190 639 190 597 172 c 256,123,124
 555 154 555 154 506 154 c 1,125,-1
 506 154 l 1,97,98
506 591 m 1,126,127
 464 591 464 591 427 575 c 0,128,129
 389 559 389 559 361.5 531.5 c 128,-1,130
 334 504 334 504 318 466 c 0,131,132
 302 429 302 429 302 387 c 0,133,134
 302 344 302 344 318 307 c 0,135,136
 334 269 334 269 361.5 241.5 c 128,-1,137
 389 214 389 214 427 198 c 0,138,139
 464 182 464 182 506 182 c 0,140,141
 549 182 549 182 586 198 c 0,142,143
 624 214 624 214 651.5 241.5 c 128,-1,144
 679 269 679 269 695 307 c 0,145,146
 711 344 711 344 711 387 c 0,147,148
 711 429 711 429 695 466 c 0,149,150
 679 504 679 504 651 531.5 c 128,-1,151
 623 559 623 559 586 575 c 0,152,153
 548 591 548 591 506 591 c 1,154,-1
 506 591 l 1,126,127
506 284 m 1,155,156
 484 284 484 284 464 293.5 c 128,-1,157
 444 303 444 303 428 320 c 0,158,159
 423 327 423 327 423 335.5 c 128,-1,160
 423 344 423 344 430 349 c 0,161,162
 437 355 437 355 445.5 354.5 c 128,-1,163
 454 354 454 354 460 347 c 0,164,165
 468 338 468 338 480 332.5 c 128,-1,166
 492 327 492 327 505 327 c 0,167,168
 530 327 530 327 547 344 c 128,-1,169
 564 361 564 361 564 387 c 0,170,171
 564 403 564 403 556 416.5 c 128,-1,172
 548 430 548 430 534 439 c 0,173,174
 526 443 526 443 523.5 451.5 c 128,-1,175
 521 460 521 460 527 468 c 0,176,177
 531 477 531 477 539.5 479.5 c 128,-1,178
 548 482 548 482 557 476 c 0,179,180
 580 462 580 462 594.5 438 c 128,-1,181
 609 414 609 414 609 387 c 0,182,183
 609 343 609 343 578.5 313.5 c 128,-1,184
 548 284 548 284 506 284 c 1,185,-1
 506 284 l 1,155,156
879 584 m 256,186,187
 879 569 879 569 868.5 559 c 128,-1,188
 858 549 858 549 843 549 c 0,189,190
 829 549 829 549 818.5 559 c 128,-1,191
 808 569 808 569 808 584 c 256,192,193
 808 599 808 599 818.5 609 c 128,-1,194
 829 619 829 619 843 619 c 0,195,196
 858 619 858 619 868.5 609 c 128,-1,197
 879 599 879 599 879 584 c 256,186,187
EndSplineSet
EndChar

StartChar: uniE918
Encoding: 59672 59672 28
Width: 1013
Flags: W
LayerCount: 2
Fore
SplineSet
972 575 m 0,0,1
 966 575 966 575 962.5 571 c 128,-1,2
 959 567 959 567 959 562 c 2,3,-1
 959 534 l 2,4,5
 959 528 959 528 962.5 524.5 c 128,-1,6
 966 521 966 521 972 521 c 0,7,8
 977 521 977 521 981 524.5 c 128,-1,9
 985 528 985 528 985 534 c 2,10,-1
 985 562 l 2,11,12
 985 567 985 567 981 571 c 128,-1,13
 977 575 977 575 972 575 c 0,0,1
905 882 m 1,14,-1
 333 882 l 2,15,16
 300 882 300 882 276.5 858.5 c 128,-1,17
 253 835 253 835 253 802 c 2,18,-1
 253 703 l 1,19,-1
 108 703 l 2,20,21
 74 703 74 703 51 680 c 128,-1,22
 28 657 28 657 28 623 c 2,23,-1
 28 264 l 2,24,25
 28 230 28 230 51 207 c 128,-1,26
 74 184 74 184 108 184 c 2,27,-1
 212 184 l 1,28,-1
 218 25 l 2,29,30
 218 21 218 21 220 18.5 c 128,-1,31
 222 16 222 16 225 14 c 0,32,33
 227 14 227 14 228 14 c 128,-1,34
 229 14 229 14 231 14 c 0,35,36
 234 14 234 14 236.5 15.5 c 128,-1,37
 239 17 239 17 240 18 c 2,38,-1
 400 184 l 1,39,-1
 680 184 l 2,40,41
 713 184 713 184 736.5 207 c 128,-1,42
 760 230 760 230 760 264 c 2,43,-1
 760 279 l 1,44,-1
 849 184 l 2,45,46
 850 182 850 182 853 181 c 128,-1,47
 856 180 856 180 858 180 c 256,48,49
 860 180 860 180 861 180 c 128,-1,50
 862 180 862 180 864 180 c 0,51,52
 868 181 868 181 869.5 185 c 128,-1,53
 871 189 871 189 871 193 c 2,54,-1
 871 362 l 1,55,-1
 905 362 l 2,56,57
 938 362 938 362 961.5 385.5 c 128,-1,58
 985 409 985 409 985 442 c 2,59,-1
 985 461 l 2,60,61
 985 467 985 467 981 470.5 c 128,-1,62
 977 474 977 474 972 474 c 0,63,64
 966 474 966 474 962.5 470.5 c 128,-1,65
 959 467 959 467 959 461 c 2,66,-1
 959 442 l 2,67,68
 959 420 959 420 943 404 c 128,-1,69
 927 388 927 388 905 388 c 2,70,-1
 858 388 l 2,71,72
 853 388 853 388 849 384.5 c 128,-1,73
 845 381 845 381 845 375 c 2,74,-1
 845 226 l 1,75,-1
 760 318 l 1,76,-1
 760 623 l 2,77,78
 760 657 760 657 736.5 680 c 128,-1,79
 713 703 713 703 680 703 c 2,80,-1
 279 703 l 1,81,-1
 279 802 l 2,82,83
 279 824 279 824 295 840 c 128,-1,84
 311 856 311 856 333 856 c 2,85,-1
 905 856 l 2,86,87
 927 856 927 856 943 840 c 128,-1,88
 959 824 959 824 959 802 c 2,89,-1
 959 627 l 2,90,91
 959 621 959 621 962.5 617.5 c 128,-1,92
 966 614 966 614 972 614 c 0,93,94
 977 614 977 614 981 617.5 c 128,-1,95
 985 621 985 621 985 627 c 2,96,-1
 985 802 l 2,97,98
 985 835 985 835 961.5 858.5 c 128,-1,99
 938 882 938 882 905 882 c 1,100,-1
 905 882 l 1,14,-1
734 623 m 1,101,-1
 734 264 l 2,102,103
 734 241 734 241 718 225.5 c 128,-1,104
 702 210 702 210 680 210 c 2,105,-1
 393 210 l 2,106,107
 390 210 390 210 387.5 208.5 c 128,-1,108
 385 207 385 207 384 206 c 2,109,-1
 242 59 l 1,110,-1
 238 197 l 2,111,112
 238 202 238 202 234.5 206 c 128,-1,113
 231 210 231 210 225 210 c 2,114,-1
 108 210 l 2,115,116
 86 210 86 210 70 225.5 c 128,-1,117
 54 241 54 241 54 264 c 2,118,-1
 54 623 l 2,119,120
 54 645 54 645 70 661 c 128,-1,121
 86 677 86 677 108 677 c 2,122,-1
 680 677 l 2,123,124
 702 677 702 677 718 661 c 128,-1,125
 734 645 734 645 734 623 c 1,126,-1
 734 623 l 1,101,-1
164 526 m 0,127,128
 164 521 164 521 167.5 517 c 128,-1,129
 171 513 171 513 177 513 c 2,130,-1
 380 513 l 2,131,132
 385 513 385 513 389 517 c 128,-1,133
 393 521 393 521 393 526 c 0,134,135
 393 532 393 532 389 535.5 c 128,-1,136
 385 539 385 539 380 539 c 2,137,-1
 177 539 l 2,138,139
 171 539 171 539 167.5 535.5 c 128,-1,140
 164 532 164 532 164 526 c 0,127,128
266 418 m 2,141,142
 272 418 272 418 275.5 422 c 128,-1,143
 279 426 279 426 279 431 c 0,144,145
 279 437 279 437 275.5 440.5 c 128,-1,146
 272 444 272 444 266 444 c 2,147,-1
 168 444 l 2,148,149
 162 444 162 444 158.5 440.5 c 128,-1,150
 155 437 155 437 155 431 c 0,151,152
 155 426 155 426 158.5 422 c 128,-1,153
 162 418 162 418 168 418 c 2,154,-1
 266 418 l 2,141,142
324 431 m 0,155,156
 324 426 324 426 327.5 422 c 128,-1,157
 331 418 331 418 337 418 c 2,158,-1
 592 418 l 2,159,160
 598 418 598 418 601.5 422 c 128,-1,161
 605 426 605 426 605 431 c 0,162,163
 605 437 605 437 601.5 440.5 c 128,-1,164
 598 444 598 444 592 444 c 2,165,-1
 337 444 l 2,166,167
 331 444 331 444 327.5 440.5 c 128,-1,168
 324 437 324 437 324 431 c 0,155,156
393 340 m 2,169,-1
 177 340 l 2,170,171
 171 340 171 340 167.5 336.5 c 128,-1,172
 164 333 164 333 164 327 c 256,173,174
 164 321 164 321 167.5 317.5 c 128,-1,175
 171 314 171 314 177 314 c 2,176,-1
 393 314 l 2,177,178
 398 314 398 314 402 317.5 c 128,-1,179
 406 321 406 321 406 327 c 256,180,181
 406 333 406 333 402 336.5 c 128,-1,182
 398 340 398 340 393 340 c 2,169,-1
475 340 m 2,183,-1
 454 340 l 2,184,185
 449 340 449 340 445 336.5 c 128,-1,186
 441 333 441 333 441 327 c 256,187,188
 441 321 441 321 445 317.5 c 128,-1,189
 449 314 449 314 454 314 c 2,190,-1
 475 314 l 2,191,192
 480 314 480 314 484 317.5 c 128,-1,193
 488 321 488 321 488 327 c 256,194,195
 488 333 488 333 484 336.5 c 128,-1,196
 480 340 480 340 475 340 c 2,183,-1
546 340 m 2,197,198
 540 340 540 340 536 336.5 c 128,-1,199
 532 333 532 333 532 327 c 256,200,201
 532 321 532 321 536 317.5 c 128,-1,202
 540 314 540 314 546 314 c 2,203,-1
 605 314 l 2,204,205
 611 314 611 314 614.5 317.5 c 128,-1,206
 618 321 618 321 618 327 c 256,207,208
 618 333 618 333 614.5 336.5 c 128,-1,209
 611 340 611 340 605 340 c 2,210,-1
 546 340 l 2,197,198
EndSplineSet
EndChar

StartChar: uniE919
Encoding: 59673 59673 29
Width: 1153
Flags: W
LayerCount: 2
Fore
SplineSet
1041 936 m 1,0,-1
 378 936 l 2,1,2
 346 936 346 936 322.5 913 c 128,-1,3
 299 890 299 890 299 857 c 2,4,-1
 299 762 l 1,5,-1
 806 762 l 2,6,7
 841 762 841 762 866 737 c 128,-1,8
 891 712 891 712 891 677 c 2,9,-1
 891 252 l 1,10,-1
 985 152 l 1,11,-1
 985 364 l 1,12,-1
 1038 364 l 2,13,14
 1069 364 1069 364 1092.5 387 c 128,-1,15
 1116 410 1116 410 1116 443 c 2,16,-1
 1116 857 l 2,17,18
 1117 890 1117 890 1094.5 913 c 128,-1,19
 1072 936 1072 936 1041 936 c 1,20,-1
 1041 936 l 1,0,-1
779 729 m 1,21,-1
 118 729 l 2,22,23
 86 729 86 729 62.5 706 c 128,-1,24
 39 683 39 683 39 650 c 2,25,-1
 39 234 l 2,26,27
 39 202 39 202 62 178.5 c 128,-1,28
 85 155 85 155 118 155 c 2,29,-1
 253 155 l 1,30,-1
 259 -41 l 1,31,-1
 448 155 l 1,32,-1
 779 155 l 2,33,34
 811 155 811 155 834.5 178 c 128,-1,35
 858 201 858 201 858 234 c 2,36,-1
 858 650 l 2,37,38
 858 683 858 683 835 706 c 128,-1,39
 812 729 812 729 779 729 c 1,40,-1
 779 729 l 1,21,-1
694 428 m 1,41,42
 694 421 694 421 690 416.5 c 128,-1,43
 686 412 686 412 679 412 c 2,44,-1
 384 412 l 2,45,46
 377 412 377 412 373 416.5 c 128,-1,47
 369 421 369 421 369 428 c 0,48,49
 369 434 369 434 373 438.5 c 128,-1,50
 377 443 377 443 384 443 c 2,51,-1
 681 443 l 2,52,53
 686 443 686 443 690 438.5 c 128,-1,54
 694 434 694 434 694 428 c 1,55,-1
 694 428 l 1,41,42
197 553 m 1,56,-1
 431 553 l 2,57,58
 438 553 438 553 442 549 c 128,-1,59
 446 545 446 545 446 538 c 256,60,61
 446 531 446 531 442 527 c 128,-1,62
 438 523 438 523 431 523 c 2,63,-1
 197 523 l 2,64,65
 190 523 190 523 186 527 c 128,-1,66
 182 531 182 531 182 538 c 256,67,68
 182 545 182 545 186.5 549 c 128,-1,69
 191 553 191 553 197 553 c 1,70,-1
 197 553 l 1,56,-1
171 428 m 256,71,72
 171 434 171 434 175 438.5 c 128,-1,73
 179 443 179 443 186 443 c 2,74,-1
 299 443 l 2,75,76
 306 443 306 443 310.5 438.5 c 128,-1,77
 315 434 315 434 315 428 c 0,78,79
 315 421 315 421 310.5 416.5 c 128,-1,80
 306 412 306 412 299 412 c 2,81,-1
 186 412 l 2,82,83
 180 412 180 412 175.5 417 c 128,-1,84
 171 422 171 422 171 428 c 256,71,72
448 293 m 2,85,-1
 197 293 l 2,86,87
 190 293 190 293 186 297 c 128,-1,88
 182 301 182 301 182 308 c 256,89,90
 182 315 182 315 186 319 c 128,-1,91
 190 323 190 323 197 323 c 2,92,-1
 448 323 l 2,93,94
 455 323 455 323 459 319 c 128,-1,95
 463 315 463 315 463 308 c 256,96,97
 463 301 463 301 459 297 c 128,-1,98
 455 293 455 293 448 293 c 2,85,-1
543 293 m 2,99,-1
 520 293 l 2,100,101
 514 293 514 293 509.5 297 c 128,-1,102
 505 301 505 301 505 308 c 256,103,104
 505 315 505 315 509.5 319 c 128,-1,105
 514 323 514 323 520 323 c 2,106,-1
 543 323 l 2,107,108
 550 323 550 323 554 319 c 128,-1,109
 558 315 558 315 558 308 c 256,110,111
 558 301 558 301 554 297 c 128,-1,112
 550 293 550 293 543 293 c 2,99,-1
693 293 m 2,113,-1
 625 293 l 2,114,115
 618 293 618 293 614 297 c 128,-1,116
 610 301 610 301 610 308 c 256,117,118
 610 315 610 315 614 319 c 128,-1,119
 618 323 618 323 625 323 c 2,120,-1
 693 323 l 2,121,122
 700 323 700 323 704 319 c 128,-1,123
 708 315 708 315 708 308 c 256,124,125
 708 301 708 301 703 297 c 128,-1,126
 698 293 698 293 693 293 c 2,113,-1
EndSplineSet
EndChar

StartChar: uniE91A
Encoding: 59674 59674 30
Width: 1013
Flags: W
LayerCount: 2
Fore
SplineSet
506 212 m 1,0,1
 458 212 458 212 414 230 c 0,2,3
 371 249 371 249 339 281 c 128,-1,4
 307 313 307 313 289 356 c 0,5,6
 270 399 270 399 270 448 c 256,7,8
 270 497 270 497 289 540 c 0,9,10
 307 583 307 583 339 615 c 128,-1,11
 371 647 371 647 414 666 c 0,12,13
 458 684 458 684 506 684 c 0,14,15
 555 684 555 684 598 666 c 0,16,17
 641 647 641 647 673.5 615 c 128,-1,18
 706 583 706 583 724 540 c 0,19,20
 743 497 743 497 743 448 c 256,21,22
 743 399 743 399 724 356 c 0,23,24
 706 313 706 313 673.5 281 c 128,-1,25
 641 249 641 249 598 230 c 0,26,27
 555 212 555 212 506 212 c 1,28,-1
 506 212 l 1,0,1
506 651 m 1,29,30
 465 651 465 651 428 635 c 256,31,32
 391 619 391 619 363 591.5 c 128,-1,33
 335 564 335 564 319 527 c 256,34,35
 303 490 303 490 303 448 c 256,36,37
 303 406 303 406 319 369 c 256,38,39
 335 332 335 332 363 304.5 c 128,-1,40
 391 277 391 277 428 261 c 256,41,42
 465 245 465 245 506 245 c 0,43,44
 548 245 548 245 585 261 c 256,45,46
 622 277 622 277 649.5 304.5 c 128,-1,47
 677 332 677 332 693 369 c 256,48,49
 709 406 709 406 709 448 c 256,50,51
 709 490 709 490 693 527 c 256,52,53
 677 564 677 564 649.5 591.5 c 128,-1,54
 622 619 622 619 585 635 c 256,55,56
 548 651 548 651 506 651 c 1,57,-1
 506 651 l 1,29,30
506 -42 m 0,58,59
 405 -42 405 -42 316 -3 c 0,60,61
 227 35 227 35 160.5 101.5 c 128,-1,62
 94 168 94 168 55 258 c 0,63,64
 17 347 17 347 17 448 c 256,65,66
 17 549 17 549 55 638 c 0,67,68
 94 727 94 727 160.5 793 c 128,-1,69
 227 859 227 859 316 898 c 0,70,71
 405 936 405 936 506 936 c 0,72,73
 608 936 608 936 697 898 c 0,74,75
 785 859 785 859 851.5 793 c 128,-1,76
 918 727 918 727 956 638 c 256,77,78
 994 549 994 549 994 448 c 256,79,80
 994 347 994 347 956 258 c 0,81,82
 918 168 918 168 851.5 101.5 c 128,-1,83
 785 35 785 35 697 -3 c 0,84,85
 608 -42 608 -42 506 -42 c 0,58,59
506 902 m 1,86,87
 412 902 412 902 329 867 c 0,88,89
 246 831 246 831 184 769.5 c 128,-1,90
 122 708 122 708 86 625 c 256,91,92
 50 542 50 542 50 448 c 256,93,94
 50 354 50 354 86 271 c 256,95,96
 122 188 122 188 184 126 c 128,-1,97
 246 64 246 64 329 28 c 256,98,99
 412 -8 412 -8 506 -8 c 0,100,101
 601 -8 601 -8 684 28 c 256,102,103
 767 64 767 64 829 126 c 128,-1,104
 891 188 891 188 927 271 c 256,105,106
 963 354 963 354 963 448 c 256,107,108
 963 542 963 542 927 625 c 256,109,110
 891 708 891 708 829 769.5 c 128,-1,111
 767 831 767 831 684 867 c 0,112,113
 601 902 601 902 506 902 c 1,114,-1
 506 902 l 1,86,87
640 -21 m 1,115,116
 635 -21 635 -21 631 -18.5 c 128,-1,117
 627 -16 627 -16 624 -10 c 2,118,-1
 547 230 l 2,119,120
 546 237 546 237 549 243 c 128,-1,121
 552 249 552 249 559 251 c 0,122,123
 566 252 566 252 572 249 c 128,-1,124
 578 246 578 246 579 239 c 2,125,-1
 655 -1 l 2,126,127
 657 -8 657 -8 654 -14 c 128,-1,128
 651 -20 651 -20 644 -21 c 2,129,130
 644 -21 644 -21 643 -21 c 128,-1,131
 642 -21 642 -21 640 -21 c 1,132,-1
 640 -21 l 1,115,116
434 638 m 1,133,134
 428 638 428 638 424 640.5 c 128,-1,135
 420 643 420 643 417 649 c 2,136,-1
 343 891 l 2,137,138
 341 898 341 898 344 904 c 128,-1,139
 347 910 347 910 354 912 c 0,140,141
 361 913 361 913 367 910 c 128,-1,142
 373 907 373 907 374 900 c 2,143,-1
 451 660 l 2,144,145
 452 653 452 653 449 647 c 128,-1,146
 446 641 446 641 439 640 c 0,147,148
 437 640 437 640 436 639 c 128,-1,149
 435 638 435 638 434 638 c 1,150,-1
 434 638 l 1,133,134
950 286 m 0,151,152
 948 286 948 286 946.5 286 c 128,-1,153
 945 286 945 286 944 286 c 2,154,-1
 709 360 l 2,155,156
 702 362 702 362 699.5 368.5 c 128,-1,157
 697 375 697 375 698 381 c 0,158,159
 700 388 700 388 706.5 391 c 128,-1,160
 713 394 713 394 719 392 c 2,161,-1
 953 318 l 2,162,163
 960 316 960 316 963 309.5 c 128,-1,164
 966 303 966 303 964 297 c 0,165,166
 963 292 963 292 958.5 289 c 128,-1,167
 954 286 954 286 950 286 c 0,151,152
290 496 m 0,168,169
 289 496 289 496 287.5 496 c 128,-1,170
 286 496 286 496 285 496 c 2,171,-1
 50 571 l 2,172,173
 43 572 43 572 40.5 579 c 128,-1,174
 38 586 38 586 39 591 c 0,175,176
 40 598 40 598 47 601 c 128,-1,177
 54 604 54 604 60 603 c 2,178,-1
 294 528 l 2,179,180
 301 527 301 527 304 520 c 128,-1,181
 307 513 307 513 305 508 c 0,182,183
 304 502 304 502 299.5 499 c 128,-1,184
 295 496 295 496 290 496 c 0,168,169
715 498 m 0,185,186
 709 498 709 498 705 501 c 128,-1,187
 701 504 701 504 700 509 c 0,188,189
 697 516 697 516 700.5 522.5 c 128,-1,190
 704 529 704 529 711 530 c 2,191,-1
 944 604 l 2,192,193
 951 606 951 606 957 603 c 128,-1,194
 963 600 963 600 964 593 c 0,195,196
 967 586 967 586 963.5 580 c 128,-1,197
 960 574 960 574 953 573 c 2,198,-1
 721 498 l 2,199,200
 719 498 719 498 717.5 498 c 128,-1,201
 716 498 716 498 715 498 c 0,185,186
65 290 m 1,202,203
 60 290 60 290 56 292.5 c 128,-1,204
 52 295 52 295 50 301 c 0,205,206
 47 308 47 308 50.5 314 c 128,-1,207
 54 320 54 320 61 321 c 2,208,-1
 287 394 l 2,209,210
 294 395 294 395 300 392.5 c 128,-1,211
 306 390 306 390 307 383 c 0,212,213
 310 376 310 376 306.5 370 c 128,-1,214
 303 364 303 364 296 362 c 2,215,-1
 69 290 l 2,216,217
 67 290 67 290 67 290 c 129,-1,218
 67 290 67 290 65 290 c 1,219,-1
 65 290 l 1,202,203
564 649 m 0,220,221
 563 649 563 649 561.5 649 c 128,-1,222
 560 649 560 649 559 649 c 0,223,224
 552 650 552 650 549 656.5 c 128,-1,225
 546 663 546 663 547 670 c 2,226,-1
 618 906 l 2,227,228
 620 913 620 913 626 916 c 128,-1,229
 632 919 632 919 639 917 c 0,230,231
 646 916 646 916 648.5 910 c 128,-1,232
 651 904 651 904 650 897 c 2,233,-1
 579 660 l 2,234,235
 578 655 578 655 574 652 c 128,-1,236
 570 649 570 649 564 649 c 0,220,221
369 -14 m 1,237,238
 367 -14 367 -14 365.5 -14 c 128,-1,239
 364 -14 364 -14 363 -14 c 0,240,241
 356 -12 356 -12 353 -6 c 128,-1,242
 350 0 350 0 352 7 c 2,243,-1
 421 239 l 2,244,245
 422 246 422 246 428 249 c 128,-1,246
 434 252 434 252 441 251 c 0,247,248
 448 249 448 249 451 243 c 128,-1,249
 454 237 454 237 452 230 c 2,250,-1
 384 -3 l 2,251,252
 382 -8 382 -8 377.5 -11 c 128,-1,253
 373 -14 373 -14 369 -14 c 1,254,-1
 369 -14 l 1,237,238
670 91 m 0,255,256
 666 91 666 91 661.5 93.5 c 128,-1,257
 657 96 657 96 655 100 c 0,258,259
 653 105 653 105 655 112 c 128,-1,260
 657 119 657 119 663 122 c 0,261,262
 666 124 666 124 669.5 125.5 c 128,-1,263
 673 127 673 127 676 130 c 0,264,265
 681 132 681 132 688 130.5 c 128,-1,266
 695 129 695 129 698 122 c 0,267,268
 701 117 701 117 699.5 110 c 128,-1,269
 698 103 698 103 691 100 c 0,270,271
 687 98 687 98 683.5 96 c 128,-1,272
 680 94 680 94 676 92 c 2,273,274
 676 92 676 92 674.5 91.5 c 128,-1,275
 673 91 673 91 670 91 c 0,255,256
724 122 m 1,276,277
 720 122 720 122 716.5 123.5 c 128,-1,278
 713 125 713 125 711 130 c 0,279,280
 707 135 707 135 708 142 c 128,-1,281
 709 149 709 149 715 152 c 0,282,283
 734 166 734 166 752 182.5 c 128,-1,284
 770 199 770 199 786 219 c 0,285,286
 790 225 790 225 797 225 c 128,-1,287
 804 225 804 225 810 221 c 0,288,289
 815 217 815 217 815.5 209.5 c 128,-1,290
 816 202 816 202 812 197 c 0,291,292
 795 176 795 176 775.5 157.5 c 128,-1,293
 756 139 756 139 734 124 c 0,294,295
 731 123 731 123 728.5 122.5 c 128,-1,296
 726 122 726 122 724 122 c 1,297,-1
 724 122 l 1,276,277
799 191 m 1,298,299
 796 191 796 191 793 192 c 128,-1,300
 790 193 790 193 788 195 c 0,301,302
 782 199 782 199 781.5 206 c 128,-1,303
 781 213 781 213 786 219 c 0,304,305
 791 226 791 226 796 232 c 128,-1,306
 801 238 801 238 806 245 c 0,307,308
 810 251 810 251 816.5 252 c 128,-1,309
 823 253 823 253 829 249 c 0,310,311
 834 245 834 245 835 238.5 c 128,-1,312
 836 232 836 232 832 226 c 0,313,314
 827 219 827 219 821 211.5 c 128,-1,315
 815 204 815 204 810 199 c 0,316,317
 808 194 808 194 805 192.5 c 128,-1,318
 802 191 802 191 799 191 c 1,319,-1
 799 191 l 1,298,299
819 219 m 1,320,321
 816 219 816 219 814.5 219.5 c 128,-1,322
 813 220 813 220 810 223 c 0,323,324
 804 227 804 227 803 233 c 128,-1,325
 802 239 802 239 806 245 c 0,326,327
 812 253 812 253 817 262 c 128,-1,328
 822 271 822 271 827 280 c 0,329,330
 829 286 829 286 836 288.5 c 128,-1,331
 843 291 843 291 849 288 c 256,332,333
 855 285 855 285 857 278 c 128,-1,334
 859 271 859 271 856 266 c 0,335,336
 851 256 851 256 845.5 246 c 128,-1,337
 840 236 840 236 834 226 c 0,338,339
 831 222 831 222 827 220.5 c 128,-1,340
 823 219 823 219 819 219 c 1,341,-1
 819 219 l 1,320,321
209 666 m 1,342,343
 206 666 206 666 203 667 c 128,-1,344
 200 668 200 668 197 670 c 0,345,346
 192 674 192 674 191 681 c 128,-1,347
 190 688 190 688 195 694 c 0,348,349
 219 724 219 724 248 749 c 128,-1,350
 277 774 277 774 311 792 c 0,351,352
 317 795 317 795 323.5 793.5 c 128,-1,353
 330 792 330 792 333 787 c 0,354,355
 336 781 336 781 334.5 774 c 128,-1,356
 333 767 333 767 328 765 c 0,357,358
 297 746 297 746 270.5 723.5 c 128,-1,359
 244 701 244 701 222 673 c 0,360,361
 220 669 220 669 216.5 667.5 c 128,-1,362
 213 666 213 666 209 666 c 1,363,-1
 209 666 l 1,342,343
169 603 m 0,364,365
 168 603 168 603 165.5 603 c 128,-1,366
 163 603 163 603 162 604 c 0,367,368
 156 607 156 607 154 614 c 128,-1,369
 152 621 152 621 155 627 c 0,370,371
 156 631 156 631 158.5 634 c 128,-1,372
 161 637 161 637 162 642 c 0,373,374
 165 647 165 647 172 649 c 128,-1,375
 179 651 179 651 184 647 c 0,376,377
 190 644 190 644 192 637 c 128,-1,378
 194 630 194 630 190 625 c 0,379,380
 189 622 189 622 186.5 618.5 c 128,-1,381
 184 615 184 615 182 612 c 0,382,383
 181 608 181 608 177.5 605.5 c 128,-1,384
 174 603 174 603 169 603 c 0,364,365
EndSplineSet
EndChar

StartChar: uniE91B
Encoding: 59675 59675 31
Width: 1039
Flags: W
LayerCount: 2
Fore
SplineSet
290 534 m 1,0,1
 308 580 308 580 342.5 616.5 c 128,-1,2
 377 653 377 653 423 673 c 1,3,-1
 349 906 l 1,4,5
 298 887 298 887 253 857 c 0,6,7
 208 828 208 828 171 789.5 c 128,-1,8
 134 751 134 751 105 705 c 0,9,10
 77 659 77 659 59 608 c 1,11,-1
 290 534 l 1,12,-1
 290 534 l 1,0,1
199 701 m 1,13,14
 225 732 225 732 255 758 c 128,-1,15
 285 784 285 784 320 804 c 0,16,17
 326 807 326 807 332.5 805.5 c 128,-1,18
 339 804 339 804 343 798 c 0,19,20
 346 792 346 792 344 785 c 128,-1,21
 342 778 342 778 337 775 c 0,22,23
 304 756 304 756 276.5 732.5 c 128,-1,24
 249 709 249 709 227 680 c 0,25,26
 225 677 225 677 221.5 675.5 c 128,-1,27
 218 674 218 674 213 674 c 0,28,29
 211 674 211 674 208 675 c 128,-1,30
 205 676 205 676 202 677 c 0,31,32
 197 681 197 681 196 688 c 128,-1,33
 195 695 195 695 199 701 c 1,34,-1
 199 701 l 1,13,14
170 659 m 1,35,36
 173 665 173 665 180 666.5 c 128,-1,37
 187 668 187 668 193 665 c 256,38,39
 199 662 199 662 201 655 c 128,-1,40
 203 648 203 648 199 642 c 0,41,42
 196 636 196 636 192.5 630 c 128,-1,43
 189 624 189 624 185 619 c 0,44,45
 183 614 183 614 179 611.5 c 128,-1,46
 175 609 175 609 170 609 c 0,47,48
 168 609 168 609 166 609.5 c 128,-1,49
 164 610 164 610 162 611 c 0,50,51
 156 614 156 614 153.5 620.5 c 128,-1,52
 151 627 151 627 154 634 c 0,53,54
 159 640 159 640 162.5 646.5 c 128,-1,55
 166 653 166 653 170 659 c 1,56,-1
 170 659 l 1,35,36
283 390 m 1,57,58
 279 404 279 404 277 419 c 128,-1,59
 275 434 275 434 275 449 c 0,60,61
 275 463 275 463 276.5 476 c 128,-1,62
 278 489 278 489 281 501 c 1,63,-1
 48 575 l 1,64,65
 40 544 40 544 35.5 512.5 c 128,-1,66
 31 481 31 481 31 447 c 0,67,68
 31 412 31 412 35.5 379 c 128,-1,69
 40 346 40 346 49 314 c 1,70,-1
 283 390 l 1,71,-1
 283 390 l 1,57,58
368 912 m 2,72,-1
 380 917 l 2,73,74
 376 916 376 916 373.5 914.5 c 128,-1,75
 371 913 371 913 368 912 c 2,72,-1
456 684 m 1,76,77
 471 688 471 688 487 690.5 c 128,-1,78
 503 693 503 693 520 693 c 0,79,80
 532 693 532 693 543 691.5 c 128,-1,81
 554 690 554 690 565 688 c 1,82,-1
 633 923 l 1,83,84
 605 930 605 930 577 933.5 c 128,-1,85
 549 937 549 937 520 937 c 0,86,87
 485 937 485 937 450 931.5 c 128,-1,88
 415 926 415 926 383 917 c 1,89,-1
 456 684 l 1,90,-1
 456 684 l 1,76,77
988 311 m 1,91,92
 998 344 998 344 1003.5 378 c 128,-1,93
 1009 412 1009 412 1009 447 c 256,94,95
 1009 482 1009 482 1004 514.5 c 128,-1,96
 999 547 999 547 990 579 c 1,97,-1
 758 504 l 1,98,99
 762 490 762 490 764 476 c 128,-1,100
 766 462 766 462 766 447 c 0,101,102
 766 431 766 431 764 416 c 128,-1,103
 762 401 762 401 758 385 c 1,104,-1
 988 311 l 1,105,-1
 988 311 l 1,91,92
598 680 m 1,106,107
 649 663 649 663 688.5 625.5 c 128,-1,108
 728 588 728 588 748 538 c 1,109,-1
 979 612 l 1,110,111
 960 666 960 666 929 714 c 0,112,113
 899 761 899 761 858.5 799.5 c 128,-1,114
 818 838 818 838 769 867 c 0,115,116
 721 896 721 896 666 914 c 1,117,-1
 598 680 l 1,118,-1
 598 680 l 1,106,107
731 447 m 1,119,120
 731 491 731 491 714 529 c 256,121,122
 697 567 697 567 668.5 595.5 c 128,-1,123
 640 624 640 624 602 641 c 0,124,125
 564 657 564 657 520 657 c 0,126,127
 477 657 477 657 439 641 c 0,128,129
 401 624 401 624 372.5 595.5 c 128,-1,130
 344 567 344 567 327 529 c 256,131,132
 310 491 310 491 310 447 c 0,133,134
 310 404 310 404 327 366 c 0,135,136
 344 327 344 327 372.5 298.5 c 128,-1,137
 401 270 401 270 439 254 c 0,138,139
 477 237 477 237 520 237 c 0,140,141
 564 237 564 237 602 254 c 0,142,143
 640 270 640 270 668.5 298.5 c 128,-1,144
 697 327 697 327 714 366 c 0,145,146
 731 404 731 404 731 447 c 1,147,-1
 731 447 l 1,119,120
746 353 m 1,148,149
 726 306 726 306 688.5 270 c 128,-1,150
 651 234 651 234 602 217 c 1,151,-1
 675 -16 l 1,152,153
 728 1 728 1 774 30 c 0,154,155
 821 59 821 59 860 96.5 c 128,-1,156
 899 134 899 134 929 180 c 256,157,158
 959 226 959 226 978 277 c 1,159,-1
 746 353 l 1,160,-1
 746 353 l 1,148,149
726 97 m 1,161,162
 719 92 719 92 712 88.5 c 128,-1,163
 705 85 705 85 697 81 c 0,164,165
 694 80 694 80 692.5 80 c 128,-1,166
 691 80 691 80 689 80 c 0,167,168
 684 80 684 80 680 82 c 128,-1,169
 676 84 676 84 673 89 c 0,170,171
 670 96 670 96 672.5 102.5 c 128,-1,172
 675 109 675 109 681 112 c 0,173,174
 688 116 688 116 695 119 c 128,-1,175
 702 122 702 122 707 126 c 0,176,177
 713 129 713 129 720 127.5 c 128,-1,178
 727 126 727 126 731 120 c 0,179,180
 736 114 736 114 734.5 107 c 128,-1,181
 733 100 733 100 726 97 c 1,182,-1
 726 97 l 1,161,162
836 189 m 1,183,184
 821 171 821 171 803.5 154.5 c 128,-1,185
 786 138 786 138 766 123 c 0,186,187
 764 121 764 121 761.5 120.5 c 128,-1,188
 759 120 759 120 755 120 c 0,189,190
 752 120 752 120 748 122 c 128,-1,191
 744 124 744 124 741 126 c 0,192,193
 737 132 737 132 738 139 c 128,-1,194
 739 146 739 146 744 151 c 0,195,196
 762 163 762 163 778 179 c 128,-1,197
 794 195 794 195 808 211 c 0,198,199
 812 217 812 217 819.5 217 c 128,-1,200
 827 217 827 217 832 214 c 0,201,202
 838 209 838 209 839 202 c 128,-1,203
 840 195 840 195 836 189 c 1,204,-1
 836 189 l 1,183,184
857 219 m 0,205,206
 855 215 855 215 851 213 c 128,-1,207
 847 211 847 211 843 211 c 0,208,209
 841 211 841 211 838.5 212 c 128,-1,210
 836 213 836 213 834 214 c 0,211,212
 828 217 828 217 827 224 c 128,-1,213
 826 231 826 231 829 237 c 0,214,215
 835 246 835 246 840.5 255 c 128,-1,216
 846 264 846 264 851 274 c 0,217,218
 854 280 854 280 861 282.5 c 128,-1,219
 868 285 868 285 874 282 c 0,220,221
 880 278 880 278 882.5 271.5 c 128,-1,222
 885 265 885 265 882 259 c 0,223,224
 876 248 876 248 870 238 c 128,-1,225
 864 228 864 228 857 219 c 0,205,206
672 -16 m 2,226,-1
 661 -19 l 2,227,228
 663 -19 663 -19 665.5 -18 c 128,-1,229
 668 -17 668 -17 672 -16 c 2,226,-1
568 208 m 1,230,231
 557 206 557 206 544.5 204.5 c 128,-1,232
 532 203 532 203 519 203 c 0,233,234
 504 203 504 203 489 205 c 128,-1,235
 474 207 474 207 460 211 c 1,236,-1
 391 -22 l 1,237,238
 421 -30 421 -30 453 -34.5 c 128,-1,239
 485 -39 485 -39 519 -39 c 0,240,241
 550 -39 550 -39 581 -35.5 c 128,-1,242
 612 -32 612 -32 641 -24 c 1,243,-1
 568 208 l 1,230,231
428 222 m 1,244,245
 381 240 381 240 345.5 275.5 c 128,-1,246
 310 311 310 311 292 358 c 1,247,-1
 60 282 l 1,248,249
 79 230 79 230 108 185 c 0,250,251
 137 139 137 139 175.5 101 c 128,-1,252
 214 63 214 63 260 34 c 256,253,254
 306 5 306 5 358 -13 c 1,255,-1
 428 222 l 1,256,-1
 428 222 l 1,244,245
EndSplineSet
EndChar

StartChar: uniE91C
Encoding: 59676 59676 32
Width: 1006
Flags: W
LayerCount: 2
Fore
SplineSet
504 -43 m 0,0,1
 402 -43 402 -43 312 -5 c 0,2,3
 223 34 223 34 156 101 c 128,-1,4
 89 168 89 168 50 258 c 0,5,6
 11 347 11 347 11 449 c 256,7,8
 11 551 11 551 50 640 c 0,9,10
 89 730 89 730 156 797 c 128,-1,11
 223 864 223 864 312 903 c 0,12,13
 402 941 402 941 504 941 c 0,14,15
 605 941 605 941 695 903 c 0,16,17
 785 864 785 864 851.5 797 c 128,-1,18
 918 730 918 730 957 640 c 0,19,20
 996 551 996 551 996 449 c 256,21,22
 996 347 996 347 957 258 c 0,23,24
 918 168 918 168 851.5 101 c 128,-1,25
 785 34 785 34 695 -5 c 0,26,27
 605 -43 605 -43 504 -43 c 0,0,1
504 928 m 1,28,29
 405 928 405 928 317 890 c 0,30,31
 230 853 230 853 165 787.5 c 128,-1,32
 100 722 100 722 62 635 c 0,33,34
 25 548 25 548 25 449 c 256,35,36
 25 350 25 350 62 263 c 0,37,38
 100 176 100 176 165 110.5 c 128,-1,39
 230 45 230 45 317 8 c 0,40,41
 405 -30 405 -30 504 -30 c 256,42,43
 603 -30 603 -30 690 8 c 0,44,45
 777 45 777 45 842 110.5 c 128,-1,46
 907 176 907 176 945 263 c 256,47,48
 983 350 983 350 983 449 c 256,49,50
 983 548 983 548 945 635 c 256,51,52
 907 722 907 722 842 787.5 c 128,-1,53
 777 853 777 853 690 890 c 0,54,55
 603 928 603 928 504 928 c 1,56,-1
 504 928 l 1,28,29
598 449 m 1,57,58
 598 410 598 410 570.5 382.5 c 128,-1,59
 543 355 543 355 504 355 c 256,60,61
 465 355 465 355 437 382.5 c 128,-1,62
 409 410 409 410 409 449 c 256,63,64
 409 488 409 488 437 515.5 c 128,-1,65
 465 543 465 543 504 543 c 256,66,67
 543 543 543 543 570.5 515.5 c 128,-1,68
 598 488 598 488 598 449 c 1,69,-1
 598 449 l 1,57,58
EndSplineSet
EndChar

StartChar: uniE91D
Encoding: 59677 59677 33
Width: 1023
Flags: W
LayerCount: 2
Fore
SplineSet
1023 448 m 256,0,1
 1023 342 1023 342 983 249 c 256,2,3
 943 156 943 156 873.5 86.5 c 128,-1,4
 804 17 804 17 711 -23 c 256,5,6
 618 -63 618 -63 512 -63 c 256,7,8
 406 -63 406 -63 313 -23 c 256,9,10
 220 17 220 17 150.5 86.5 c 128,-1,11
 81 156 81 156 41 249 c 256,12,13
 1 342 1 342 1 448 c 256,14,15
 1 554 1 554 41 647 c 256,16,17
 81 740 81 740 150.5 809.5 c 128,-1,18
 220 879 220 879 313 919 c 256,19,20
 406 959 406 959 512 959 c 256,21,22
 618 959 618 959 711 919 c 256,23,24
 804 879 804 879 873.5 809.5 c 128,-1,25
 943 740 943 740 983 647 c 256,26,27
 1023 554 1023 554 1023 448 c 256,0,1
EndSplineSet
EndChar

StartChar: uniE91E
Encoding: 59678 59678 34
Width: 1023
Flags: W
LayerCount: 2
Fore
SplineSet
466 361 m 1,0,-1
 466 361 l 1,1,2
 459 361 459 361 452.5 363.5 c 128,-1,3
 446 366 446 366 441 371 c 2,4,-1
 350 461 l 2,5,6
 339 472 339 472 339 486.5 c 128,-1,7
 339 501 339 501 350 511 c 0,8,9
 361 522 361 522 375 522 c 128,-1,10
 389 522 389 522 400 511 c 2,11,-1
 466 446 l 1,12,-1
 610 590 l 2,13,14
 620 601 620 601 634.5 601 c 128,-1,15
 649 601 649 601 660 590 c 0,16,17
 670 580 670 580 670 565.5 c 128,-1,18
 670 551 670 551 660 540 c 2,19,-1
 491 371 l 2,20,21
 486 366 486 366 479 363.5 c 128,-1,22
 472 361 472 361 466 361 c 1,23,-1
 466 361 l 1,0,-1
EndSplineSet
EndChar

StartChar: uniE91F
Encoding: 59679 59679 35
Width: 1024
Flags: W
LayerCount: 2
Fore
SplineSet
686 307 m 2,0,-1
 532 138 l 2,1,2
 527 131 527 131 517.5 131 c 128,-1,3
 508 131 508 131 502 138 c 2,4,-1
 335 307 l 2,5,6
 326 317 326 317 331.5 330 c 128,-1,7
 337 343 337 343 351 343 c 2,8,-1
 410 343 l 1,9,-1
 410 745 l 2,10,11
 410 755 410 755 416 760 c 128,-1,12
 422 765 422 765 430 765 c 2,13,-1
 589 765 l 2,14,15
 598 765 598 765 603.5 759 c 128,-1,16
 609 753 609 753 609 745 c 2,17,-1
 609 343 l 1,18,-1
 668 343 l 2,19,20
 684 341 684 341 690 329 c 128,-1,21
 696 317 696 317 686 307 c 2,0,-1
EndSplineSet
EndChar

StartChar: uniE920
Encoding: 59680 59680 36
Width: 1024
Flags: W
LayerCount: 2
Fore
SplineSet
602 -36 m 1,0,-1
 405 -36 l 2,1,2
 397 -36 397 -36 391.5 -30.5 c 128,-1,3
 386 -25 386 -25 386 -17 c 2,4,-1
 386 400 l 1,5,-1
 286 400 l 2,6,7
 277 400 277 400 272 405 c 128,-1,8
 267 410 267 410 267 419 c 2,9,-1
 267 597 l 2,10,11
 267 605 267 605 272 610.5 c 128,-1,12
 277 616 277 616 286 616 c 2,13,-1
 386 616 l 1,14,-1
 386 737 l 2,15,16
 386 738 386 738 389.5 783 c 128,-1,17
 393 828 393 828 430 871 c 0,18,19
 454 899 454 899 488 915 c 128,-1,20
 522 931 522 931 568 934 c 2,21,-1
 738 934 l 2,22,23
 747 934 747 934 752 928.5 c 128,-1,24
 757 923 757 923 757 915 c 2,25,-1
 757 750 l 2,26,27
 757 741 757 741 752 736 c 128,-1,28
 747 731 747 731 738 731 c 2,29,-1
 632 731 l 2,30,31
 625 731 625 731 621 726.5 c 128,-1,32
 617 722 617 722 617 716 c 2,33,-1
 617 614 l 1,34,-1
 738 614 l 2,35,36
 747 614 747 614 752 608.5 c 128,-1,37
 757 603 757 603 757 595 c 2,38,-1
 757 419 l 2,39,40
 757 410 757 410 752 405 c 128,-1,41
 747 400 747 400 738 400 c 2,42,-1
 621 400 l 1,43,-1
 621 -15 l 2,44,45
 621 -25 621 -25 615 -30.5 c 128,-1,46
 609 -36 609 -36 602 -36 c 1,47,-1
 602 -36 l 1,0,-1
424 2 m 1,48,-1
 583 2 l 1,49,-1
 583 417 l 2,50,51
 583 425 583 425 588 430.5 c 128,-1,52
 593 436 593 436 602 436 c 2,53,-1
 719 436 l 1,54,-1
 719 574 l 1,55,-1
 598 574 l 2,56,57
 590 574 590 574 584.5 579 c 128,-1,58
 579 584 579 584 579 593 c 2,59,-1
 579 714 l 2,60,61
 579 737 579 737 595 752 c 128,-1,62
 611 767 611 767 632 767 c 2,63,-1
 719 767 l 1,64,-1
 719 896 l 1,65,-1
 568 896 l 2,66,67
 532 893 532 893 504.5 881 c 128,-1,68
 477 869 477 869 458 846 c 0,69,70
 428 812 428 812 426 775.5 c 128,-1,71
 424 739 424 739 424 739 c 1,72,-1
 424 597 l 2,73,74
 424 588 424 588 419 583 c 128,-1,75
 414 578 414 578 405 578 c 2,76,-1
 305 578 l 1,77,-1
 305 438 l 1,78,-1
 405 438 l 2,79,80
 414 438 414 438 419 432.5 c 128,-1,81
 424 427 424 427 424 419 c 2,82,-1
 424 2 l 1,83,-1
 424 2 l 1,48,-1
494 252 m 1,84,85
 486 252 486 252 480.5 257.5 c 128,-1,86
 475 263 475 263 475 271 c 2,87,-1
 475 305 l 2,88,89
 475 314 475 314 480.5 319 c 128,-1,90
 486 324 486 324 494 324 c 0,91,92
 503 324 503 324 508 319 c 128,-1,93
 513 314 513 314 513 305 c 2,94,-1
 513 271 l 2,95,96
 513 263 513 263 508 257.5 c 128,-1,97
 503 252 503 252 494 252 c 1,98,-1
 494 252 l 1,84,85
494 33 m 1,99,100
 486 33 486 33 480.5 38 c 128,-1,101
 475 43 475 43 475 51 c 2,102,-1
 475 207 l 2,103,104
 475 215 475 215 480.5 220.5 c 128,-1,105
 486 226 486 226 494 226 c 0,106,107
 503 226 503 226 508 220.5 c 128,-1,108
 513 215 513 215 513 207 c 2,109,-1
 513 51 l 2,110,111
 513 43 513 43 508 38 c 128,-1,112
 503 33 503 33 494 33 c 1,113,-1
 494 33 l 1,99,100
EndSplineSet
EndChar

StartChar: uniE921
Encoding: 59681 59681 37
Width: 1013
Flags: W
LayerCount: 2
Fore
SplineSet
378 50 m 1,0,1
 339 50 339 50 298.5 54 c 128,-1,2
 258 58 258 58 216 68 c 0,3,4
 134 86 134 86 80.5 110 c 128,-1,5
 27 134 27 134 26 135 c 0,6,7
 20 138 20 138 18 143 c 128,-1,8
 16 148 16 148 19 154 c 0,9,10
 20 159 20 159 25 163 c 128,-1,11
 30 167 30 167 35 167 c 0,12,13
 104 164 104 164 157 183 c 128,-1,14
 210 202 210 202 238 219 c 1,15,16
 164 255 164 255 139 312 c 128,-1,17
 114 369 114 369 114 372 c 0,18,19
 112 376 112 376 113.5 380 c 128,-1,20
 115 384 115 384 117 387 c 0,21,22
 54 440 54 440 55 506.5 c 128,-1,23
 56 573 56 573 56 575 c 0,24,25
 57 580 57 580 61 584 c 128,-1,26
 65 588 65 588 71 588 c 0,27,28
 72 588 72 588 72.5 588 c 128,-1,29
 73 588 73 588 74 588 c 1,30,31
 30 678 30 678 66 737.5 c 128,-1,32
 102 797 102 797 102 798 c 0,33,34
 105 801 105 801 108 802.5 c 128,-1,35
 111 804 111 804 114 804 c 0,36,37
 116 804 116 804 119.5 802.5 c 128,-1,38
 123 801 123 801 125 798 c 0,39,40
 191 731 191 731 248 694 c 0,41,42
 304 657 304 657 348.5 639.5 c 128,-1,43
 393 622 393 622 423 619 c 256,44,45
 453 616 453 616 467 617 c 1,46,47
 473 715 473 715 511.5 758.5 c 128,-1,48
 550 802 550 802 551 804 c 0,49,50
 593 837 593 837 642.5 845 c 128,-1,51
 692 853 692 853 747 835 c 0,52,53
 776 825 776 825 798.5 811.5 c 128,-1,54
 821 798 821 798 830 791 c 1,55,-1
 940 826 l 2,56,57
 944 827 944 827 949 826 c 128,-1,58
 954 825 954 825 957 822 c 0,59,60
 960 818 960 818 961 814 c 128,-1,61
 962 810 962 810 961 805 c 2,62,-1
 936 748 l 1,63,-1
 976 753 l 2,64,65
 981 753 981 753 985.5 751.5 c 128,-1,66
 990 750 990 750 992 746 c 0,67,68
 995 742 995 742 995 736.5 c 128,-1,69
 995 731 995 731 990 727 c 2,70,-1
 905 606 l 1,71,72
 889 510 889 510 862 430 c 0,73,74
 834 349 834 349 796 285.5 c 128,-1,75
 758 222 758 222 710 175 c 0,76,77
 661 128 661 128 601 98 c 0,78,79
 552 74 552 74 495.5 62 c 128,-1,80
 439 50 439 50 378 50 c 1,81,-1
 378 50 l 1,0,1
104 137 m 1,82,83
 143 122 143 122 198 107 c 0,84,85
 254 91 254 91 319 85 c 128,-1,86
 384 79 384 79 453 87 c 0,87,88
 523 95 523 95 588 128 c 0,89,90
 644 156 644 156 690 200 c 0,91,92
 736 245 736 245 772 306 c 128,-1,93
 808 367 808 367 833 445 c 0,94,95
 859 522 859 522 873 616 c 0,96,97
 873 617 873 617 874.5 619.5 c 128,-1,98
 876 622 876 622 877 623 c 2,99,-1
 944 712 l 1,100,-1
 916 709 l 2,101,102
 912 709 912 709 908 710 c 128,-1,103
 904 711 904 711 901 714 c 0,104,105
 898 718 898 718 898 722.5 c 128,-1,106
 898 727 898 727 899 731 c 2,107,-1
 920 781 l 1,108,-1
 834 755 l 2,109,110
 830 754 830 754 826 755 c 128,-1,111
 822 756 822 756 817 759 c 0,112,113
 815 760 815 760 793 776 c 0,114,115
 770 792 770 792 735.5 803.5 c 128,-1,116
 701 815 701 815 659 813 c 0,117,118
 616 811 616 811 573 776 c 0,119,120
 571 774 571 774 537 734.5 c 128,-1,121
 503 695 503 695 503 603 c 0,122,123
 503 597 503 597 499 593 c 128,-1,124
 495 589 495 589 490 588 c 0,125,126
 488 586 488 586 460 583 c 256,127,128
 432 580 432 580 383 592.5 c 128,-1,129
 334 605 334 605 266 643 c 0,130,131
 198 680 198 680 115 761 c 1,132,133
 100 740 100 740 86.5 688 c 128,-1,134
 73 636 73 636 125 567 c 0,135,136
 128 563 128 563 128 558 c 128,-1,137
 128 553 128 553 125 549 c 0,138,139
 122 544 122 544 117 542 c 128,-1,140
 112 540 112 540 108 541 c 0,141,142
 101 542 101 542 95.5 543.5 c 128,-1,143
 90 545 90 545 86 547 c 1,144,145
 84 517 84 517 97 467 c 128,-1,146
 110 417 110 417 171 387 c 0,147,148
 177 384 177 384 179.5 379 c 128,-1,149
 182 374 182 374 181 368 c 0,150,151
 179 362 179 362 175 358.5 c 128,-1,152
 171 355 171 355 166 355 c 0,153,154
 163 355 163 355 159 355 c 128,-1,155
 155 355 155 355 153 355 c 1,156,157
 164 330 164 330 193 293 c 128,-1,158
 222 256 222 256 279 238 c 0,159,160
 283 236 283 236 286 232.5 c 128,-1,161
 289 229 289 229 290 225 c 0,162,163
 292 220 292 220 290 215.5 c 128,-1,164
 288 211 288 211 285 208 c 256,165,166
 282 205 282 205 232 176.5 c 128,-1,167
 182 148 182 148 104 137 c 1,168,-1
 104 137 l 1,82,83
166 621 m 1,169,170
 163 621 163 621 160 622 c 128,-1,171
 157 623 157 623 155 625 c 0,172,173
 150 628 150 628 147 632 c 128,-1,174
 144 636 144 636 140 640 c 0,175,176
 135 645 135 645 135 651.5 c 128,-1,177
 135 658 135 658 140 664 c 0,178,179
 145 668 145 668 151.5 668 c 128,-1,180
 158 668 158 668 164 664 c 0,181,182
 167 661 167 661 170.5 657.5 c 128,-1,183
 174 654 174 654 177 651 c 0,184,185
 182 647 182 647 182 639.5 c 128,-1,186
 182 632 182 632 177 627 c 0,187,188
 175 624 175 624 172.5 622.5 c 128,-1,189
 170 621 170 621 166 621 c 1,190,-1
 166 621 l 1,169,170
441 506 m 1,191,192
 441 506 441 506 441 506 c 129,-1,193
 441 506 441 506 441 506 c 1,194,195
 437 506 437 506 364.5 518.5 c 128,-1,196
 292 531 292 531 212 580 c 0,197,198
 207 584 207 584 205.5 590.5 c 128,-1,199
 204 597 204 597 207 603 c 0,200,201
 211 608 211 608 217 609.5 c 128,-1,202
 223 611 223 611 229 608 c 0,203,204
 303 562 303 562 372 549.5 c 128,-1,205
 441 537 441 537 441 537 c 2,206,207
 448 537 448 537 453 531.5 c 128,-1,208
 458 526 458 526 456 521 c 0,209,210
 458 515 458 515 453 510.5 c 128,-1,211
 448 506 448 506 441 506 c 1,191,192
EndSplineSet
EndChar

StartChar: uniE922
Encoding: 59682 59682 38
Width: 519
Flags: W
LayerCount: 2
Fore
SplineSet
374 746 m 1,0,-1
 477 746 l 1,1,-1
 477 907 l 1,2,-1
 313 907 l 1,3,4
 248 902 248 902 215 874 c 256,5,6
 182 846 182 846 169 815 c 128,-1,7
 156 784 156 784 155 759 c 0,8,9
 155 733 155 733 155 733 c 1,10,-1
 155 597 l 1,11,-1
 39 597 l 1,12,-1
 39 426 l 1,13,-1
 155 426 l 1,14,-1
 155 0 l 1,15,-1
 346 0 l 1,16,-1
 346 424 l 1,17,-1
 479 424 l 1,18,-1
 479 595 l 1,19,-1
 343 595 l 1,20,-1
 343 713 l 2,21,22
 340 727 340 727 350 736.5 c 128,-1,23
 360 746 360 746 374 746 c 1,24,-1
 374 746 l 1,0,-1
258 69 m 2,25,26
 258 60 258 60 253 55 c 128,-1,27
 248 50 248 50 239 50 c 0,28,29
 231 50 231 50 226 55 c 128,-1,30
 221 60 221 60 221 69 c 2,31,-1
 221 220 l 2,32,33
 221 228 221 228 226 233 c 128,-1,34
 231 238 231 238 239 238 c 0,35,36
 248 238 248 238 253 233 c 128,-1,37
 258 228 258 228 258 220 c 2,38,-1
 258 69 l 2,25,26
258 282 m 2,39,40
 258 274 258 274 253 269 c 128,-1,41
 248 264 248 264 239 264 c 0,42,43
 231 264 231 264 226 269 c 128,-1,44
 221 274 221 274 221 282 c 2,45,-1
 221 315 l 2,46,47
 221 324 221 324 226 329 c 128,-1,48
 231 334 231 334 239 334 c 0,49,50
 248 334 248 334 253 329 c 128,-1,51
 258 324 258 324 258 315 c 2,52,-1
 258 282 l 2,39,40
EndSplineSet
EndChar

StartChar: uniE923
Encoding: 59683 59683 39
Width: 1002
Flags: W
LayerCount: 2
Fore
SplineSet
500 -37 m 0,0,1
 400 -37 400 -37 312 1 c 0,2,3
 223 39 223 39 157.5 105 c 128,-1,4
 92 171 92 171 53 259 c 0,5,6
 15 348 15 348 15 449 c 0,7,8
 15 549 15 549 53 638 c 0,9,10
 92 726 92 726 157.5 792 c 128,-1,11
 223 858 223 858 312 896 c 0,12,13
 400 934 400 934 500 934 c 0,14,15
 601 934 601 934 689 895 c 0,16,17
 777 857 777 857 843 791 c 128,-1,18
 909 725 909 725 947 637 c 0,19,20
 986 549 986 549 986 449 c 0,21,22
 986 348 986 348 947 260 c 0,23,24
 909 172 909 172 843.5 106 c 128,-1,25
 778 40 778 40 689 2 c 0,26,27
 601 -37 601 -37 500 -37 c 0,0,1
500 904 m 1,28,29
 406 904 406 904 323 868 c 0,30,31
 240 833 240 833 178 771 c 128,-1,32
 116 709 116 709 80 626 c 0,33,34
 45 543 45 543 45 449 c 0,35,36
 45 354 45 354 80 271 c 0,37,38
 116 188 116 188 178 126.5 c 128,-1,39
 240 65 240 65 323 29 c 256,40,41
 406 -7 406 -7 500 -7 c 0,42,43
 595 -7 595 -7 678 29 c 256,44,45
 761 65 761 65 822.5 126.5 c 128,-1,46
 884 188 884 188 920 271 c 256,47,48
 956 354 956 354 956 449 c 0,49,50
 957 543 957 543 921 626 c 256,51,52
 885 709 885 709 823 771 c 128,-1,53
 761 833 761 833 678 868 c 0,54,55
 595 904 595 904 500 904 c 1,56,-1
 500 904 l 1,28,29
498 107 m 0,57,58
 474 107 474 107 457 124.5 c 128,-1,59
 440 142 440 142 440 166 c 256,60,61
 440 190 440 190 457 207.5 c 128,-1,62
 474 225 474 225 498 225 c 0,63,64
 523 225 523 225 540 207.5 c 128,-1,65
 557 190 557 190 557 166 c 256,66,67
 557 142 557 142 540 124.5 c 128,-1,68
 523 107 523 107 498 107 c 0,57,58
498 196 m 1,69,70
 486 196 486 196 477.5 187.5 c 128,-1,71
 469 179 469 179 469 167 c 256,72,73
 469 155 469 155 477.5 146.5 c 128,-1,74
 486 138 486 138 498 138 c 256,75,76
 510 138 510 138 519 146.5 c 128,-1,77
 528 155 528 155 528 167 c 256,78,79
 528 179 528 179 519 187.5 c 128,-1,80
 510 196 510 196 498 196 c 1,81,-1
 498 196 l 1,69,70
835 213 m 1,82,83
 832 213 832 213 830 213.5 c 128,-1,84
 828 214 828 214 826 215 c 0,85,86
 821 218 821 218 820 223.5 c 128,-1,87
 819 229 819 229 822 235 c 0,88,89
 841 263 841 263 854.5 293.5 c 128,-1,90
 868 324 868 324 875 356 c 0,91,92
 877 362 877 362 882 365 c 128,-1,93
 887 368 887 368 892 367 c 0,94,95
 898 366 898 366 901.5 361 c 128,-1,96
 905 356 905 356 903 350 c 0,97,98
 895 315 895 315 881 282.5 c 128,-1,99
 867 250 867 250 847 220 c 0,100,101
 844 217 844 217 841 215 c 128,-1,102
 838 213 838 213 835 213 c 1,103,-1
 835 213 l 1,82,83
900 415 m 1,104,105
 900 415 900 415 900 415 c 129,-1,106
 900 415 900 415 900 415 c 1,107,108
 894 415 894 415 889.5 419.5 c 128,-1,109
 885 424 885 424 886 430 c 0,110,111
 886 435 886 435 886 439.5 c 128,-1,112
 886 444 886 444 886 449 c 0,113,114
 886 455 886 455 890 459 c 128,-1,115
 894 463 894 463 900 463 c 0,116,117
 907 463 907 463 911 459 c 128,-1,118
 915 455 915 455 915 449 c 0,119,120
 915 444 915 444 915 439 c 128,-1,121
 915 434 915 434 915 429 c 0,122,123
 915 423 915 423 911 419 c 128,-1,124
 907 415 907 415 900 415 c 1,104,105
502 242 m 1,125,-1
 498 242 l 2,126,127
 482 242 482 242 469.5 254 c 128,-1,128
 457 266 457 266 457 283 c 2,129,-1
 457 382 l 2,130,131
 457 406 457 406 471 416.5 c 128,-1,132
 485 427 485 427 495 428 c 0,133,134
 496 428 496 428 496.5 428 c 128,-1,135
 497 428 497 428 497 428 c 2,136,137
 524 428 524 428 542.5 446.5 c 128,-1,138
 561 465 561 465 561 492 c 256,139,140
 561 519 561 519 542.5 537.5 c 128,-1,141
 524 556 524 556 497 556 c 0,142,143
 472 556 472 556 453 538 c 128,-1,144
 434 520 434 520 432 495 c 0,145,146
 432 486 432 486 428 477 c 128,-1,147
 424 468 424 468 416 461 c 0,148,149
 409 454 409 454 399.5 450.5 c 128,-1,150
 390 447 390 447 381 447 c 0,151,152
 362 449 362 449 349.5 462 c 128,-1,153
 337 475 337 475 336 492 c 0,154,155
 337 559 337 559 384 606.5 c 128,-1,156
 431 654 431 654 498 654 c 256,157,158
 565 654 565 654 612.5 606.5 c 128,-1,159
 660 559 660 559 660 492 c 0,160,161
 660 438 660 438 627.5 394.5 c 128,-1,162
 595 351 595 351 543 336 c 1,163,-1
 543 282 l 2,164,165
 543 266 543 266 531 254 c 128,-1,166
 519 242 519 242 502 242 c 1,167,-1
 502 242 l 1,125,-1
499 399 m 1,168,169
 496 398 496 398 491 394.5 c 128,-1,170
 486 391 486 391 486 381 c 2,171,-1
 486 282 l 2,172,173
 486 278 486 278 489.5 274 c 128,-1,174
 493 270 493 270 498 270 c 2,175,-1
 502 270 l 2,176,177
 507 270 507 270 511 273.5 c 128,-1,178
 515 277 515 277 515 282 c 2,179,-1
 515 347 l 2,180,181
 515 353 515 353 518 357 c 128,-1,182
 521 361 521 361 526 361 c 0,183,184
 571 371 571 371 601 408 c 128,-1,185
 631 445 631 445 631 491 c 0,186,187
 631 546 631 546 592 585 c 128,-1,188
 553 624 553 624 498 624 c 0,189,190
 444 624 444 624 405 585.5 c 128,-1,191
 366 547 366 547 366 492 c 0,192,193
 366 485 366 485 372 481 c 128,-1,194
 378 477 378 477 384 477 c 0,195,196
 387 477 387 477 390.5 478.5 c 128,-1,197
 394 480 394 480 397 482 c 0,198,199
 400 485 400 485 402 488.5 c 128,-1,200
 404 492 404 492 404 495 c 0,201,202
 406 533 406 533 433 558.5 c 128,-1,203
 460 584 460 584 497 584 c 0,204,205
 536 584 536 584 563 557 c 128,-1,206
 590 530 590 530 590 491 c 0,207,208
 590 454 590 454 563.5 427 c 128,-1,209
 537 400 537 400 499 399 c 1,210,-1
 499 399 l 1,168,169
EndSplineSet
EndChar

StartChar: uniE924
Encoding: 59684 59684 40
Width: 1002
Flags: W
LayerCount: 2
Fore
SplineSet
453 405 m 1,0,-1
 453 826 l 1,1,2
 365 826 365 826 289 793 c 0,3,4
 212 760 212 760 154.5 703 c 128,-1,5
 97 646 97 646 64 569 c 256,6,7
 31 492 31 492 31 405 c 256,8,9
 31 318 31 318 64 241 c 256,10,11
 97 164 97 164 154.5 107 c 128,-1,12
 212 50 212 50 289 16 c 0,13,14
 365 -17 365 -17 453 -17 c 0,15,16
 540 -17 540 -17 617 16 c 0,17,18
 693 50 693 50 750.5 107 c 128,-1,19
 808 164 808 164 841 241 c 256,20,21
 874 318 874 318 874 405 c 1,22,23
 874 405 874 405 808 405 c 0,24,25
 743 405 743 405 663.5 405 c 128,-1,26
 584 405 584 405 519 405 c 0,27,28
 453 405 453 405 453 405 c 1,29,-1
 453 405 l 1,0,-1
549 913 m 1,30,31
 637 913 637 913 713 880 c 0,32,33
 790 846 790 846 847.5 789 c 128,-1,34
 905 732 905 732 938 655 c 256,35,36
 971 578 971 578 971 491 c 1,37,-1
 549 491 l 1,38,-1
 549 913 l 1,30,31
EndSplineSet
EndChar

StartChar: uniE925
Encoding: 59685 59685 41
Width: 1013
Flags: W
LayerCount: 2
Fore
SplineSet
512 405 m 1,0,1
 474 405 474 405 440 426 c 256,2,3
 406 447 406 447 381 479.5 c 128,-1,4
 356 512 356 512 342 552 c 256,5,6
 328 592 328 592 328 630 c 0,7,8
 328 707 328 707 382.5 761 c 128,-1,9
 437 815 437 815 512 815 c 256,10,11
 587 815 587 815 641.5 760.5 c 128,-1,12
 696 706 696 706 696 630 c 0,13,14
 696 592 696 592 682 552 c 256,15,16
 668 512 668 512 643 479.5 c 128,-1,17
 618 447 618 447 584 426 c 256,18,19
 550 405 550 405 512 405 c 1,20,-1
 512 405 l 1,0,1
512 785 m 1,21,22
 448 785 448 785 402.5 740 c 128,-1,23
 357 695 357 695 357 630 c 256,24,25
 357 565 357 565 403 501 c 128,-1,26
 449 437 449 437 512 437 c 256,27,28
 575 437 575 437 621 501 c 128,-1,29
 667 565 667 565 667 630 c 256,30,31
 667 695 667 695 621.5 740 c 128,-1,32
 576 785 576 785 512 785 c 1,33,-1
 512 785 l 1,21,22
499 31 m 0,34,35
 465 31 465 31 428 37 c 0,36,37
 392 43 392 43 353.5 57 c 128,-1,38
 315 71 315 71 276 94 c 0,39,40
 236 117 236 117 195 150 c 0,41,42
 193 153 193 153 191.5 155.5 c 128,-1,43
 190 158 190 158 190 161 c 0,44,45
 190 162 190 162 193 193 c 0,46,47
 195 224 195 224 212 267.5 c 128,-1,48
 229 311 229 311 265 357 c 0,49,50
 300 404 300 404 367 435 c 0,51,52
 371 436 371 436 376 436 c 128,-1,53
 381 436 381 436 384 433 c 0,54,55
 386 432 386 432 408 416 c 256,56,57
 430 400 430 400 465 390 c 128,-1,58
 500 380 500 380 545 385 c 0,59,60
 589 391 589 391 635 433 c 0,61,62
 639 436 639 436 643 437 c 128,-1,63
 647 438 647 438 652 435 c 0,64,65
 654 434 654 434 683 415 c 0,66,67
 712 397 712 397 743.5 362.5 c 128,-1,68
 775 328 775 328 799 277 c 0,69,70
 822 227 822 227 815 161 c 0,71,72
 815 158 815 158 814 155.5 c 128,-1,73
 813 153 813 153 810 152 c 0,74,75
 810 151 810 151 787 131 c 0,76,77
 764 112 764 112 723 90 c 128,-1,78
 682 68 682 68 625 49 c 0,79,80
 567 31 567 31 499 31 c 0,34,35
222 169 m 1,81,82
 268 131 268 131 317 107 c 0,83,84
 365 82 365 82 414.5 71 c 128,-1,85
 464 60 464 60 515 62 c 0,86,87
 565 64 565 64 616 79 c 0,88,89
 683 99 683 99 728 129 c 128,-1,90
 773 159 773 159 784 171 c 1,91,92
 788 219 788 219 772 259 c 0,93,94
 755 298 755 298 731.5 327.5 c 128,-1,95
 708 357 708 357 683 376 c 0,96,97
 659 395 659 395 646 403 c 1,98,99
 601 365 601 365 557 357 c 256,100,101
 513 349 513 349 475.5 356 c 128,-1,102
 438 363 438 363 411 379 c 0,103,104
 383 394 383 394 371 403 c 1,105,106
 322 377 322 377 293 342 c 0,107,108
 263 307 263 307 247.5 272 c 128,-1,109
 232 237 232 237 227 209 c 256,110,111
 222 181 222 181 222 169 c 1,112,-1
 222 169 l 1,81,82
724 498 m 1,113,114
 705 498 705 498 686.5 504 c 128,-1,115
 668 510 668 510 650 522 c 1,116,-1
 668 549 l 1,117,118
 682 539 682 539 696 534.5 c 128,-1,119
 710 530 710 530 724 530 c 0,120,121
 779 530 779 530 818.5 586 c 128,-1,122
 858 642 858 642 858 699 c 0,123,124
 858 754 858 754 819 793.5 c 128,-1,125
 780 833 780 833 724 833 c 0,126,127
 689 833 689 833 659 816 c 128,-1,128
 629 799 629 799 611 770 c 1,129,-1
 583 787 l 1,130,131
 605 823 605 823 643 844 c 128,-1,132
 681 865 681 865 724 865 c 0,133,134
 793 865 793 865 841.5 816.5 c 128,-1,135
 890 768 890 768 890 699 c 0,136,137
 890 665 890 665 877 629 c 0,138,139
 864 594 864 594 841.5 564.5 c 128,-1,140
 819 535 819 535 789 517 c 0,141,142
 758 498 758 498 724 498 c 1,143,-1
 724 498 l 1,113,114
849 193 m 1,144,145
 845 193 845 193 840 196 c 128,-1,146
 835 199 835 199 834 204 c 0,147,148
 831 210 831 210 834.5 216 c 128,-1,149
 838 222 838 222 843 225 c 0,150,151
 891 243 891 243 922 264 c 128,-1,152
 953 285 953 285 963 293 c 1,153,154
 970 377 970 377 918.5 428 c 128,-1,155
 867 479 867 479 843 493 c 1,156,157
 779 438 779 438 719 448 c 128,-1,158
 659 458 659 458 626 478 c 0,159,160
 620 481 620 481 618 488 c 128,-1,161
 616 495 616 495 620 500 c 0,162,163
 623 506 623 506 630 508 c 128,-1,164
 637 510 637 510 642 506 c 0,165,166
 677 486 677 486 728 481.5 c 128,-1,167
 779 477 779 477 830 524 c 0,168,169
 835 527 835 527 840 528 c 128,-1,170
 845 529 845 529 849 526 c 0,171,172
 852 525 852 525 877 509 c 0,173,174
 903 492 903 492 931 461.5 c 128,-1,175
 959 431 959 431 980 386 c 0,176,177
 1000 341 1000 341 994 282 c 0,178,179
 994 280 994 280 992.5 277 c 128,-1,180
 991 274 991 274 989 273 c 256,181,182
 987 272 987 272 951.5 244.5 c 128,-1,183
 916 217 916 217 855 193 c 0,184,185
 853 194 853 194 851.5 193.5 c 128,-1,186
 850 193 850 193 849 193 c 1,187,-1
 849 193 l 1,144,145
289 498 m 1,188,189
 254 498 254 498 224 517 c 0,190,191
 194 535 194 535 171.5 564.5 c 128,-1,192
 149 594 149 594 136 629 c 0,193,194
 123 665 123 665 123 699 c 0,195,196
 123 768 123 768 171.5 816.5 c 128,-1,197
 220 865 220 865 289 865 c 0,198,199
 332 865 332 865 369 844 c 128,-1,200
 406 823 406 823 430 787 c 1,201,-1
 402 770 l 1,202,203
 384 799 384 799 353.5 816 c 128,-1,204
 323 833 323 833 289 833 c 0,205,206
 234 833 234 833 194.5 794 c 128,-1,207
 155 755 155 755 155 699 c 0,208,209
 155 642 155 642 194.5 586 c 128,-1,210
 234 530 234 530 289 530 c 0,211,212
 303 530 303 530 316.5 534.5 c 128,-1,213
 330 539 330 539 344 549 c 1,214,-1
 363 522 l 1,215,216
 345 510 345 510 326.5 504 c 128,-1,217
 308 498 308 498 289 498 c 1,218,-1
 289 498 l 1,188,189
171 191 m 1,219,220
 170 191 170 191 168.5 191.5 c 128,-1,221
 167 192 167 192 166 193 c 2,222,-1
 160 195 l 2,223,224
 153 196 153 196 150.5 202 c 128,-1,225
 148 208 148 208 151 215 c 0,226,227
 154 221 154 221 160 224 c 128,-1,228
 166 227 166 227 171 225 c 2,229,-1
 177 223 l 2,230,231
 184 220 184 220 186.5 214 c 128,-1,232
 189 208 189 208 186 202 c 0,233,234
 185 197 185 197 180 194 c 128,-1,235
 175 191 175 191 171 191 c 1,236,-1
 171 191 l 1,219,220
127 210 m 1,237,238
 125 210 125 210 123 210 c 128,-1,239
 121 210 121 210 119 212 c 0,240,241
 74 234 74 234 50 253.5 c 128,-1,242
 26 273 26 273 24 275 c 0,243,244
 21 276 21 276 20 278.5 c 128,-1,245
 19 281 19 281 19 284 c 0,246,247
 12 343 12 343 32 388 c 0,248,249
 53 433 53 433 81.5 463.5 c 128,-1,250
 110 494 110 494 135 510 c 0,251,252
 161 527 161 527 164 528 c 0,253,254
 168 531 168 531 173 530 c 128,-1,255
 178 529 178 529 182 526 c 0,256,257
 236 477 236 477 286 482 c 128,-1,258
 336 487 336 487 371 508 c 0,259,260
 376 510 376 510 382.5 509 c 128,-1,261
 389 508 389 508 393 502 c 0,262,263
 396 496 396 496 394.5 490 c 128,-1,264
 393 484 393 484 387 480 c 0,265,266
 354 460 354 460 294 450.5 c 128,-1,267
 234 441 234 441 169 495 c 1,268,269
 146 481 146 481 94.5 429.5 c 128,-1,270
 43 378 43 378 50 295 c 1,271,272
 59 288 59 288 80.5 272.5 c 128,-1,273
 102 257 102 257 134 241 c 0,274,275
 140 239 140 239 142 232.5 c 128,-1,276
 144 226 144 226 142 219 c 0,277,278
 139 215 139 215 135 212.5 c 128,-1,279
 131 210 131 210 127 210 c 1,280,-1
 127 210 l 1,237,238
EndSplineSet
EndChar

StartChar: uniE926
Encoding: 59686 59686 42
Width: 1360
Flags: W
LayerCount: 2
Fore
SplineSet
505 415 m 1,0,1
 505 415 505 415 534 394 c 256,2,3
 563 373 563 373 610 358.5 c 128,-1,4
 657 344 657 344 717 351 c 256,5,6
 777 358 777 358 838 415 c 1,7,8
 838 415 838 415 871 394 c 256,9,10
 904 373 904 373 941.5 333 c 128,-1,11
 979 293 979 293 1008 234 c 0,12,13
 1036 174 1036 174 1028 97 c 1,14,15
 1028 97 1028 97 968 52 c 0,16,17
 909 7 909 7 808.5 -23 c 128,-1,18
 708 -53 708 -53 576 -38 c 256,19,20
 444 -23 444 -23 298 97 c 1,21,22
 298 97 298 97 301 133 c 256,23,24
 304 169 304 169 323.5 219 c 128,-1,25
 343 269 343 269 385 324 c 0,26,27
 427 378 427 378 505 415 c 1,0,1
441 538 m 1,28,29
 444 528 444 528 427 529.5 c 128,-1,30
 410 531 410 531 399 531 c 0,31,32
 361 531 361 531 328 552 c 256,33,34
 295 573 295 573 270 606 c 128,-1,35
 245 639 245 639 231 679 c 256,36,37
 217 719 217 719 217 757 c 0,38,39
 217 832 217 832 270 886.5 c 128,-1,40
 323 941 323 941 399 941 c 0,41,42
 439 941 439 941 473.5 925 c 128,-1,43
 508 909 508 909 534 882 c 1,44,45
 534 882 534 882 507 866 c 0,46,47
 481 850 481 850 455.5 810.5 c 128,-1,48
 430 771 430 771 419 705 c 0,49,50
 409 639 409 639 441 538 c 1,51,-1
 441 538 l 1,28,29
426 476 m 0,52,53
 465 500 465 500 397 481 c 128,-1,54
 329 462 329 462 255 531 c 1,55,56
 255 531 255 531 226 512 c 0,57,58
 196 494 196 494 163 458.5 c 128,-1,59
 130 423 130 423 105 371 c 256,60,61
 80 319 80 319 87 251 c 1,62,63
 87 251 87 251 129 212 c 128,-1,64
 171 173 171 173 224 147 c 1,65,66
 224 147 224 147 223 178 c 0,67,68
 221 210 221 210 236.5 258 c 128,-1,69
 252 306 252 306 295 364 c 0,70,71
 337 422 337 422 426 476 c 0,52,53
882 673 m 0,72,73
 882 630 882 630 865 584 c 0,74,75
 849 538 849 538 820.5 500.5 c 128,-1,76
 792 463 792 463 754 439 c 256,77,78
 716 415 716 415 673 415 c 0,79,80
 629 415 629 415 591 439 c 256,81,82
 553 463 553 463 524.5 500.5 c 128,-1,83
 496 538 496 538 480 584 c 256,84,85
 464 630 464 630 464 673 c 0,86,87
 464 717 464 717 480 755 c 256,88,89
 496 793 496 793 524.5 821 c 128,-1,90
 553 849 553 849 591 866 c 0,91,92
 629 882 629 882 673 882 c 0,93,94
 716 882 716 882 754 866 c 0,95,96
 792 849 792 849 820.5 821 c 128,-1,97
 849 793 849 793 865 755 c 0,98,99
 882 717 882 717 882 673 c 0,72,73
908 538 m 1,100,101
 905 528 905 528 922 529.5 c 128,-1,102
 939 531 939 531 950 531 c 0,103,104
 988 531 988 531 1021 552 c 256,105,106
 1054 573 1054 573 1079 606 c 128,-1,107
 1104 639 1104 639 1118 679 c 256,108,109
 1132 719 1132 719 1132 757 c 0,110,111
 1132 832 1132 832 1078.5 886.5 c 128,-1,112
 1025 941 1025 941 948 941 c 0,113,114
 908 941 908 941 873.5 925 c 128,-1,115
 839 909 839 909 813 882 c 1,116,117
 814 882 814 882 841 866 c 0,118,119
 867 850 867 850 892.5 810.5 c 128,-1,120
 918 771 918 771 929 705 c 0,121,122
 939 639 939 639 908 538 c 1,123,-1
 908 538 l 1,100,101
901 476 m 1,124,125
 901 476 901 476 963.5 477.5 c 128,-1,126
 1026 479 1026 479 1106 517 c 1,127,128
 1106 517 1106 517 1135 499 c 256,129,130
 1164 481 1164 481 1197 445.5 c 128,-1,131
 1230 410 1230 410 1256 358 c 0,132,133
 1281 306 1281 306 1273 238 c 1,134,135
 1273 238 1273 238 1231 198.5 c 128,-1,136
 1189 159 1189 159 1136 134 c 1,137,138
 1136 134 1136 134 1137 170 c 0,139,140
 1138 207 1138 207 1119.5 260 c 128,-1,141
 1101 313 1101 313 1051 372 c 0,142,143
 1002 431 1002 431 901 476 c 1,144,-1
 901 476 l 1,124,125
EndSplineSet
EndChar

StartChar: uniE927
Encoding: 59687 59687 43
Width: 1002
Flags: W
LayerCount: 2
Fore
SplineSet
501 930 m 1,0,1
 401 930 401 930 314 892 c 0,2,3
 226 854 226 854 160.5 788.5 c 128,-1,4
 95 723 95 723 57 635 c 0,5,6
 20 547 20 547 20 447 c 0,7,8
 20 348 20 348 57 260 c 0,9,10
 95 172 95 172 160.5 107 c 128,-1,11
 226 42 226 42 314 4 c 0,12,13
 401 -34 401 -34 501 -34 c 256,14,15
 601 -34 601 -34 689 4 c 0,16,17
 776 42 776 42 841.5 107 c 128,-1,18
 907 172 907 172 945 260 c 256,19,20
 983 348 983 348 983 447 c 0,21,22
 983 547 983 547 945 635 c 256,23,24
 907 723 907 723 841.5 788.5 c 128,-1,25
 776 854 776 854 689 892 c 0,26,27
 601 930 601 930 501 930 c 1,28,-1
 501 930 l 1,0,1
666 634 m 0,29,30
 695 634 695 634 716 613 c 128,-1,31
 737 592 737 592 737 563 c 0,32,33
 737 533 737 533 716 512 c 128,-1,34
 695 491 695 491 666 491 c 0,35,36
 636 491 636 491 615 512 c 128,-1,37
 594 533 594 533 594 563 c 0,38,39
 594 592 594 592 615 613 c 128,-1,40
 636 634 636 634 666 634 c 0,29,30
332 634 m 0,41,42
 361 634 361 634 382 613 c 128,-1,43
 403 592 403 592 403 563 c 0,44,45
 403 533 403 533 382 512 c 128,-1,46
 361 491 361 491 332 491 c 0,47,48
 302 491 302 491 281 512 c 128,-1,49
 260 533 260 533 260 563 c 0,50,51
 260 592 260 592 280.5 613 c 128,-1,52
 301 634 301 634 332 634 c 0,41,42
499 157 m 0,53,54
 447 157 447 157 401 174 c 0,55,56
 354 190 354 190 316 219 c 128,-1,57
 278 248 278 248 251 288 c 0,58,59
 223 328 223 328 210 375 c 1,60,61
 236 345 236 345 269 322 c 0,62,63
 301 299 301 299 338 282.5 c 128,-1,64
 375 266 375 266 416 257 c 0,65,66
 456 248 456 248 499 248 c 256,67,68
 542 248 542 248 582 257 c 256,69,70
 622 266 622 266 659 282.5 c 128,-1,71
 696 299 696 299 729 322 c 0,72,73
 761 345 761 345 788 375 c 1,74,75
 774 327 774 327 747 287 c 0,76,77
 719 247 719 247 681 218.5 c 128,-1,78
 643 190 643 190 597 173 c 0,79,80
 550 157 550 157 499 157 c 0,53,54
EndSplineSet
EndChar

StartChar: uniE928
Encoding: 59688 59688 44
Width: 1780
Flags: W
LayerCount: 2
Fore
SplineSet
272 517 m 2,0,-1
 43 517 l 2,1,2
 34 517 34 517 28 523 c 128,-1,3
 22 529 22 529 22 537 c 256,4,5
 22 545 22 545 28 551.5 c 128,-1,6
 34 558 34 558 43 558 c 2,7,-1
 272 558 l 2,8,9
 280 558 280 558 286 551.5 c 128,-1,10
 292 545 292 545 292 537 c 256,11,12
 292 529 292 529 286 523 c 128,-1,13
 280 517 280 517 272 517 c 2,0,-1
388 322 m 2,14,-1
 187 322 l 2,15,16
 178 322 178 322 172 328 c 128,-1,17
 166 334 166 334 166 342 c 0,18,19
 166 351 166 351 172 357 c 128,-1,20
 178 363 178 363 187 363 c 2,21,-1
 388 363 l 2,22,23
 397 363 397 363 403 357 c 128,-1,24
 409 351 409 351 409 342 c 0,25,26
 409 334 409 334 403 328 c 128,-1,27
 397 322 397 322 388 322 c 2,14,-1
320 71 m 2,28,-1
 66 71 l 2,29,30
 58 71 58 71 51.5 77 c 128,-1,31
 45 83 45 83 45 91 c 256,32,33
 45 99 45 99 51.5 105.5 c 128,-1,34
 58 112 58 112 66 112 c 2,35,-1
 320 112 l 2,36,37
 328 112 328 112 334 105.5 c 128,-1,38
 340 99 340 99 340 91 c 256,39,40
 340 83 340 83 334 77 c 128,-1,41
 328 71 328 71 320 71 c 2,28,-1
804 647 m 0,42,43
 804 639 804 639 798 632.5 c 128,-1,44
 792 626 792 626 784 626 c 0,45,46
 775 626 775 626 769 632.5 c 128,-1,47
 763 639 763 639 763 647 c 0,48,49
 763 656 763 656 769 662 c 128,-1,50
 775 668 775 668 784 668 c 0,51,52
 792 668 792 668 798 662 c 128,-1,53
 804 656 804 656 804 647 c 0,42,43
1695 926 m 1,54,-1
 527 926 l 2,55,56
 509 926 509 926 496 912.5 c 128,-1,57
 483 899 483 899 483 882 c 2,58,-1
 483 17 l 2,59,60
 483 -2 483 -2 496.5 -14.5 c 128,-1,61
 510 -27 510 -27 527 -27 c 2,62,-1
 1261 -27 l 2,63,64
 1270 -27 1270 -27 1276 -21 c 128,-1,65
 1282 -15 1282 -15 1282 -6 c 0,66,67
 1282 2 1282 2 1276 7.5 c 128,-1,68
 1270 13 1270 13 1261 13 c 1,69,-1
 1261 13 l 1,70,-1
 1261 13 l 1,71,-1
 553 13 l 1,72,-1
 983 432 l 1,73,-1
 1095 327 l 2,74,75
 1098 324 1098 324 1102 323 c 128,-1,76
 1106 322 1106 322 1109 322 c 256,77,78
 1112 322 1112 322 1116 323 c 128,-1,79
 1120 324 1120 324 1123 327 c 2,80,-1
 1224 421 l 1,81,-1
 1666 13 l 1,82,-1
 1454 13 l 2,83,84
 1445 13 1445 13 1439 7 c 128,-1,85
 1433 1 1433 1 1433 -8 c 0,86,87
 1433 -16 1433 -16 1439 -22 c 128,-1,88
 1445 -28 1445 -28 1454 -28 c 2,89,-1
 1695 -28 l 2,90,91
 1714 -28 1714 -28 1726.5 -15 c 128,-1,92
 1739 -2 1739 -2 1739 16 c 2,93,-1
 1739 880 l 2,94,95
 1739 899 1739 899 1726.5 912.5 c 128,-1,96
 1714 926 1714 926 1695 926 c 1,97,-1
 1695 926 l 1,54,-1
1110 370 m 1,98,-1
 868 596 l 2,99,100
 861 601 861 601 852 601 c 128,-1,101
 843 601 843 601 837 595 c 256,102,103
 831 589 831 589 832 580 c 128,-1,104
 833 571 833 571 839 566 c 2,105,-1
 953 460 l 1,106,-1
 523 40 l 1,107,-1
 523 856 l 1,108,-1
 690 701 l 2,109,110
 694 697 694 697 697.5 696 c 128,-1,111
 701 695 701 695 704 695 c 0,112,113
 708 695 708 695 712 697 c 128,-1,114
 716 699 716 699 719 702 c 0,115,116
 725 708 725 708 724.5 717 c 128,-1,117
 724 726 724 726 718 731 c 2,118,-1
 553 885 l 1,119,-1
 1666 885 l 1,120,-1
 1110 370 l 1,121,-1
 1110 370 l 1,98,-1
1698 858 m 1,122,-1
 1698 39 l 1,123,-1
 1256 448 l 1,124,-1
 1698 858 l 1,122,-1
1378 -8 m 0,125,126
 1378 -16 1378 -16 1372 -22 c 128,-1,127
 1366 -28 1366 -28 1358 -28 c 0,128,129
 1349 -28 1349 -28 1343 -22 c 128,-1,130
 1337 -16 1337 -16 1337 -8 c 0,131,132
 1337 1 1337 1 1343 7 c 128,-1,133
 1349 13 1349 13 1358 13 c 0,134,135
 1366 13 1366 13 1372 7 c 128,-1,136
 1378 1 1378 1 1378 -8 c 0,125,126
EndSplineSet
EndChar

StartChar: uniE929
Encoding: 59689 59689 45
Width: 1013
Flags: W
LayerCount: 2
Fore
SplineSet
775 377 m 1,0,1
 772 377 772 377 768.5 378.5 c 128,-1,2
 765 380 765 380 763 383 c 2,3,-1
 734 414 l 2,4,5
 729 419 729 419 729.5 426 c 128,-1,6
 730 433 730 433 735 437 c 256,7,8
 740 441 740 441 747 441 c 128,-1,9
 754 441 754 441 758 435 c 2,10,-1
 788 403 l 2,11,12
 792 399 792 399 791.5 392 c 128,-1,13
 791 385 791 385 786 381 c 0,14,15
 783 380 783 380 780 378.5 c 128,-1,16
 777 377 777 377 775 377 c 1,17,-1
 775 377 l 1,0,1
881 815 m 1,18,-1
 132 815 l 2,19,20
 85 815 85 815 52 781 c 128,-1,21
 19 747 19 747 19 701 c 2,22,-1
 19 195 l 2,23,24
 19 149 19 149 52 115 c 128,-1,25
 85 81 85 81 132 81 c 2,26,-1
 883 81 l 2,27,28
 929 81 929 81 962.5 114 c 128,-1,29
 996 147 996 147 996 195 c 2,30,-1
 996 701 l 2,31,32
 995 747 995 747 961.5 781 c 128,-1,33
 928 815 928 815 881 815 c 1,34,-1
 881 815 l 1,18,-1
50 701 m 1,35,36
 50 735 50 735 74.5 759 c 128,-1,37
 99 783 99 783 132 783 c 2,38,-1
 883 783 l 2,39,40
 916 783 916 783 940 759 c 128,-1,41
 964 735 964 735 964 701 c 2,42,-1
 964 653 l 1,43,-1
 506 442 l 1,44,-1
 50 653 l 1,45,-1
 50 701 l 1,46,-1
 50 701 l 1,35,36
881 113 m 1,47,-1
 132 113 l 2,48,49
 104 113 104 113 83 129 c 128,-1,50
 62 145 62 145 54 171 c 1,51,-1
 281 405 l 2,52,53
 285 409 285 409 285 416 c 128,-1,54
 285 423 285 423 281 428 c 0,55,56
 277 432 277 432 270 432 c 128,-1,57
 263 432 263 432 259 428 c 2,58,-1
 50 212 l 1,59,-1
 50 619 l 1,60,-1
 501 411 l 2,61,62
 502 409 502 409 503.5 409 c 128,-1,63
 505 409 505 409 508 409 c 256,64,65
 511 409 511 409 512 409 c 128,-1,66
 513 409 513 409 516 411 c 2,67,-1
 966 619 l 1,68,-1
 966 213 l 1,69,-1
 838 347 l 2,70,71
 834 352 834 352 827.5 353 c 128,-1,72
 821 354 821 354 815 349 c 0,73,74
 811 345 811 345 810 339 c 128,-1,75
 809 333 809 333 814 327 c 2,76,-1
 957 171 l 1,77,78
 950 145 950 145 929.5 129 c 128,-1,79
 909 113 909 113 881 113 c 1,80,-1
 881 113 l 1,47,-1
EndSplineSet
EndChar

StartChar: uniE92A
Encoding: 59690 59690 46
Width: 1360
Flags: W
LayerCount: 2
Fore
SplineSet
1251 951 m 1,0,-1
 105 951 l 2,1,2
 66 951 66 951 38.5 923.5 c 128,-1,3
 11 896 11 896 11 858 c 2,4,-1
 11 706 l 2,5,6
 14 713 14 713 23 715.5 c 128,-1,7
 32 718 32 718 40 715 c 2,8,-1
 675 430 l 1,9,-1
 1309 713 l 2,10,11
 1317 716 1317 716 1326 713 c 128,-1,12
 1335 710 1335 710 1338 702 c 0,13,14
 1341 693 1341 693 1338 684.5 c 128,-1,15
 1335 676 1335 676 1327 673 c 2,16,-1
 683 383 l 2,17,18
 682 382 682 382 679 381.5 c 128,-1,19
 676 381 676 381 675 381 c 0,20,21
 673 381 673 381 670 381.5 c 128,-1,22
 667 382 667 382 666 383 c 2,23,-1
 22 675 l 2,24,25
 19 677 19 677 16 680 c 128,-1,26
 13 683 13 683 11 686 c 2,27,-1
 11 92 l 2,28,29
 11 93 11 93 12.5 95 c 128,-1,30
 14 97 14 97 16 99 c 2,31,-1
 334 424 l 2,32,33
 341 430 341 430 349.5 430 c 128,-1,34
 358 430 358 430 365 424 c 0,35,36
 372 417 372 417 372 408 c 128,-1,37
 372 399 372 399 365 392 c 2,38,-1
 47 65 l 2,39,40
 43 62 43 62 39 60 c 128,-1,41
 35 58 35 58 31 58 c 0,42,43
 26 58 26 58 22.5 60 c 128,-1,44
 19 62 19 62 16 65 c 0,45,46
 14 67 14 67 13.5 68.5 c 128,-1,47
 13 70 13 70 11 72 c 2,48,-1
 11 41 l 2,49,50
 11 2 11 2 38.5 -25.5 c 128,-1,51
 66 -53 66 -53 105 -53 c 2,52,-1
 1251 -53 l 2,53,54
 1289 -53 1289 -53 1317 -25.5 c 128,-1,55
 1345 2 1345 2 1345 41 c 2,56,-1
 1345 858 l 2,57,58
 1345 896 1345 896 1317 923.5 c 128,-1,59
 1289 951 1289 951 1251 951 c 1,60,-1
 1251 951 l 1,0,-1
1071 348 m 1,61,62
 1067 344 1067 344 1063.5 342.5 c 128,-1,63
 1060 341 1060 341 1055 341 c 256,64,65
 1050 341 1050 341 1046.5 342.5 c 128,-1,66
 1043 344 1043 344 1040 348 c 2,67,-1
 1017 372 l 2,68,69
 1011 379 1011 379 1011 388 c 128,-1,70
 1011 397 1011 397 1020 403 c 0,71,72
 1026 410 1026 410 1035 410 c 128,-1,73
 1044 410 1044 410 1051 401 c 2,74,-1
 1073 377 l 2,75,76
 1078 372 1078 372 1077.5 362.5 c 128,-1,77
 1077 353 1077 353 1071 348 c 1,78,-1
 1071 348 l 1,61,62
1333 63 m 1,79,80
 1330 60 1330 60 1326.5 58 c 128,-1,81
 1323 56 1323 56 1318 56 c 256,82,83
 1313 56 1313 56 1309.5 58 c 128,-1,84
 1306 60 1306 60 1302 63 c 2,85,-1
 1109 272 l 2,86,87
 1102 279 1102 279 1102 288 c 128,-1,88
 1102 297 1102 297 1111 303 c 0,89,90
 1117 310 1117 310 1126 309.5 c 128,-1,91
 1135 309 1135 309 1142 301 c 2,92,-1
 1336 92 l 2,93,94
 1341 87 1341 87 1340.5 78.5 c 128,-1,95
 1340 70 1340 70 1333 63 c 1,96,-1
 1333 63 l 1,79,80
EndSplineSet
EndChar

StartChar: uniE92B
Encoding: 59691 59691 47
Width: 1011
Flags: W
LayerCount: 2
Fore
SplineSet
968 958 m 1,0,1
 968 757 968 757 892 581 c 0,2,3
 817 405 817 405 685.5 273.5 c 128,-1,4
 554 142 554 142 378 66 c 0,5,6
 201 -10 201 -10 0 -10 c 1,7,-1
 0 959 l 1,8,-1
 968 958 l 1,9,-1
 968 958 l 1,0,1
EndSplineSet
EndChar

StartChar: uniE92C
Encoding: 59692 59692 48
Width: 1011
Flags: W
LayerCount: 2
Fore
SplineSet
491 623 m 1,0,-1
 353 623 l 2,1,2
 350 623 350 623 348 625 c 128,-1,3
 346 627 346 627 346 629 c 0,4,5
 346 632 346 632 348 634 c 128,-1,6
 350 636 350 636 353 636 c 2,7,-1
 491 636 l 2,8,9
 494 636 494 636 495.5 634 c 128,-1,10
 497 632 497 632 497 629 c 0,11,12
 497 627 497 627 495.5 625 c 128,-1,13
 494 623 494 623 491 623 c 1,14,-1
 491 623 l 1,0,-1
EndSplineSet
EndChar

StartChar: uniE92D
Encoding: 59693 59693 49
Width: 1011
Flags: W
LayerCount: 2
Fore
SplineSet
491 493 m 1,0,-1
 353 493 l 2,1,2
 350 493 350 493 348 495 c 128,-1,3
 346 497 346 497 346 499 c 0,4,5
 346 502 346 502 348 503.5 c 128,-1,6
 350 505 350 505 353 505 c 2,7,-1
 491 505 l 2,8,9
 494 505 494 505 495.5 503.5 c 128,-1,10
 497 502 497 502 497 499 c 0,11,12
 497 497 497 497 495.5 495 c 128,-1,13
 494 493 494 493 491 493 c 1,14,-1
 491 493 l 1,0,-1
EndSplineSet
EndChar

StartChar: uniE92E
Encoding: 59694 59694 50
Width: 1011
Flags: W
LayerCount: 2
Fore
SplineSet
432 558 m 2,0,-1
 353 558 l 2,1,2
 350 558 350 558 348 560 c 128,-1,3
 346 562 346 562 346 565 c 0,4,5
 346 567 346 567 348 569 c 128,-1,6
 350 571 350 571 353 571 c 2,7,-1
 432 571 l 2,8,9
 435 571 435 571 437 569 c 128,-1,10
 439 567 439 567 439 565 c 0,11,12
 439 562 439 562 437 560 c 128,-1,13
 435 558 435 558 432 558 c 2,0,-1
EndSplineSet
EndChar

StartChar: uniE92F
Encoding: 59695 59695 51
Width: 1013
Flags: W
LayerCount: 2
Fore
SplineSet
223 543 m 1,0,1
 145 543 145 543 89.5 599 c 128,-1,2
 34 655 34 655 34 733 c 256,3,4
 34 811 34 811 89 867 c 128,-1,5
 144 923 144 923 223 923 c 0,6,7
 303 923 303 923 358 867 c 128,-1,8
 413 811 413 811 413 733 c 256,9,10
 413 655 413 655 357.5 599 c 128,-1,11
 302 543 302 543 223 543 c 1,12,-1
 223 543 l 1,0,1
223 882 m 0,13,14
 162 882 162 882 118 838 c 128,-1,15
 74 794 74 794 74 733 c 0,16,17
 74 671 74 671 118 627.5 c 128,-1,18
 162 584 162 584 223 584 c 0,19,20
 285 584 285 584 328.5 627.5 c 128,-1,21
 372 671 372 671 372 733 c 0,22,23
 372 794 372 794 328.5 838 c 128,-1,24
 285 882 285 882 223 882 c 0,13,14
789 543 m 0,25,26
 711 543 711 543 655.5 599 c 128,-1,27
 600 655 600 655 600 733 c 256,28,29
 600 811 600 811 655.5 867 c 128,-1,30
 711 923 711 923 789 923 c 0,31,32
 868 923 868 923 923.5 867 c 128,-1,33
 979 811 979 811 979 733 c 256,34,35
 979 655 979 655 923.5 599 c 128,-1,36
 868 543 868 543 789 543 c 0,25,26
789 882 m 1,37,38
 728 882 728 882 684 838 c 128,-1,39
 640 794 640 794 640 733 c 0,40,41
 640 671 640 671 684 627.5 c 128,-1,42
 728 584 728 584 789 584 c 0,43,44
 851 584 851 584 894.5 627.5 c 128,-1,45
 938 671 938 671 938 733 c 0,46,47
 938 794 938 794 894.5 838 c 128,-1,48
 851 882 851 882 789 882 c 1,49,-1
 789 882 l 1,37,38
223 -27 m 1,50,51
 144 -27 144 -27 89 28.5 c 128,-1,52
 34 84 34 84 34 163 c 0,53,54
 34 243 34 243 89 298 c 128,-1,55
 144 353 144 353 223 353 c 0,56,57
 303 353 303 353 358 297 c 128,-1,58
 413 241 413 241 413 163 c 256,59,60
 413 85 413 85 357.5 29 c 128,-1,61
 302 -27 302 -27 223 -27 c 1,62,-1
 223 -27 l 1,50,51
223 312 m 0,63,64
 162 312 162 312 118 268.5 c 128,-1,65
 74 225 74 225 74 163 c 0,66,67
 74 102 74 102 118 58 c 128,-1,68
 162 14 162 14 223 14 c 0,69,70
 285 14 285 14 328.5 58 c 128,-1,71
 372 102 372 102 372 163 c 0,72,73
 372 225 372 225 328.5 268.5 c 128,-1,74
 285 312 285 312 223 312 c 0,63,64
789 -27 m 0,75,76
 711 -27 711 -27 655.5 29 c 128,-1,77
 600 85 600 85 600 163 c 256,78,79
 600 241 600 241 655.5 297 c 128,-1,80
 711 353 711 353 789 353 c 0,81,82
 868 353 868 353 923.5 297 c 128,-1,83
 979 241 979 241 979 163 c 256,84,85
 979 85 979 85 923.5 29 c 128,-1,86
 868 -27 868 -27 789 -27 c 0,75,76
789 312 m 1,87,88
 728 312 728 312 684 268.5 c 128,-1,89
 640 225 640 225 640 163 c 0,90,91
 640 102 640 102 684 58 c 128,-1,92
 728 14 728 14 789 14 c 0,93,94
 851 14 851 14 894.5 58 c 128,-1,95
 938 102 938 102 938 163 c 0,96,97
 938 225 938 225 894.5 268.5 c 128,-1,98
 851 312 851 312 789 312 c 1,99,-1
 789 312 l 1,87,88
EndSplineSet
EndChar

StartChar: uniE930
Encoding: 59696 59696 52
Width: 1236
Flags: W
LayerCount: 2
Fore
SplineSet
739 610 m 2,0,-1
 491 610 l 2,1,2
 478 610 478 610 470.5 618 c 128,-1,3
 463 626 463 626 463 638 c 2,4,-1
 463 887 l 2,5,6
 463 899 463 899 470.5 907 c 128,-1,7
 478 915 478 915 491 915 c 2,8,-1
 739 915 l 2,9,10
 752 915 752 915 759.5 907 c 128,-1,11
 767 899 767 899 767 887 c 2,12,-1
 767 638 l 2,13,14
 767 628 767 628 759.5 619 c 128,-1,15
 752 610 752 610 739 610 c 2,0,-1
519 667 m 1,16,-1
 711 667 l 1,17,-1
 711 858 l 1,18,-1
 519 858 l 1,19,-1
 519 667 l 1,20,-1
 519 667 l 1,16,-1
1190 -10 m 2,21,-1
 942 -10 l 2,22,23
 929 -10 929 -10 921.5 -2.5 c 128,-1,24
 914 5 914 5 914 18 c 2,25,-1
 914 266 l 2,26,27
 914 279 914 279 921.5 286.5 c 128,-1,28
 929 294 929 294 942 294 c 2,29,-1
 1190 294 l 2,30,31
 1203 294 1203 294 1211 286.5 c 128,-1,32
 1219 279 1219 279 1219 266 c 2,33,-1
 1219 18 l 2,34,35
 1219 7 1219 7 1211 -1.5 c 128,-1,36
 1203 -10 1203 -10 1190 -10 c 2,21,-1
970 46 m 1,37,-1
 1162 46 l 1,38,-1
 1162 238 l 1,39,-1
 970 238 l 1,40,-1
 970 46 l 1,37,-1
288 -10 m 2,41,-1
 39 -10 l 2,42,43
 27 -10 27 -10 19 -2.5 c 128,-1,44
 11 5 11 5 11 18 c 2,45,-1
 11 266 l 2,46,47
 11 279 11 279 19 286.5 c 128,-1,48
 27 294 27 294 39 294 c 2,49,-1
 288 294 l 2,50,51
 300 294 300 294 308 286.5 c 128,-1,52
 316 279 316 279 316 266 c 2,53,-1
 316 18 l 2,54,55
 316 7 316 7 308 -1.5 c 128,-1,56
 300 -10 300 -10 288 -10 c 2,41,-1
68 46 m 1,57,-1
 260 46 l 1,58,-1
 260 238 l 1,59,-1
 68 238 l 1,60,-1
 68 46 l 1,57,-1
762 181 m 1,61,-1
 643 181 l 1,62,-1
 643 492 l 2,63,64
 643 504 643 504 635.5 512 c 128,-1,65
 628 520 628 520 615 520 c 256,66,67
 602 520 602 520 594.5 512 c 128,-1,68
 587 504 587 504 587 492 c 2,69,-1
 587 181 l 1,70,-1
 468 181 l 2,71,72
 456 181 456 181 448 173.5 c 128,-1,73
 440 166 440 166 440 153 c 0,74,75
 440 141 440 141 448 133 c 128,-1,76
 456 125 456 125 468 125 c 2,77,-1
 762 125 l 2,78,79
 774 125 774 125 782 133 c 128,-1,80
 790 141 790 141 790 153 c 0,81,82
 790 166 790 166 781 173.5 c 128,-1,83
 772 181 772 181 762 181 c 1,84,-1
 762 181 l 1,61,-1
EndSplineSet
EndChar

StartChar: uniE931
Encoding: 59697 59697 53
Width: 1024
Flags: W
LayerCount: 2
Fore
SplineSet
192 745 m 256,0,1
 148 745 148 745 117.5 776.5 c 128,-1,2
 87 808 87 808 87 850 c 256,3,4
 87 892 87 892 118.5 923.5 c 128,-1,5
 150 955 150 955 192 955 c 256,6,7
 234 955 234 955 265.5 923.5 c 128,-1,8
 297 892 297 892 297 850 c 256,9,10
 297 808 297 808 266.5 776.5 c 128,-1,11
 236 745 236 745 192 745 c 256,0,1
192 906 m 256,12,13
 169 906 169 906 153.5 890 c 128,-1,14
 138 874 138 874 138 852 c 0,15,16
 138 831 138 831 154.5 815 c 128,-1,17
 171 799 171 799 192 799 c 256,18,19
 213 799 213 799 229.5 815 c 128,-1,20
 246 831 246 831 246 852 c 0,21,22
 246 874 246 874 230.5 890 c 128,-1,23
 215 906 215 906 192 906 c 256,12,13
499 745 m 256,24,25
 455 745 455 745 424.5 776.5 c 128,-1,26
 394 808 394 808 394 850 c 256,27,28
 394 892 394 892 425.5 923.5 c 128,-1,29
 457 955 457 955 499 955 c 256,30,31
 541 955 541 955 572.5 923.5 c 128,-1,32
 604 892 604 892 604 850 c 256,33,34
 604 808 604 808 573.5 776.5 c 128,-1,35
 543 745 543 745 499 745 c 256,24,25
499 906 m 1,36,37
 476 906 476 906 460.5 890 c 128,-1,38
 445 874 445 874 445 852 c 0,39,40
 445 831 445 831 461.5 815 c 128,-1,41
 478 799 478 799 499 799 c 256,42,43
 520 799 520 799 536.5 815 c 128,-1,44
 553 831 553 831 553 852 c 0,45,46
 553 874 553 874 537.5 890 c 128,-1,47
 522 906 522 906 499 906 c 1,48,-1
 499 906 l 1,36,37
832 745 m 256,49,50
 788 745 788 745 757.5 776.5 c 128,-1,51
 727 808 727 808 727 850 c 256,52,53
 727 892 727 892 758.5 923.5 c 128,-1,54
 790 955 790 955 832 955 c 256,55,56
 874 955 874 955 905.5 923.5 c 128,-1,57
 937 892 937 892 937 850 c 256,58,59
 937 808 937 808 906.5 776.5 c 128,-1,60
 876 745 876 745 832 745 c 256,49,50
832 906 m 256,61,62
 809 906 809 906 793.5 890 c 128,-1,63
 778 874 778 874 778 852 c 0,64,65
 778 831 778 831 794.5 815 c 128,-1,66
 811 799 811 799 832 799 c 256,67,68
 853 799 853 799 869.5 815 c 128,-1,69
 886 831 886 831 886 852 c 0,70,71
 886 874 886 874 870.5 890 c 128,-1,72
 855 906 855 906 832 906 c 256,61,62
192 481 m 256,73,74
 148 481 148 481 117.5 512.5 c 128,-1,75
 87 544 87 544 87 586 c 256,76,77
 87 628 87 628 118.5 659.5 c 128,-1,78
 150 691 150 691 192 691 c 256,79,80
 234 691 234 691 265.5 659.5 c 128,-1,81
 297 628 297 628 297 586 c 256,82,83
 297 544 297 544 266.5 512.5 c 128,-1,84
 236 481 236 481 192 481 c 256,73,74
192 643 m 256,85,86
 169 643 169 643 153.5 626.5 c 128,-1,87
 138 610 138 610 138 589 c 256,88,89
 138 568 138 568 154.5 551.5 c 128,-1,90
 171 535 171 535 192 535 c 256,91,92
 213 535 213 535 229.5 551.5 c 128,-1,93
 246 568 246 568 246 589 c 256,94,95
 246 610 246 610 230.5 626.5 c 128,-1,96
 215 643 215 643 192 643 c 256,85,86
499 481 m 256,97,98
 455 481 455 481 424.5 512.5 c 128,-1,99
 394 544 394 544 394 586 c 256,100,101
 394 628 394 628 425.5 659.5 c 128,-1,102
 457 691 457 691 499 691 c 256,103,104
 541 691 541 691 572.5 659.5 c 128,-1,105
 604 628 604 628 604 586 c 256,106,107
 604 544 604 544 573.5 512.5 c 128,-1,108
 543 481 543 481 499 481 c 256,97,98
499 643 m 1,109,110
 476 643 476 643 460.5 626.5 c 128,-1,111
 445 610 445 610 445 589 c 256,112,113
 445 568 445 568 461.5 551.5 c 128,-1,114
 478 535 478 535 499 535 c 256,115,116
 520 535 520 535 536.5 551.5 c 128,-1,117
 553 568 553 568 553 589 c 256,118,119
 553 610 553 610 537.5 626.5 c 128,-1,120
 522 643 522 643 499 643 c 1,121,-1
 499 643 l 1,109,110
832 481 m 256,122,123
 788 481 788 481 757.5 512.5 c 128,-1,124
 727 544 727 544 727 586 c 256,125,126
 727 628 727 628 758.5 659.5 c 128,-1,127
 790 691 790 691 832 691 c 256,128,129
 874 691 874 691 905.5 659.5 c 128,-1,130
 937 628 937 628 937 586 c 256,131,132
 937 544 937 544 906.5 512.5 c 128,-1,133
 876 481 876 481 832 481 c 256,122,123
832 643 m 256,134,135
 809 643 809 643 793.5 626.5 c 128,-1,136
 778 610 778 610 778 589 c 256,137,138
 778 568 778 568 794.5 551.5 c 128,-1,139
 811 535 811 535 832 535 c 256,140,141
 853 535 853 535 869.5 551.5 c 128,-1,142
 886 568 886 568 886 589 c 256,143,144
 886 610 886 610 870.5 626.5 c 128,-1,145
 855 643 855 643 832 643 c 256,134,135
192 207 m 256,146,147
 148 207 148 207 117.5 238.5 c 128,-1,148
 87 270 87 270 87 312 c 0,149,150
 87 355 87 355 118.5 386 c 128,-1,151
 150 417 150 417 192 417 c 256,152,153
 234 417 234 417 265.5 386 c 128,-1,154
 297 355 297 355 297 312 c 0,155,156
 297 270 297 270 266.5 238.5 c 128,-1,157
 236 207 236 207 192 207 c 256,146,147
192 369 m 256,158,159
 169 369 169 369 153.5 352.5 c 128,-1,160
 138 336 138 336 138 315 c 256,161,162
 138 294 138 294 154.5 277.5 c 128,-1,163
 171 261 171 261 192 261 c 256,164,165
 213 261 213 261 229.5 277.5 c 128,-1,166
 246 294 246 294 246 315 c 256,167,168
 246 336 246 336 230.5 352.5 c 128,-1,169
 215 369 215 369 192 369 c 256,158,159
499 207 m 256,170,171
 455 207 455 207 424.5 238.5 c 128,-1,172
 394 270 394 270 394 312 c 0,173,174
 394 355 394 355 425.5 386 c 128,-1,175
 457 417 457 417 499 417 c 256,176,177
 541 417 541 417 572.5 386 c 128,-1,178
 604 355 604 355 604 312 c 0,179,180
 604 270 604 270 573.5 238.5 c 128,-1,181
 543 207 543 207 499 207 c 256,170,171
499 369 m 1,182,183
 476 369 476 369 460.5 352.5 c 128,-1,184
 445 336 445 336 445 315 c 256,185,186
 445 294 445 294 461.5 277.5 c 128,-1,187
 478 261 478 261 499 261 c 256,188,189
 520 261 520 261 536.5 277.5 c 128,-1,190
 553 294 553 294 553 315 c 256,191,192
 553 336 553 336 537.5 352.5 c 128,-1,193
 522 369 522 369 499 369 c 1,194,-1
 499 369 l 1,182,183
832 207 m 256,195,196
 788 207 788 207 757.5 238.5 c 128,-1,197
 727 270 727 270 727 312 c 0,198,199
 727 355 727 355 758.5 386 c 128,-1,200
 790 417 790 417 832 417 c 256,201,202
 874 417 874 417 905.5 386 c 128,-1,203
 937 355 937 355 937 312 c 0,204,205
 937 270 937 270 906.5 238.5 c 128,-1,206
 876 207 876 207 832 207 c 256,195,196
832 369 m 256,207,208
 809 369 809 369 793.5 352.5 c 128,-1,209
 778 336 778 336 778 315 c 256,210,211
 778 294 778 294 794.5 277.5 c 128,-1,212
 811 261 811 261 832 261 c 256,213,214
 853 261 853 261 869.5 277.5 c 128,-1,215
 886 294 886 294 886 315 c 256,216,217
 886 336 886 336 870.5 352.5 c 128,-1,218
 855 369 855 369 832 369 c 256,207,208
499 -61 m 256,219,220
 455 -61 455 -61 424.5 -30 c 128,-1,221
 394 1 394 1 394 44 c 0,222,223
 394 86 394 86 425.5 117 c 128,-1,224
 457 148 457 148 499 148 c 256,225,226
 541 148 541 148 572.5 117 c 128,-1,227
 604 86 604 86 604 44 c 0,228,229
 604 1 604 1 573.5 -30 c 128,-1,230
 543 -61 543 -61 499 -61 c 256,219,220
499 100 m 1,231,232
 476 100 476 100 460.5 83.5 c 128,-1,233
 445 67 445 67 445 46 c 256,234,235
 445 25 445 25 461.5 8.5 c 128,-1,236
 478 -8 478 -8 499 -8 c 256,237,238
 520 -8 520 -8 536.5 8.5 c 128,-1,239
 553 25 553 25 553 46 c 256,240,241
 553 67 553 67 537.5 83.5 c 128,-1,242
 522 100 522 100 499 100 c 1,243,-1
 499 100 l 1,231,232
EndSplineSet
EndChar

StartChar: uniE932
Encoding: 59698 59698 54
Width: 866
Flags: W
LayerCount: 2
Fore
SplineSet
829 460 m 1,0,-1
 691 674 l 1,1,-1
 829 865 l 2,2,3
 832 870 832 870 833.5 876 c 128,-1,4
 835 882 835 882 831 886 c 0,5,6
 828 891 828 891 823 894 c 128,-1,7
 818 897 818 897 812 897 c 2,8,-1
 169 897 l 1,9,10
 162 920 162 920 144 933.5 c 128,-1,11
 126 947 126 947 102 947 c 0,12,13
 73 947 73 947 52.5 927 c 128,-1,14
 32 907 32 907 32 878 c 2,15,-1
 32 18 l 2,16,17
 32 -11 32 -11 52.5 -31 c 128,-1,18
 73 -51 73 -51 102 -51 c 256,19,20
 131 -51 131 -51 151 -31 c 128,-1,21
 171 -11 171 -11 171 18 c 2,22,-1
 171 425 l 1,23,-1
 812 425 l 2,24,25
 818 425 818 425 823 428 c 128,-1,26
 828 431 828 431 831 436 c 0,27,28
 835 441 835 441 833.5 448 c 128,-1,29
 832 455 832 455 829 460 c 1,30,-1
 829 460 l 1,0,-1
130 18 m 2,31,32
 130 7 130 7 122.5 -0.5 c 128,-1,33
 115 -8 115 -8 104 -8 c 256,34,35
 93 -8 93 -8 85.5 -0.5 c 128,-1,36
 78 7 78 7 78 18 c 2,37,-1
 78 878 l 2,38,39
 78 889 78 889 85.5 896.5 c 128,-1,40
 93 904 93 904 104 904 c 0,41,42
 114 904 114 904 122 896.5 c 128,-1,43
 130 889 130 889 130 878 c 2,44,-1
 130 18 l 2,31,32
173 469 m 1,45,-1
 173 856 l 1,46,-1
 771 856 l 1,47,-1
 647 687 l 2,48,49
 644 682 644 682 643 675 c 128,-1,50
 642 668 642 668 647 663 c 2,51,-1
 773 471 l 1,52,-1
 173 471 l 1,53,-1
 173 469 l 1,45,-1
517 510 m 2,54,-1
 511 510 l 2,55,56
 501 510 501 510 495 516 c 128,-1,57
 489 522 489 522 489 531 c 0,58,59
 489 541 489 541 495 547 c 128,-1,60
 501 553 501 553 511 553 c 2,61,-1
 517 553 l 2,62,63
 527 553 527 553 533 547 c 128,-1,64
 539 541 539 541 539 531 c 0,65,66
 539 522 539 522 532.5 516 c 128,-1,67
 526 510 526 510 517 510 c 2,54,-1
437 510 m 2,68,-1
 232 510 l 2,69,70
 222 510 222 510 216 516 c 128,-1,71
 210 522 210 522 210 531 c 0,72,73
 210 541 210 541 216 547 c 128,-1,74
 222 553 222 553 232 553 c 2,75,-1
 437 553 l 2,76,77
 447 553 447 553 453 547 c 128,-1,78
 459 541 459 541 459 531 c 0,79,80
 459 522 459 522 452 516 c 128,-1,81
 445 510 445 510 437 510 c 2,68,-1
EndSplineSet
EndChar

StartChar: uniE933
Encoding: 59699 59699 55
Width: 655
Flags: W
LayerCount: 2
Fore
SplineSet
396 47 m 1,0,1
 393 47 393 47 390 48.5 c 128,-1,2
 387 50 387 50 385 51 c 0,3,4
 377 56 377 56 375.5 64.5 c 128,-1,5
 374 73 374 73 379 80 c 0,6,7
 450 188 450 188 497 285 c 0,8,9
 545 381 545 381 569 465 c 128,-1,10
 593 549 593 549 593 619 c 256,11,12
 593 689 593 689 567 744 c 0,13,14
 545 793 545 793 509 823 c 0,15,16
 474 853 474 853 440 869.5 c 128,-1,17
 406 886 406 886 382 892 c 0,18,19
 358 897 358 897 358 897 c 2,20,21
 344 899 344 899 326.5 898 c 128,-1,22
 309 897 309 897 302 897 c 0,23,24
 301 897 301 897 276 892 c 0,25,26
 250 887 250 887 215.5 871.5 c 128,-1,27
 181 856 181 856 145 827 c 256,28,29
 109 798 109 798 86 751 c 0,30,31
 62 698 62 698 61 631 c 256,32,33
 60 564 60 564 82 483 c 128,-1,34
 104 402 104 402 149 309 c 0,35,36
 194 215 194 215 262 110 c 0,37,38
 266 102 266 102 264.5 93.5 c 128,-1,39
 263 85 263 85 255 80 c 0,40,41
 248 76 248 76 239.5 77.5 c 128,-1,42
 231 79 231 79 226 87 c 0,43,44
 154 198 154 198 107 297 c 256,45,46
 60 396 60 396 37.5 481.5 c 128,-1,47
 15 567 15 567 18 638 c 0,48,49
 21 710 21 710 48 767 c 256,50,51
 75 824 75 824 116 857 c 0,52,53
 158 891 158 891 197.5 909 c 128,-1,54
 237 927 237 927 266 933 c 0,55,56
 295 938 295 938 297 939 c 0,57,58
 299 939 299 939 321 940.5 c 128,-1,59
 343 942 343 942 362 939 c 0,60,61
 365 939 365 939 393 933 c 0,62,63
 421 926 421 926 459 907 c 128,-1,64
 497 888 497 888 537 853 c 256,65,66
 577 818 577 818 603 761 c 0,67,68
 631 701 631 701 632 626 c 0,69,70
 634 552 634 552 609.5 463.5 c 128,-1,71
 585 375 585 375 536 274 c 0,72,73
 486 172 486 172 410 57 c 0,74,75
 409 53 409 53 404.5 50 c 128,-1,76
 400 47 400 47 396 47 c 1,77,-1
 396 47 l 1,0,1
331 -47 m 1,78,79
 325 -47 325 -47 320 -44 c 128,-1,80
 315 -41 315 -41 312 -37 c 0,81,82
 307 -30 307 -30 308.5 -21 c 128,-1,83
 310 -12 310 -12 316 -7 c 0,84,85
 319 -6 319 -6 322.5 -4.5 c 128,-1,86
 326 -3 326 -3 329 -3 c 1,87,88
 329 -3 329 -3 329 -3 c 129,-1,89
 329 -3 329 -3 329 -3 c 1,90,91
 332 -3 332 -3 336 -3.5 c 128,-1,92
 340 -4 340 -4 343 -7 c 0,93,94
 350 -12 350 -12 351.5 -20 c 128,-1,95
 353 -28 353 -28 350 -35 c 1,96,97
 350 -35 350 -35 350 -35 c 129,-1,98
 350 -35 350 -35 350 -35 c 1,99,100
 347 -41 347 -41 342 -44 c 128,-1,101
 337 -47 337 -47 331 -47 c 1,102,-1
 331 -47 l 1,78,79
337 472 m 1,103,104
 284 472 284 472 245.5 510.5 c 128,-1,105
 207 549 207 549 207 602 c 0,106,107
 207 652 207 652 242 690.5 c 128,-1,108
 277 729 277 729 329 732 c 0,109,110
 338 732 338 732 344 726.5 c 128,-1,111
 350 721 350 721 352 713 c 0,112,113
 352 703 352 703 346.5 697 c 128,-1,114
 341 691 341 691 333 690 c 0,115,116
 298 687 298 687 274.5 661.5 c 128,-1,117
 251 636 251 636 251 602 c 0,118,119
 251 566 251 566 277 540 c 128,-1,120
 303 514 303 514 339 514 c 256,121,122
 375 514 375 514 401 540 c 128,-1,123
 427 566 427 566 427 602 c 0,124,125
 427 619 427 619 421 634.5 c 128,-1,126
 415 650 415 650 404 663 c 0,127,128
 398 669 398 669 398 677.5 c 128,-1,129
 398 686 398 686 406 692 c 0,130,131
 413 698 413 698 421 698 c 128,-1,132
 429 698 429 698 436 690 c 0,133,134
 453 671 453 671 462 648 c 128,-1,135
 471 625 471 625 471 602 c 0,136,137
 468 549 468 549 429.5 510.5 c 128,-1,138
 391 472 391 472 337 472 c 1,139,-1
 337 472 l 1,103,104
EndSplineSet
EndChar

StartChar: uniE934
Encoding: 59700 59700 56
Width: 696
Flags: W
LayerCount: 2
Fore
SplineSet
631 327 m 1,0,-1
 673 327 l 1,1,-1
 673 289 l 1,2,-1
 631 289 l 1,3,-1
 631 327 l 1,0,-1
673 379 m 1,4,-1
 673 878 l 2,5,6
 673 905 673 905 654 923 c 128,-1,7
 635 941 635 941 610 941 c 2,8,-1
 82 941 l 2,9,10
 55 941 55 941 37 922.5 c 128,-1,11
 19 904 19 904 19 878 c 2,12,-1
 19 18 l 2,13,14
 19 -9 19 -9 37.5 -27 c 128,-1,15
 56 -45 56 -45 82 -45 c 2,16,-1
 608 -45 l 2,17,18
 635 -45 635 -45 653 -26.5 c 128,-1,19
 671 -8 671 -8 671 18 c 2,20,-1
 671 241 l 1,21,-1
 629 241 l 1,22,-1
 629 141 l 1,23,-1
 61 141 l 1,24,-1
 61 772 l 1,25,-1
 631 772 l 1,26,-1
 631 379 l 1,27,-1
 673 379 l 1,28,-1
 673 379 l 1,4,-1
631 101 m 1,29,-1
 631 18 l 2,30,31
 631 8 631 8 624.5 2.5 c 128,-1,32
 618 -3 618 -3 610 -3 c 2,33,-1
 82 -3 l 2,34,35
 72 -3 72 -3 66.5 3.5 c 128,-1,36
 61 10 61 10 61 18 c 2,37,-1
 61 101 l 1,38,-1
 631 101 l 1,29,-1
61 814 m 1,39,-1
 61 878 l 2,40,41
 61 888 61 888 67.5 893.5 c 128,-1,42
 74 899 74 899 82 899 c 2,43,-1
 608 899 l 2,44,45
 618 899 618 899 623.5 892.5 c 128,-1,46
 629 886 629 886 629 878 c 2,47,-1
 629 814 l 1,48,-1
 61 814 l 1,49,-1
 61 814 l 1,39,-1
378 9 m 1,50,-1
 303 9 l 1,51,-1
 303 84 l 1,52,-1
 378 84 l 1,53,-1
 378 9 l 1,50,-1
324 30 m 1,54,-1
 357 30 l 1,55,-1
 357 63 l 1,56,-1
 324 63 l 1,57,-1
 324 30 l 1,54,-1
230 860 m 1,58,-1
 251 860 l 1,59,-1
 251 839 l 1,60,-1
 230 839 l 1,61,-1
 230 860 l 1,58,-1
278 860 m 1,62,-1
 412 860 l 1,63,-1
 412 839 l 1,64,-1
 278 839 l 1,65,-1
 278 860 l 1,62,-1
EndSplineSet
EndChar

StartChar: uniE935
Encoding: 59701 59701 57
Width: 1013
Flags: W
LayerCount: 2
Fore
SplineSet
791 -10 m 1,0,1
 786 -10 786 -10 780.5 -8.5 c 128,-1,2
 775 -7 775 -7 771 -3 c 2,3,-1
 510 226 l 1,4,-1
 369 37 l 2,5,6
 362 28 362 28 352.5 25.5 c 128,-1,7
 343 23 343 23 333 25 c 0,8,9
 323 28 323 28 317 36.5 c 128,-1,10
 311 45 311 45 311 55 c 2,11,-1
 311 327 l 1,12,-1
 32 420 l 2,13,14
 22 423 22 423 16.5 431 c 128,-1,15
 11 439 11 439 9 450 c 0,16,17
 9 460 9 460 14.5 468.5 c 128,-1,18
 20 477 20 477 28 482 c 2,19,-1
 981 904 l 2,20,21
 983 904 983 904 984 905 c 128,-1,22
 985 906 985 906 987 906 c 1,23,-1
 987 906 l 1,24,25
 987 906 987 906 987 906 c 129,-1,26
 987 906 987 906 987 906 c 257,27,28
 987 906 987 906 987 906 c 129,-1,29
 987 906 987 906 987 906 c 1,30,-1
 987 906 l 1,31,32
 987 906 987 906 988 906 c 128,-1,33
 989 906 989 906 989 906 c 257,34,35
 989 906 989 906 989 906 c 129,-1,36
 989 906 989 906 989 906 c 257,37,38
 989 906 989 906 989 906 c 129,-1,39
 989 906 989 906 989 906 c 1,40,41
 991 906 991 906 993 905 c 128,-1,42
 995 904 995 904 998 902 c 1,43,44
 998 902 998 902 998 902 c 129,-1,45
 998 902 998 902 1000 900 c 0,46,47
 1001 899 1001 899 1002.5 896.5 c 128,-1,48
 1004 894 1004 894 1004 893 c 256,49,50
 1004 892 1004 892 1004 891.5 c 128,-1,51
 1004 891 1004 891 1004 889 c 2,52,53
 1004 889 1004 889 1004 888 c 128,-1,54
 1004 887 1004 887 1004 887 c 1,55,-1
 827 14 l 2,56,57
 825 6 825 6 819 -0.5 c 128,-1,58
 813 -7 813 -7 806 -10 c 0,59,60
 801 -10 801 -10 797.5 -10 c 128,-1,61
 794 -10 794 -10 791 -10 c 1,62,-1
 791 -10 l 1,0,1
529 249 m 1,63,-1
 791 20 l 1,64,65
 791 20 791 20 792 20 c 128,-1,66
 793 20 793 20 793 20 c 2,67,68
 795 20 795 20 795 21 c 128,-1,69
 795 22 795 22 795 22 c 1,70,-1
 959 830 l 1,71,-1
 529 249 l 1,72,-1
 529 249 l 1,63,-1
892 833 m 1,73,-1
 43 452 l 1,74,75
 43 452 43 452 42 451.5 c 128,-1,76
 41 451 41 451 41 450 c 0,77,78
 41 448 41 448 42 448 c 128,-1,79
 43 448 43 448 43 448 c 1,80,-1
 331 351 l 2,81,82
 336 350 336 350 338.5 346 c 128,-1,83
 341 342 341 342 341 336 c 2,84,-1
 341 55 l 1,85,86
 341 55 341 55 341 54 c 128,-1,87
 341 53 341 53 343 53 c 0,88,89
 344 53 344 53 344 53 c 129,-1,90
 344 53 344 53 344 53 c 1,91,-1
 903 804 l 1,92,-1
 478 454 l 2,93,94
 474 449 474 449 468 450 c 128,-1,95
 462 451 462 451 458 455 c 0,96,97
 454 460 454 460 455 466 c 128,-1,98
 456 472 456 472 460 476 c 2,99,-1
 892 833 l 1,100,-1
 892 833 l 1,73,-1
380 377 m 1,101,102
 377 377 377 377 373.5 378.5 c 128,-1,103
 370 380 370 380 369 383 c 0,104,105
 364 387 364 387 365 393 c 128,-1,106
 366 399 366 399 371 403 c 2,107,-1
 402 429 l 2,108,109
 406 434 406 434 412 433 c 128,-1,110
 418 432 418 432 423 428 c 0,111,112
 427 423 427 423 426 417 c 128,-1,113
 425 411 425 411 421 407 c 2,114,-1
 389 381 l 2,115,116
 388 380 388 380 385.5 378.5 c 128,-1,117
 383 377 383 377 380 377 c 1,118,-1
 380 377 l 1,101,102
EndSplineSet
EndChar

StartChar: uniE936
Encoding: 59702 59702 58
Width: 1002
Flags: W
LayerCount: 2
Fore
SplineSet
223 -2 m 1,0,1
 221 -2 221 -2 218.5 -1.5 c 128,-1,2
 216 -1 216 -1 214 1 c 0,3,4
 210 4 210 4 208 8.5 c 128,-1,5
 206 13 206 13 208 18 c 2,6,-1
 235 129 l 2,7,8
 237 136 237 136 242 139 c 128,-1,9
 247 142 247 142 254 141 c 0,10,11
 260 139 260 139 263.5 133.5 c 128,-1,12
 267 128 267 128 265 121 c 2,13,-1
 248 49 l 1,14,-1
 503 226 l 2,15,16
 507 229 507 229 512.5 229 c 128,-1,17
 518 229 518 229 522 226 c 2,18,-1
 765 50 l 1,19,-1
 698 345 l 2,20,21
 697 350 697 350 698.5 354 c 128,-1,22
 700 358 700 358 703 361 c 2,23,-1
 915 530 l 1,24,-1
 629 541 l 2,25,26
 624 541 624 541 620 543.5 c 128,-1,27
 616 546 616 546 615 551 c 2,28,-1
 502 837 l 1,29,-1
 400 554 l 2,30,31
 399 549 399 549 394.5 546.5 c 128,-1,32
 390 544 390 544 386 544 c 2,33,-1
 89 531 l 1,34,-1
 314 359 l 2,35,36
 318 356 318 356 319.5 352 c 128,-1,37
 321 348 321 348 320 343 c 2,38,-1
 299 258 l 2,39,40
 297 252 297 252 291.5 248.5 c 128,-1,41
 286 245 286 245 280 247 c 0,42,43
 273 248 273 248 270 253.5 c 128,-1,44
 267 259 267 259 268 266 c 2,45,-1
 287 341 l 1,46,-1
 35 532 l 2,47,48
 32 535 32 535 30.5 539.5 c 128,-1,49
 29 544 29 544 30 549 c 0,50,51
 32 553 32 553 36 556.5 c 128,-1,52
 40 560 40 560 45 560 c 2,53,-1
 374 574 l 1,54,-1
 487 888 l 2,55,56
 489 893 489 893 493 895.5 c 128,-1,57
 497 898 497 898 501 898 c 1,58,-1
 501 898 l 1,59,60
 506 898 506 898 510 895.5 c 128,-1,61
 514 893 514 893 517 888 c 2,62,-1
 639 572 l 1,63,-1
 957 560 l 2,64,65
 962 560 962 560 966 556.5 c 128,-1,66
 970 553 970 553 971 549 c 0,67,68
 973 544 973 544 971.5 539.5 c 128,-1,69
 970 535 970 535 966 532 c 2,70,-1
 729 343 l 1,71,-1
 803 17 l 2,72,73
 804 12 804 12 802.5 7.5 c 128,-1,74
 801 3 801 3 796 1 c 0,75,76
 792 -2 792 -2 787 -1.5 c 128,-1,77
 782 -1 782 -1 778 1 c 2,78,-1
 511 194 l 1,79,-1
 232 1 l 2,80,81
 230 -1 230 -1 227.5 -1.5 c 128,-1,82
 225 -2 225 -2 223 -2 c 1,83,-1
 223 -2 l 1,0,1
266 176 m 1,84,85
 266 176 266 176 265 176 c 128,-1,86
 264 176 264 176 262 176 c 0,87,88
 256 178 256 178 253 183.5 c 128,-1,89
 250 189 250 189 251 195 c 2,90,-1
 252 198 l 2,91,92
 254 204 254 204 259.5 207.5 c 128,-1,93
 265 211 265 211 271 209 c 0,94,95
 278 208 278 208 281 202 c 128,-1,96
 284 196 284 196 283 190 c 2,97,-1
 282 187 l 2,98,99
 280 183 280 183 276 179.5 c 128,-1,100
 272 176 272 176 266 176 c 1,101,-1
 266 176 l 1,84,85
362 389 m 1,102,103
 359 389 359 389 357 389.5 c 128,-1,104
 355 390 355 390 352 392 c 2,105,-1
 243 466 l 2,106,107
 239 469 239 469 237 473.5 c 128,-1,108
 235 478 235 478 237 483 c 256,109,110
 239 488 239 488 242.5 491 c 128,-1,111
 246 494 246 494 251 495 c 2,112,-1
 424 507 l 1,113,-1
 465 608 l 2,114,115
 467 614 467 614 473 616.5 c 128,-1,116
 479 619 479 619 485 617 c 0,117,118
 491 614 491 614 494 608 c 128,-1,119
 497 602 497 602 494 596 c 2,120,-1
 451 487 l 2,121,122
 449 482 449 482 445.5 480 c 128,-1,123
 442 478 442 478 438 477 c 2,124,-1
 300 468 l 1,125,-1
 372 420 l 2,126,127
 377 416 377 416 378.5 410 c 128,-1,128
 380 404 380 404 376 398 c 0,129,130
 373 393 373 393 369 391 c 128,-1,131
 365 389 365 389 362 389 c 1,132,-1
 362 389 l 1,102,103
EndSplineSet
EndChar

StartChar: uniE937
Encoding: 59703 59703 59
Width: 1018
Flags: W
LayerCount: 2
Fore
SplineSet
737 960 m 1,0,-1
 4 218 l 1,1,-1
 0 -64 l 1,2,-1
 285 -60 l 1,3,-1
 1019 682 l 1,4,-1
 737 960 l 1,0,-1
737 849 m 1,5,-1
 906 682 l 1,6,-1
 829 603 l 1,7,-1
 662 772 l 1,8,-1
 737 849 l 1,5,-1
252 18 m 1,9,-1
 79 16 l 1,10,-1
 81 185 l 1,11,-1
 605 716 l 1,12,-1
 774 548 l 1,13,-1
 252 18 l 1,9,-1
EndSplineSet
EndChar

StartChar: uniE938
Encoding: 59704 59704 60
Width: 1002
Flags: W
LayerCount: 2
Fore
SplineSet
610 -32 m 1,0,-1
 392 -32 l 2,1,2
 386 -32 386 -32 382 -27.5 c 128,-1,3
 378 -23 378 -23 378 -17 c 2,4,-1
 378 57 l 1,5,6
 361 62 361 62 344.5 69 c 128,-1,7
 328 76 328 76 313 84 c 1,8,-1
 260 31 l 2,9,10
 256 27 256 27 250 27 c 128,-1,11
 244 27 244 27 240 31 c 2,12,-1
 84 186 l 2,13,14
 80 191 80 191 80 197 c 128,-1,15
 80 203 80 203 84 206 c 2,16,-1
 139 261 l 1,17,18
 131 276 131 276 125 292 c 128,-1,19
 119 308 119 308 114 324 c 1,20,-1
 35 324 l 2,21,22
 29 324 29 324 25 328 c 128,-1,23
 21 332 21 332 21 338 c 2,24,-1
 21 557 l 2,25,26
 21 563 21 563 25 567 c 128,-1,27
 29 571 29 571 35 571 c 2,28,-1
 120 571 l 1,29,30
 125 585 125 585 131 599.5 c 128,-1,31
 137 614 137 614 145 629 c 1,32,-1
 84 690 l 2,33,34
 80 694 80 694 80 700 c 128,-1,35
 80 706 80 706 84 710 c 2,36,-1
 239 865 l 2,37,38
 241 867 241 867 243.5 868 c 128,-1,39
 246 869 246 869 249 869 c 1,40,-1
 249 869 l 1,41,42
 252 869 252 869 254.5 867.5 c 128,-1,43
 257 866 257 866 259 865 c 2,44,-1
 323 801 l 1,45,46
 336 807 336 807 349.5 813 c 128,-1,47
 363 819 363 819 377 823 c 1,48,-1
 377 913 l 2,49,50
 377 919 377 919 381 923.5 c 128,-1,51
 385 928 385 928 391 928 c 2,52,-1
 609 928 l 2,53,54
 615 928 615 928 619 923.5 c 128,-1,55
 623 919 623 919 623 913 c 2,56,-1
 623 822 l 1,57,58
 637 818 637 818 650.5 812.5 c 128,-1,59
 664 807 664 807 677 800 c 1,60,-1
 741 864 l 2,61,62
 746 868 746 868 752 868 c 128,-1,63
 758 868 758 868 762 864 c 2,64,-1
 916 710 l 2,65,66
 920 705 920 705 920 699 c 128,-1,67
 920 693 920 693 916 690 c 2,68,-1
 854 628 l 1,69,70
 861 614 861 614 867 600.5 c 128,-1,71
 873 587 873 587 878 572 c 1,72,-1
 964 572 l 2,73,74
 970 572 970 572 974 568 c 128,-1,75
 978 564 978 564 978 558 c 2,76,-1
 978 340 l 2,77,78
 978 334 978 334 974 330 c 128,-1,79
 970 326 970 326 964 326 c 2,80,-1
 883 326 l 1,81,82
 879 310 879 310 873 294.5 c 128,-1,83
 867 279 867 279 859 264 c 1,84,-1
 916 207 l 2,85,86
 920 203 920 203 920 197 c 128,-1,87
 920 191 920 191 916 187 c 2,88,-1
 763 31 l 2,89,90
 758 27 758 27 752 27 c 128,-1,91
 746 27 746 27 742 31 c 2,92,-1
 689 85 l 1,93,94
 674 77 674 77 657.5 70 c 128,-1,95
 641 63 641 63 625 58 c 1,96,-1
 625 -17 l 2,97,98
 624 -23 624 -23 620 -27.5 c 128,-1,99
 616 -32 616 -32 610 -32 c 1,100,-1
 610 -32 l 1,0,-1
406 -2 m 1,101,-1
 595 -2 l 1,102,-1
 595 69 l 2,103,104
 595 73 595 73 597.5 77 c 128,-1,105
 600 81 600 81 605 83 c 0,106,107
 625 89 625 89 644.5 97.5 c 128,-1,108
 664 106 664 106 683 116 c 0,109,110
 687 119 687 119 692 118 c 128,-1,111
 697 117 697 117 700 114 c 2,112,-1
 751 64 l 1,113,-1
 884 197 l 1,114,-1
 831 251 l 2,115,116
 828 254 828 254 826.5 259 c 128,-1,117
 825 264 825 264 828 268 c 0,118,119
 837 286 837 286 844.5 305 c 128,-1,120
 852 324 852 324 857 344 c 0,121,122
 858 349 858 349 862 352 c 128,-1,123
 866 355 866 355 871 355 c 2,124,-1
 949 355 l 1,125,-1
 949 543 l 1,126,-1
 868 543 l 2,127,128
 864 543 864 543 860.5 544.5 c 128,-1,129
 857 546 857 546 855 550 c 0,130,131
 854 551 854 551 854 551.5 c 128,-1,132
 854 552 854 552 853 553 c 0,133,134
 847 571 847 571 839.5 588.5 c 128,-1,135
 832 606 832 606 822 623 c 0,136,137
 820 627 820 627 820.5 632 c 128,-1,138
 821 637 821 637 824 640 c 2,139,-1
 884 700 l 1,140,-1
 753 833 l 1,141,-1
 691 772 l 2,142,143
 688 769 688 769 683 768 c 128,-1,144
 678 767 678 767 674 769 c 0,145,146
 657 778 657 778 639.5 785 c 128,-1,147
 622 792 622 792 605 797 c 0,148,149
 599 798 599 798 596.5 802.5 c 128,-1,150
 594 807 594 807 595 812 c 2,151,-1
 595 899 l 1,152,-1
 406 899 l 1,153,-1
 406 812 l 2,154,155
 406 808 406 808 403.5 803.5 c 128,-1,156
 401 799 401 799 396 798 c 0,157,158
 379 793 379 793 361.5 786 c 128,-1,159
 344 779 344 779 328 771 c 0,160,161
 324 768 324 768 319 768.5 c 128,-1,162
 314 769 314 769 310 773 c 2,163,-1
 249 833 l 1,164,-1
 115 700 l 1,165,-1
 173 642 l 2,166,167
 177 638 177 638 177.5 633.5 c 128,-1,168
 178 629 178 629 175 625 c 0,169,170
 165 608 165 608 157.5 590 c 128,-1,171
 150 572 150 572 144 553 c 0,172,173
 142 548 142 548 138.5 545.5 c 128,-1,174
 135 543 135 543 130 543 c 2,175,-1
 50 543 l 1,176,-1
 50 354 l 1,177,-1
 126 354 l 2,178,179
 130 354 130 354 134 351 c 128,-1,180
 138 348 138 348 140 343 c 2,181,-1
 141 341 l 1,182,183
 146 322 146 322 153.5 303 c 128,-1,184
 161 284 161 284 170 266 c 0,185,186
 172 262 172 262 171.5 257.5 c 128,-1,187
 171 253 171 253 167 249 c 2,188,-1
 114 196 l 1,189,-1
 248 63 l 1,190,-1
 299 113 l 2,191,192
 303 117 303 117 307.5 117.5 c 128,-1,193
 312 118 312 118 316 115 c 0,194,195
 335 105 335 105 355 96.5 c 128,-1,196
 375 88 375 88 395 82 c 0,197,198
 400 80 400 80 402.5 76.5 c 128,-1,199
 405 73 405 73 405 68 c 2,200,-1
 406 -2 l 1,201,-1
 406 -2 l 1,101,-1
500 255 m 0,202,203
 422 255 422 255 366 310.5 c 128,-1,204
 310 366 310 366 310 445 c 256,205,206
 310 524 310 524 365.5 580 c 128,-1,207
 421 636 421 636 500 636 c 256,208,209
 579 636 579 636 635 580 c 128,-1,210
 691 524 691 524 691 445 c 256,211,212
 691 366 691 366 635 310.5 c 128,-1,213
 579 255 579 255 500 255 c 0,202,203
500 605 m 0,214,215
 434 605 434 605 386.5 558 c 128,-1,216
 339 511 339 511 339 444 c 0,217,218
 339 378 339 378 386.5 330.5 c 128,-1,219
 434 283 434 283 500 283 c 0,220,221
 567 283 567 283 614 330.5 c 128,-1,222
 661 378 661 378 661 444 c 0,223,224
 661 511 661 511 614 558 c 128,-1,225
 567 605 567 605 500 605 c 0,214,215
500 182 m 1,226,227
 494 182 494 182 490 186 c 128,-1,228
 486 190 486 190 486 196 c 256,229,230
 486 202 486 202 490 206 c 128,-1,231
 494 210 494 210 500 210 c 0,232,233
 573 210 573 210 633.5 252 c 128,-1,234
 694 294 694 294 719 362 c 0,235,236
 721 368 721 368 726.5 370.5 c 128,-1,237
 732 373 732 373 738 371 c 0,238,239
 744 368 744 368 746.5 362.5 c 128,-1,240
 749 357 749 357 746 351 c 0,241,242
 732 313 732 313 708 282 c 0,243,244
 683 251 683 251 650.5 228.5 c 128,-1,245
 618 206 618 206 580 194 c 0,246,247
 541 182 541 182 500 182 c 1,248,-1
 500 182 l 1,226,227
749 406 m 1,249,-1
 749 406 l 1,250,251
 742 407 742 407 738 411.5 c 128,-1,252
 734 416 734 416 734 422 c 0,253,254
 734 424 734 424 734 425 c 128,-1,255
 734 426 734 426 734 427 c 0,256,257
 735 433 735 433 739 437 c 128,-1,258
 743 441 743 441 750 440 c 0,259,260
 756 440 756 440 759.5 435.5 c 128,-1,261
 763 431 763 431 763 425 c 0,262,263
 763 424 763 424 762.5 422.5 c 128,-1,264
 762 421 762 421 762 419 c 0,265,266
 762 413 762 413 758 409.5 c 128,-1,267
 754 406 754 406 749 406 c 1,249,-1
EndSplineSet
EndChar

StartChar: uniE939
Encoding: 59705 59705 61
Width: 1002
Flags: W
LayerCount: 2
Fore
SplineSet
986 346 m 1,0,-1
 986 550 l 1,1,-1
 882 550 l 1,2,3
 875 577 875 577 864.5 602 c 128,-1,4
 854 627 854 627 840 650 c 1,5,-1
 912 724 l 1,6,-1
 766 867 l 1,7,-1
 693 792 l 1,8,9
 673 803 673 803 650.5 812 c 128,-1,10
 628 821 628 821 604 828 c 1,11,-1
 604 932 l 1,12,-1
 399 932 l 1,13,-1
 399 825 l 1,14,15
 373 818 373 818 348.5 807.5 c 128,-1,16
 324 797 324 797 302 784 c 1,17,-1
 225 860 l 1,18,-1
 82 712 l 1,19,-1
 161 635 l 1,20,21
 150 615 150 615 141.5 593.5 c 128,-1,22
 133 572 133 572 127 549 c 1,23,-1
 16 549 l 1,24,-1
 16 345 l 1,25,-1
 128 345 l 1,26,27
 135 320 135 320 145 296 c 128,-1,28
 155 272 155 272 168 250 c 1,29,-1
 91 171 l 1,30,-1
 237 28 l 1,31,-1
 314 108 l 1,32,33
 334 96 334 96 356 87 c 128,-1,34
 378 78 378 78 401 72 c 1,35,-1
 401 -38 l 1,36,-1
 605 -38 l 1,37,-1
 605 70 l 1,38,39
 631 77 631 77 655.5 87 c 128,-1,40
 680 97 680 97 703 110 c 1,41,-1
 779 36 l 1,42,-1
 921 182 l 1,43,-1
 847 255 l 1,44,45
 859 276 859 276 868 298.5 c 128,-1,46
 877 321 877 321 883 345 c 1,47,-1
 986 345 l 1,48,-1
 986 346 l 1,49,-1
 986 346 l 1,0,-1
505 244 m 1,50,51
 462 244 462 244 425 260 c 256,52,53
 388 276 388 276 360.5 303.5 c 128,-1,54
 333 331 333 331 317 368 c 256,55,56
 301 405 301 405 301 447 c 0,57,58
 301 490 301 490 317 527 c 256,59,60
 333 564 333 564 360.5 592 c 128,-1,61
 388 620 388 620 425 636 c 256,62,63
 462 652 462 652 505 652 c 0,64,65
 547 652 547 652 584 636 c 256,66,67
 621 620 621 620 648.5 592.5 c 128,-1,68
 676 565 676 565 692 528 c 256,69,70
 708 491 708 491 708 449 c 0,71,72
 708 406 708 406 692 369 c 256,73,74
 676 332 676 332 648.5 304 c 128,-1,75
 621 276 621 276 584 260 c 256,76,77
 547 244 547 244 505 244 c 1,78,-1
 505 244 l 1,50,51
EndSplineSet
EndChar

StartChar: uniE93A
Encoding: 59706 59706 62
Width: 1013
Flags: W
LayerCount: 2
Fore
SplineSet
69 528 m 1,0,1
 70 528 70 528 70.5 528 c 128,-1,2
 71 528 71 528 73 528 c 0,3,4
 78 528 78 528 82 532 c 128,-1,5
 86 536 86 536 88 541 c 0,6,7
 93 565 93 565 99 583 c 128,-1,8
 105 601 105 601 112 619 c 1,9,10
 117 616 117 616 122.5 616 c 128,-1,11
 128 616 128 616 134 616 c 0,12,13
 158 616 158 616 175 633 c 128,-1,14
 192 650 192 650 192 673 c 0,15,16
 192 697 192 697 176 713 c 128,-1,17
 160 729 160 729 136 729 c 256,18,19
 112 729 112 729 95 712 c 128,-1,20
 78 695 78 695 78 671 c 0,21,22
 78 662 78 662 81 653.5 c 128,-1,23
 84 645 84 645 89 638 c 1,24,25
 80 617 80 617 72.5 595 c 128,-1,26
 65 573 65 573 60 545 c 0,27,28
 57 539 57 539 60 534 c 128,-1,29
 63 529 63 529 69 528 c 1,30,-1
 69 528 l 1,0,1
136 699 m 256,31,32
 147 699 147 699 154.5 691.5 c 128,-1,33
 162 684 162 684 162 673 c 256,34,35
 162 662 162 662 154.5 654.5 c 128,-1,36
 147 647 147 647 136 647 c 256,37,38
 125 647 125 647 117.5 654.5 c 128,-1,39
 110 662 110 662 110 673 c 256,40,41
 110 684 110 684 117.5 691.5 c 128,-1,42
 125 699 125 699 136 699 c 256,31,32
1005 448 m 1,43,44
 1005 469 1005 469 991.5 485.5 c 128,-1,45
 978 502 978 502 957 506 c 1,46,47
 948 583 948 583 914 651 c 256,48,49
 880 719 880 719 828 771.5 c 128,-1,50
 776 824 776 824 708 858 c 0,51,52
 640 893 640 893 562 902 c 1,53,54
 558 922 558 922 542 934.5 c 128,-1,55
 526 947 526 947 506 947 c 0,56,57
 485 947 485 947 470 934.5 c 128,-1,58
 455 922 455 922 451 902 c 1,59,60
 372 893 372 893 300.5 857.5 c 128,-1,61
 229 822 229 822 175 765 c 0,62,63
 171 760 171 760 171 753 c 128,-1,64
 171 746 171 746 175 742 c 0,65,66
 178 739 178 739 180.5 738.5 c 128,-1,67
 183 738 183 738 186 738 c 256,68,69
 189 738 189 738 192 739.5 c 128,-1,70
 195 741 195 741 197 744 c 0,71,72
 248 797 248 797 313.5 829.5 c 128,-1,73
 379 862 379 862 451 871 c 1,74,75
 451 871 451 871 451 870.5 c 128,-1,76
 451 870 451 870 451 869 c 0,77,78
 434 853 434 853 392 806 c 128,-1,79
 350 759 350 759 311 688 c 1,80,-1
 229 688 l 2,81,82
 222 688 222 688 218 683.5 c 128,-1,83
 214 679 214 679 214 673 c 0,84,85
 214 668 214 668 218.5 663 c 128,-1,86
 223 658 223 658 229 658 c 2,87,-1
 294 658 l 1,88,89
 275 616 275 616 260.5 568 c 128,-1,90
 246 520 246 520 242 467 c 1,91,-1
 160 467 l 2,92,93
 153 467 153 467 149 462 c 128,-1,94
 145 457 145 457 145 452 c 0,95,96
 145 446 145 446 150 441.5 c 128,-1,97
 155 437 155 437 160 437 c 2,98,-1
 242 437 l 1,99,100
 242 385 242 385 253.5 335 c 128,-1,101
 265 285 265 285 289 238 c 1,102,-1
 209 238 l 2,103,104
 202 238 202 238 198 233 c 128,-1,105
 194 228 194 228 194 223 c 0,106,107
 194 217 194 217 198.5 212.5 c 128,-1,108
 203 208 203 208 209 208 c 2,109,-1
 305 208 l 1,110,111
 330 163 330 163 366.5 120 c 128,-1,112
 403 77 403 77 449 35 c 1,113,114
 377 42 377 42 315 72 c 0,115,116
 252 102 252 102 203.5 149.5 c 128,-1,117
 155 197 155 197 124 259 c 0,118,119
 92 321 92 321 82 392 c 1,120,121
 100 398 100 398 111.5 413 c 128,-1,122
 123 428 123 428 123 448 c 0,123,124
 123 472 123 472 106 489 c 128,-1,125
 89 506 89 506 65 506 c 256,126,127
 41 506 41 506 24 489 c 128,-1,128
 7 472 7 472 7 448 c 0,129,130
 7 427 7 427 20 411.5 c 128,-1,131
 33 396 33 396 52 392 c 1,132,-1
 52 392 l 1,133,134
 62 314 62 314 96 246 c 0,135,136
 131 178 131 178 184 125.5 c 128,-1,137
 237 73 237 73 305 40 c 256,138,139
 373 7 373 7 451 -3 c 1,140,141
 455 -24 455 -24 470.5 -37.5 c 128,-1,142
 486 -51 486 -51 508 -51 c 0,143,144
 529 -51 529 -51 545.5 -37.5 c 128,-1,145
 562 -24 562 -24 566 -3 c 1,146,147
 643 7 643 7 710 41 c 256,148,149
 777 75 777 75 829 127 c 128,-1,150
 881 179 881 179 915 246 c 256,151,152
 949 313 949 313 959 390 c 1,153,154
 978 394 978 394 991.5 410 c 128,-1,155
 1005 426 1005 426 1005 448 c 1,156,-1
 1005 448 l 1,43,44
37 448 m 1,157,158
 37 459 37 459 44.5 466.5 c 128,-1,159
 52 474 52 474 63 474 c 256,160,161
 74 474 74 474 81.5 466.5 c 128,-1,162
 89 459 89 459 89 448 c 256,163,164
 89 437 89 437 81.5 429.5 c 128,-1,165
 74 422 74 422 63 422 c 256,166,167
 52 422 52 422 44.5 429.5 c 128,-1,168
 37 437 37 437 37 448 c 1,169,-1
 37 448 l 1,157,158
700 645 m 256,170,171
 689 645 689 645 681.5 652.5 c 128,-1,172
 674 660 674 660 674 671 c 0,173,174
 674 683 674 683 681.5 690 c 128,-1,175
 689 697 689 697 700 697 c 256,176,177
 711 697 711 697 718.5 690 c 128,-1,178
 726 683 726 683 726 671 c 0,179,180
 726 660 726 660 718.5 652.5 c 128,-1,181
 711 645 711 645 700 645 c 256,170,171
644 688 m 1,182,-1
 562 688 l 2,183,184
 555 688 555 688 551 683.5 c 128,-1,185
 547 679 547 679 547 673 c 0,186,187
 547 668 547 668 552 663 c 128,-1,188
 557 658 557 658 562 658 c 2,189,-1
 644 658 l 1,190,191
 650 640 650 640 664 628.5 c 128,-1,192
 678 617 678 617 696 616 c 1,193,194
 712 578 712 578 721.5 540 c 128,-1,195
 731 502 731 502 734 465 c 1,196,-1
 609 465 l 2,197,198
 602 465 602 465 598 460 c 128,-1,199
 594 455 594 455 594 450 c 0,200,201
 594 444 594 444 598.5 439.5 c 128,-1,202
 603 435 603 435 609 435 c 2,203,-1
 735 435 l 1,204,205
 735 394 735 394 727 355 c 128,-1,206
 719 316 719 316 704 279 c 0,207,208
 702 279 702 279 701 279 c 128,-1,209
 700 279 700 279 700 279 c 2,210,211
 680 279 680 279 665 266.5 c 128,-1,212
 650 254 650 254 644 236 c 1,213,-1
 562 236 l 2,214,215
 555 236 555 236 551 231 c 128,-1,216
 547 226 547 226 547 221 c 0,217,218
 547 215 547 215 552 210.5 c 128,-1,219
 557 206 557 206 562 206 c 2,220,-1
 644 206 l 1,221,222
 646 200 646 200 648.5 195 c 128,-1,223
 651 190 651 190 653 185 c 1,224,225
 631 152 631 152 603 119.5 c 128,-1,226
 575 87 575 87 540 55 c 1,227,228
 536 58 536 58 530.5 60.5 c 128,-1,229
 525 63 525 63 519 64 c 1,230,-1
 519 390 l 1,231,232
 539 394 539 394 552.5 410.5 c 128,-1,233
 566 427 566 427 566 448 c 256,234,235
 566 469 566 469 552.5 485.5 c 128,-1,236
 539 502 539 502 519 506 c 1,237,-1
 519 833 l 1,238,239
 525 835 525 835 529.5 837.5 c 128,-1,240
 534 840 534 840 540 843 c 1,241,242
 557 827 557 827 588.5 791 c 128,-1,243
 620 755 620 755 652 703 c 0,244,245
 650 700 650 700 648 696 c 128,-1,246
 646 692 646 692 644 688 c 1,247,-1
 644 688 l 1,182,-1
674 217 m 256,248,249
 674 228 674 228 681.5 235.5 c 128,-1,250
 689 243 689 243 700 243 c 256,251,252
 711 243 711 243 718.5 235.5 c 128,-1,253
 726 228 726 228 726 217 c 256,254,255
 726 206 726 206 718.5 198.5 c 128,-1,256
 711 191 711 191 700 191 c 256,257,258
 689 191 689 191 681.5 198.5 c 128,-1,259
 674 206 674 206 674 217 c 256,248,249
510 474 m 256,260,261
 521 474 521 474 528.5 466.5 c 128,-1,262
 536 459 536 459 536 448 c 256,263,264
 536 437 536 437 528.5 429.5 c 128,-1,265
 521 422 521 422 510 422 c 256,266,267
 499 422 499 422 491.5 429.5 c 128,-1,268
 484 437 484 437 484 448 c 256,269,270
 484 459 484 459 491.5 466.5 c 128,-1,271
 499 474 499 474 510 474 c 256,260,261
506 915 m 0,272,273
 518 915 518 915 525 907.5 c 128,-1,274
 532 900 532 900 532 889 c 256,275,276
 532 878 532 878 525 870.5 c 128,-1,277
 518 863 518 863 506 863 c 0,278,279
 495 863 495 863 487.5 870.5 c 128,-1,280
 480 878 480 878 480 889 c 256,281,282
 480 900 480 900 487.5 907.5 c 128,-1,283
 495 915 495 915 506 915 c 0,272,273
274 431 m 1,284,285
 274 509 274 509 298 577 c 0,286,287
 323 645 323 645 355.5 699 c 128,-1,288
 388 753 388 753 421 790 c 0,289,290
 453 827 453 827 469 843 c 1,291,292
 473 839 473 839 478.5 836 c 128,-1,293
 484 833 484 833 490 832 c 1,294,-1
 490 684 l 1,295,-1
 372 684 l 2,296,297
 365 684 365 684 361 679.5 c 128,-1,298
 357 675 357 675 357 670 c 0,299,300
 357 664 357 664 362 659.5 c 128,-1,301
 367 655 367 655 372 655 c 2,302,-1
 490 655 l 1,303,-1
 490 500 l 1,304,305
 477 496 477 496 467 485.5 c 128,-1,306
 457 475 457 475 454 461 c 1,307,-1
 328 461 l 2,308,309
 321 461 321 461 317 456.5 c 128,-1,310
 313 452 313 452 313 446 c 0,311,312
 313 441 313 441 317.5 436 c 128,-1,313
 322 431 322 431 328 431 c 2,314,-1
 454 431 l 1,315,316
 458 417 458 417 467.5 407.5 c 128,-1,317
 477 398 477 398 490 392 c 1,318,-1
 490 232 l 1,319,-1
 369 232 l 2,320,321
 362 232 362 232 358 227.5 c 128,-1,322
 354 223 354 223 354 217 c 0,323,324
 354 212 354 212 358.5 207 c 128,-1,325
 363 202 363 202 369 202 c 2,326,-1
 490 202 l 1,327,-1
 490 63 l 1,328,329
 484 61 484 61 478.5 58.5 c 128,-1,330
 473 56 473 56 469 51 c 1,331,332
 421 95 421 95 384 141 c 0,333,334
 348 187 348 187 323.5 235 c 128,-1,335
 299 283 299 283 286 332 c 0,336,337
 274 381 274 381 274 431 c 1,338,-1
 274 431 l 1,284,285
506 -21 m 0,339,340
 495 -21 495 -21 487.5 -13.5 c 128,-1,341
 480 -6 480 -6 480 5 c 256,342,343
 480 16 480 16 487.5 23.5 c 128,-1,344
 495 31 495 31 506 31 c 0,345,346
 518 31 518 31 525 23.5 c 128,-1,347
 532 16 532 16 532 5 c 256,348,349
 532 -6 532 -6 525 -13.5 c 128,-1,350
 518 -21 518 -21 506 -21 c 0,339,340
562 29 m 1,351,352
 597 61 597 61 627 94.5 c 128,-1,353
 657 128 657 128 680 163 c 0,354,355
 684 162 684 162 689 160.5 c 128,-1,356
 694 159 694 159 700 159 c 0,357,358
 724 159 724 159 741 176 c 128,-1,359
 758 193 758 193 758 217 c 0,360,361
 758 231 758 231 751.5 244 c 128,-1,362
 745 257 745 257 734 264 c 1,363,364
 752 308 752 308 760 354 c 128,-1,365
 768 400 768 400 765 446 c 1,366,-1
 765 446 l 1,367,368
 765 446 765 446 765 446.5 c 128,-1,369
 765 447 765 447 765 448 c 0,370,371
 764 490 764 490 754 533 c 128,-1,372
 744 576 744 576 726 619 c 1,373,374
 740 626 740 626 748 639.5 c 128,-1,375
 756 653 756 653 756 670 c 0,376,377
 756 693 756 693 739 710 c 128,-1,378
 722 727 722 727 698 727 c 0,379,380
 691 727 691 727 685.5 725.5 c 128,-1,381
 680 724 680 724 674 722 c 1,382,383
 640 776 640 776 607 814 c 128,-1,384
 574 852 574 852 559 867 c 1,385,-1
 559 869 l 1,386,387
 605 862 605 862 647 847 c 0,388,389
 690 831 690 831 727.5 807.5 c 128,-1,390
 765 784 765 784 797 753 c 0,391,392
 829 721 829 721 855 684 c 1,393,-1
 778 684 l 2,394,395
 771 684 771 684 767 679.5 c 128,-1,396
 763 675 763 675 763 670 c 0,397,398
 763 664 763 664 768 659.5 c 128,-1,399
 773 655 773 655 778 655 c 2,400,-1
 873 655 l 1,401,402
 893 620 893 620 905.5 581 c 128,-1,403
 918 542 918 542 923 500 c 1,404,405
 911 495 911 495 902 485 c 128,-1,406
 893 475 893 475 890 463 c 1,407,-1
 801 463 l 2,408,409
 794 463 794 463 790 458.5 c 128,-1,410
 786 454 786 454 786 448 c 256,411,412
 786 442 786 442 790.5 437.5 c 128,-1,413
 795 433 795 433 801 433 c 2,414,-1
 890 433 l 1,415,416
 894 421 894 421 902.5 410.5 c 128,-1,417
 911 400 911 400 923 396 c 1,418,419
 918 353 918 353 904 311.5 c 128,-1,420
 890 270 890 270 868 234 c 1,421,-1
 776 234 l 2,422,423
 769 234 769 234 765 229.5 c 128,-1,424
 761 225 761 225 761 219 c 256,425,426
 761 213 761 213 766 208.5 c 128,-1,427
 771 204 771 204 776 204 c 2,428,-1
 847 204 l 1,429,430
 823 168 823 168 792 139 c 256,431,432
 761 110 761 110 724.5 87.5 c 128,-1,433
 688 65 688 65 647 50 c 256,434,435
 606 35 606 35 562 29 c 1,436,-1
 562 29 l 1,351,352
948 420 m 0,437,438
 936 420 936 420 929 427.5 c 128,-1,439
 922 435 922 435 922 446 c 256,440,441
 922 457 922 457 929 464.5 c 128,-1,442
 936 472 936 472 948 472 c 0,443,444
 959 472 959 472 966.5 464.5 c 128,-1,445
 974 457 974 457 974 446 c 0,446,447
 974 436 974 436 966.5 428 c 128,-1,448
 959 420 959 420 948 420 c 0,437,438
EndSplineSet
EndChar

StartChar: uniE93B
Encoding: 59707 59707 63
Width: 1039
Flags: W
LayerCount: 2
Fore
SplineSet
735 220 m 256,0,1
 735 209 735 209 727.5 201.5 c 128,-1,2
 720 194 720 194 709 194 c 256,3,4
 698 194 698 194 690.5 201.5 c 128,-1,5
 683 209 683 209 683 220 c 256,6,7
 683 231 683 231 690.5 238.5 c 128,-1,8
 698 246 698 246 709 246 c 256,9,10
 720 246 720 246 727.5 238.5 c 128,-1,11
 735 231 735 231 735 220 c 256,0,1
547 447 m 256,12,13
 547 436 547 436 539 428.5 c 128,-1,14
 531 421 531 421 520 421 c 0,15,16
 510 421 510 421 502 428.5 c 128,-1,17
 494 436 494 436 494 447 c 256,18,19
 494 458 494 458 502 465.5 c 128,-1,20
 510 473 510 473 520 473 c 0,21,22
 531 473 531 473 539 465.5 c 128,-1,23
 547 458 547 458 547 447 c 256,12,13
544 12 m 256,24,25
 544 1 544 1 536 -7 c 128,-1,26
 528 -15 528 -15 517 -15 c 0,27,28
 507 -15 507 -15 499 -7 c 128,-1,29
 491 1 491 1 491 12 c 256,30,31
 491 23 491 23 499 30.5 c 128,-1,32
 507 38 507 38 517 38 c 0,33,34
 528 38 528 38 536 30.5 c 128,-1,35
 544 23 544 23 544 12 c 256,24,25
735 670 m 256,36,37
 735 659 735 659 727.5 651 c 128,-1,38
 720 643 720 643 709 643 c 256,39,40
 698 643 698 643 690.5 651 c 128,-1,41
 683 659 683 659 683 670 c 256,42,43
 683 681 683 681 690.5 688.5 c 128,-1,44
 698 696 698 696 709 696 c 256,45,46
 720 696 720 696 727.5 688.5 c 128,-1,47
 735 681 735 681 735 670 c 256,36,37
979 447 m 256,48,49
 979 436 979 436 971.5 428.5 c 128,-1,50
 964 421 964 421 953 421 c 256,51,52
 942 421 942 421 934.5 428.5 c 128,-1,53
 927 436 927 436 927 447 c 256,54,55
 927 458 927 458 934.5 465.5 c 128,-1,56
 942 473 942 473 953 473 c 256,57,58
 964 473 964 473 971.5 465.5 c 128,-1,59
 979 458 979 458 979 447 c 256,48,49
533 504 m 1,60,61
 553 501 553 501 566 485.5 c 128,-1,62
 579 470 579 470 579 449 c 256,63,64
 579 428 579 428 566 412.5 c 128,-1,65
 553 397 553 397 533 393 c 1,66,-1
 533 69 l 1,67,68
 539 68 539 68 543.5 65 c 128,-1,69
 548 62 548 62 553 60 c 1,70,71
 587 91 587 91 615.5 123 c 128,-1,72
 644 155 644 155 666 188 c 1,73,74
 662 192 662 192 659.5 197 c 128,-1,75
 657 202 657 202 655 208 c 1,76,-1
 575 208 l 2,77,78
 568 208 568 208 563.5 212 c 128,-1,79
 559 216 559 216 559 223 c 256,80,81
 559 230 559 230 563.5 234.5 c 128,-1,82
 568 239 568 239 575 239 c 2,83,-1
 655 239 l 1,84,85
 659 257 659 257 675 268.5 c 128,-1,86
 691 280 691 280 710 280 c 0,87,88
 712 280 712 280 713 280 c 128,-1,89
 714 280 714 280 715 280 c 0,90,91
 730 319 730 319 738 357.5 c 128,-1,92
 746 396 746 396 746 436 c 1,93,-1
 621 436 l 2,94,95
 614 436 614 436 609.5 440.5 c 128,-1,96
 605 445 605 445 605 452 c 256,97,98
 605 459 605 459 609.5 463 c 128,-1,99
 614 467 614 467 621 467 c 2,100,-1
 744 467 l 1,101,102
 742 504 742 504 733 541.5 c 128,-1,103
 724 579 724 579 707 616 c 1,104,105
 689 617 689 617 674 628.5 c 128,-1,106
 659 640 659 640 655 657 c 1,107,-1
 575 657 l 2,108,109
 568 657 568 657 563.5 661.5 c 128,-1,110
 559 666 559 666 559 673 c 256,111,112
 559 680 559 680 563.5 684 c 128,-1,113
 568 688 568 688 575 688 c 2,114,-1
 655 688 l 1,115,116
 656 693 656 693 658 696.5 c 128,-1,117
 660 700 660 700 663 704 c 1,118,119
 631 755 631 755 600 790.5 c 128,-1,120
 569 826 569 826 553 843 c 1,121,122
 548 839 548 839 543.5 837 c 128,-1,123
 539 835 539 835 533 833 c 1,124,-1
 533 504 l 1,125,-1
 533 504 l 1,60,61
480 55 m 1,126,127
 485 58 485 58 490.5 61.5 c 128,-1,128
 496 65 496 65 502 66 c 1,129,-1
 502 203 l 1,130,-1
 383 203 l 2,131,132
 376 203 376 203 372 207.5 c 128,-1,133
 368 212 368 212 368 219 c 256,134,135
 368 226 368 226 372 230 c 128,-1,136
 376 234 376 234 383 234 c 2,137,-1
 502 234 l 1,138,-1
 502 395 l 1,139,140
 489 399 489 399 479.5 409 c 128,-1,141
 470 419 470 419 466 433 c 1,142,-1
 340 433 l 2,143,144
 333 433 333 433 328.5 437.5 c 128,-1,145
 324 442 324 442 324 449 c 256,146,147
 324 456 324 456 328.5 460 c 128,-1,148
 333 464 333 464 340 464 c 2,149,-1
 465 464 l 1,150,151
 468 478 468 478 478 488 c 128,-1,152
 488 498 488 498 500 503 c 1,153,-1
 500 654 l 1,154,-1
 386 654 l 2,155,156
 379 654 379 654 375 658.5 c 128,-1,157
 371 663 371 663 371 670 c 256,158,159
 371 677 371 677 375 681 c 128,-1,160
 379 685 379 685 386 685 c 2,161,-1
 502 685 l 1,162,-1
 502 829 l 1,163,164
 496 830 496 830 490.5 833 c 128,-1,165
 485 836 485 836 482 840 c 1,166,167
 466 824 466 824 433 787 c 0,168,169
 401 750 401 750 368.5 696.5 c 128,-1,170
 336 643 336 643 312 576 c 0,171,172
 287 508 287 508 287 432 c 0,173,174
 287 382 287 382 299 333 c 0,175,176
 312 285 312 285 336 237.5 c 128,-1,177
 360 190 360 190 396 145 c 0,178,179
 432 99 432 99 480 55 c 1,180,-1
 480 55 l 1,126,127
684 721 m 1,181,182
 690 723 690 723 696 725 c 128,-1,183
 702 727 702 727 709 727 c 0,184,185
 732 727 732 727 749 710 c 128,-1,186
 766 693 766 693 766 670 c 0,187,188
 766 653 766 653 757.5 640 c 128,-1,189
 749 627 749 627 737 620 c 1,190,191
 754 577 754 577 763.5 534.5 c 128,-1,192
 773 492 773 492 774 450 c 2,193,194
 774 450 774 450 774 449.5 c 128,-1,195
 774 449 774 449 774 449 c 257,196,197
 774 449 774 449 774 448.5 c 128,-1,198
 774 448 774 448 774 447 c 0,199,200
 775 401 775 401 767 356 c 128,-1,201
 759 311 759 311 741 267 c 1,202,203
 752 258 752 258 759 246 c 128,-1,204
 766 234 766 234 766 220 c 0,205,206
 766 197 766 197 749 180 c 128,-1,207
 732 163 732 163 709 163 c 0,208,209
 703 163 703 163 698 164 c 128,-1,210
 693 165 693 165 689 166 c 0,211,212
 666 133 666 133 636.5 99.5 c 128,-1,213
 607 66 607 66 571 33 c 1,214,215
 615 39 615 39 655 54 c 0,216,217
 696 68 696 68 732 90.5 c 128,-1,218
 768 113 768 113 800 142 c 0,219,220
 831 171 831 171 856 205 c 1,221,-1
 786 205 l 2,222,223
 779 205 779 205 775 209 c 128,-1,224
 771 213 771 213 771 220 c 256,225,226
 771 227 771 227 775 231.5 c 128,-1,227
 779 236 779 236 786 236 c 2,228,-1
 876 236 l 1,229,230
 897 272 897 272 911 312 c 128,-1,231
 925 352 925 352 930 395 c 1,232,233
 918 399 918 399 909.5 409 c 128,-1,234
 901 419 901 419 897 432 c 1,235,-1
 809 432 l 2,236,237
 802 432 802 432 798 436 c 128,-1,238
 794 440 794 440 794 447 c 256,239,240
 794 454 794 454 798 458.5 c 128,-1,241
 802 463 802 463 809 463 c 2,242,-1
 897 463 l 1,243,244
 901 475 901 475 910 485 c 128,-1,245
 919 495 919 495 931 500 c 1,246,247
 927 541 927 541 914.5 579.5 c 128,-1,248
 902 618 902 618 882 653 c 1,249,-1
 788 653 l 2,250,251
 781 653 781 653 776.5 657 c 128,-1,252
 772 661 772 661 772 668 c 256,253,254
 772 675 772 675 776.5 679.5 c 128,-1,255
 781 684 781 684 788 684 c 2,256,-1
 863 684 l 1,257,258
 839 721 839 721 808 752 c 0,259,260
 776 782 776 782 739 805.5 c 128,-1,261
 702 829 702 829 659 845 c 0,262,263
 617 860 617 860 571 866 c 1,264,265
 571 865 571 865 571 864.5 c 128,-1,266
 571 864 571 864 570 863 c 1,267,268
 586 849 586 849 618.5 812 c 128,-1,269
 651 775 651 775 684 721 c 1,270,-1
 684 721 l 1,181,182
460 1 m 1,271,272
 384 10 384 10 316 43 c 0,273,274
 249 77 249 77 196.5 128.5 c 128,-1,275
 144 180 144 180 110 247 c 0,276,277
 76 315 76 315 66 392 c 1,278,-1
 68 392 l 2,279,280
 54 395 54 395 44 404 c 128,-1,281
 34 413 34 413 28 426 c 1,282,283
 32 328 32 328 72 242 c 256,284,285
 112 156 112 156 177.5 92.5 c 128,-1,286
 243 29 243 29 330 -8 c 256,287,288
 417 -45 417 -45 516 -45 c 1,289,290
 495 -45 495 -45 479.5 -32 c 128,-1,291
 464 -19 464 -19 460 1 c 1,292,-1
 460 1 l 1,271,272
520 941 m 1,293,294
 519 941 519 941 519 941 c 129,-1,295
 519 941 519 941 517 941 c 1,296,297
 537 941 537 941 552.5 929 c 128,-1,298
 568 917 568 917 573 898 c 1,299,300
 650 888 650 888 717 854 c 0,301,302
 784 821 784 821 836 768.5 c 128,-1,303
 888 716 888 716 921 649 c 0,304,305
 954 581 954 581 964 504 c 1,306,307
 985 501 985 501 998.5 485 c 128,-1,308
 1012 469 1012 469 1012 447 c 0,309,310
 1012 426 1012 426 997.5 410 c 128,-1,311
 983 394 983 394 964 390 c 1,312,313
 953 315 953 315 919 248 c 0,314,315
 886 182 886 182 834 130.5 c 128,-1,316
 782 79 782 79 716 46 c 0,317,318
 649 12 649 12 573 2 c 1,319,320
 570 -17 570 -17 554 -31 c 128,-1,321
 538 -45 538 -45 517 -45 c 1,322,323
 519 -45 519 -45 519 -45 c 129,-1,324
 519 -45 519 -45 520 -45 c 0,325,326
 623 -45 623 -45 713 -7 c 0,327,328
 803 32 803 32 870 99 c 128,-1,329
 937 166 937 166 976 256 c 256,330,331
 1015 346 1015 346 1015 449 c 0,332,333
 1015 551 1015 551 976 641 c 256,334,335
 937 731 937 731 870 797.5 c 128,-1,336
 803 864 803 864 713 903 c 0,337,338
 623 941 623 941 520 941 c 1,339,-1
 520 941 l 1,293,294
107 447 m 256,340,341
 107 436 107 436 99 428.5 c 128,-1,342
 91 421 91 421 80 421 c 256,343,344
 69 421 69 421 61.5 428.5 c 128,-1,345
 54 436 54 436 54 447 c 256,346,347
 54 458 54 458 61.5 465.5 c 128,-1,348
 69 473 69 473 80 473 c 256,349,350
 91 473 91 473 99 465.5 c 128,-1,351
 107 458 107 458 107 447 c 256,340,341
80 506 m 1,352,353
 103 506 103 506 120 489 c 128,-1,354
 137 472 137 472 137 449 c 0,355,356
 137 429 137 429 126 414 c 128,-1,357
 115 399 115 399 97 395 c 1,358,359
 107 323 107 323 139 262 c 0,360,361
 170 200 170 200 218 152 c 128,-1,362
 266 104 266 104 327 73 c 0,363,364
 389 43 389 43 459 33 c 1,365,366
 414 74 414 74 379 117.5 c 128,-1,367
 344 161 344 161 318 205 c 1,368,-1
 222 205 l 2,369,370
 215 205 215 205 211 209 c 128,-1,371
 207 213 207 213 207 220 c 256,372,373
 207 227 207 227 211 231.5 c 128,-1,374
 215 236 215 236 222 236 c 2,375,-1
 301 236 l 1,376,377
 278 283 278 283 266.5 332.5 c 128,-1,378
 255 382 255 382 255 433 c 1,379,-1
 173 433 l 2,380,381
 166 433 166 433 162 437.5 c 128,-1,382
 158 442 158 442 158 449 c 256,383,384
 158 456 158 456 162 460 c 128,-1,385
 166 464 166 464 173 464 c 2,386,-1
 256 464 l 1,387,388
 260 516 260 516 274 564 c 128,-1,389
 288 612 288 612 307 654 c 1,390,-1
 242 654 l 2,391,392
 236 654 236 654 231.5 658.5 c 128,-1,393
 227 663 227 663 227 670 c 256,394,395
 227 677 227 677 231.5 681 c 128,-1,396
 236 685 236 685 242 685 c 2,397,-1
 324 685 l 1,398,399
 363 756 363 756 403.5 803 c 128,-1,400
 444 850 444 850 462 866 c 1,401,402
 462 866 462 866 462 866.5 c 128,-1,403
 462 867 462 867 462 867 c 1,404,405
 391 858 391 858 326 826 c 128,-1,406
 261 794 261 794 212 741 c 0,407,408
 209 738 209 738 206 737 c 128,-1,409
 203 736 203 736 201 736 c 0,410,411
 198 736 198 736 195 737 c 128,-1,412
 192 738 192 738 190 741 c 0,413,414
 185 745 185 745 185 751.5 c 128,-1,415
 185 758 185 758 190 762 c 0,416,417
 244 819 244 819 314 854 c 128,-1,418
 384 889 384 889 462 898 c 1,419,420
 466 917 466 917 481 929 c 128,-1,421
 496 941 496 941 516 941 c 1,422,423
 417 940 417 940 330 903 c 256,424,425
 243 866 243 866 177.5 802 c 128,-1,426
 112 738 112 738 72 653 c 256,427,428
 32 568 32 568 28 470 c 1,429,430
 34 485 34 485 48.5 495.5 c 128,-1,431
 63 506 63 506 80 506 c 1,432,-1
 80 506 l 1,352,353
73 545 m 1,433,434
 78 572 78 572 85.5 593.5 c 128,-1,435
 93 615 93 615 102 636 c 1,436,437
 98 644 98 644 95.5 652 c 128,-1,438
 93 660 93 660 93 670 c 0,439,440
 93 693 93 693 110 710 c 128,-1,441
 127 727 127 727 150 727 c 256,442,443
 173 727 173 727 190 710 c 128,-1,444
 207 693 207 693 207 670 c 0,445,446
 207 646 207 646 190 629 c 128,-1,447
 173 612 173 612 150 612 c 0,448,449
 144 612 144 612 138.5 613.5 c 128,-1,450
 133 615 133 615 128 617 c 1,451,452
 120 600 120 600 114 581.5 c 128,-1,453
 108 563 108 563 103 540 c 0,454,455
 102 534 102 534 98 531 c 128,-1,456
 94 528 94 528 88 528 c 0,457,458
 87 528 87 528 86.5 528 c 128,-1,459
 86 528 86 528 85 528 c 0,460,461
 79 529 79 529 75 534 c 128,-1,462
 71 539 71 539 73 545 c 1,463,-1
 73 545 l 1,433,434
176 670 m 256,464,465
 176 659 176 659 168.5 651 c 128,-1,466
 161 643 161 643 150 643 c 256,467,468
 139 643 139 643 131.5 651 c 128,-1,469
 124 659 124 659 124 670 c 256,470,471
 124 681 124 681 131.5 688.5 c 128,-1,472
 139 696 139 696 150 696 c 256,473,474
 161 696 161 696 168.5 688.5 c 128,-1,475
 176 681 176 681 176 670 c 256,464,465
544 884 m 256,476,477
 544 873 544 873 536 865.5 c 128,-1,478
 528 858 528 858 517 858 c 0,479,480
 507 858 507 858 499 865.5 c 128,-1,481
 491 873 491 873 491 884 c 256,482,483
 491 895 491 895 499 903 c 128,-1,484
 507 911 507 911 517 911 c 0,485,486
 528 911 528 911 536 903 c 128,-1,487
 544 895 544 895 544 884 c 256,476,477
EndSplineSet
EndChar

